<ttFont>
    <TTGlyph name=".ttfautohint" xMin="0" yMin="0" xMax="0" yMax="0">
      <contour>
        <pt x="0" y="0" on="1"/>
      </contour>
    </TTGlyph>
    <TTGlyph name="A" xMin="8" yMin="-1" xMax="428" yMax="704">
      <contour>
        <pt x="428" y="8" on="1"/>
        <pt x="428" y="-1" on="0"/>
        <pt x="409" y="-1" on="1"/>
        <pt x="392" y="-1" on="0"/>
        <pt x="382" y="0" on="1"/>
        <pt x="328" y="199" on="1"/>
        <pt x="108" y="199" on="1"/>
        <pt x="58" y="9" on="1"/>
        <pt x="57" y="2" on="0"/>
        <pt x="48" y="-1" on="0"/>
        <pt x="36" y="-1" on="1"/>
        <pt x="20" y="-1" on="0"/>
        <pt x="8" y="0" on="1"/>
        <pt x="200" y="698" on="1"/>
        <pt x="202" y="704" on="0"/>
        <pt x="215" y="704" on="1"/>
        <pt x="226" y="704" on="0"/>
        <pt x="234" y="702" on="1"/>
        <pt x="427" y="12" on="1"/>
      </contour>
      <contour>
        <pt x="263" y="442" on="1"/>
        <pt x="222" y="593" on="0"/>
        <pt x="218" y="639" on="1"/>
        <pt x="212" y="593" on="0"/>
        <pt x="172" y="442" on="1"/>
        <pt x="120" y="242" on="1"/>
        <pt x="317" y="242" on="1"/>
      </contour>
    </TTGlyph>
    <TTGlyph name="AE" xMin="18" yMin="-1" xMax="622" yMax="700">
      <contour>
        <pt x="622" y="42" on="1"/>
        <pt x="622" y="13" on="0"/>
        <pt x="619" y="0" on="0"/>
        <pt x="611" y="0" on="1"/>
        <pt x="371" y="0" on="1"/>
        <pt x="371" y="199" on="1"/>
        <pt x="163" y="199" on="1"/>
        <pt x="68" y="9" on="1"/>
        <pt x="64" y="-1" on="0"/>
        <pt x="46" y="-1" on="1"/>
        <pt x="30" y="-1" on="0"/>
        <pt x="18" y="0" on="1"/>
        <pt x="360" y="691" on="1"/>
        <pt x="364" y="700" on="0"/>
        <pt x="374" y="700" on="1"/>
        <pt x="383" y="700" on="1"/>
        <pt x="622" y="700" on="1"/>
        <pt x="622" y="671" on="0"/>
        <pt x="620" y="658" on="0"/>
        <pt x="613" y="658" on="1"/>
        <pt x="416" y="658" on="1"/>
        <pt x="416" y="404" on="1"/>
        <pt x="601" y="404" on="1"/>
        <pt x="601" y="376" on="0"/>
        <pt x="598" y="362" on="0"/>
        <pt x="590" y="362" on="1"/>
        <pt x="416" y="362" on="1"/>
        <pt x="416" y="42" on="1"/>
      </contour>
      <contour>
        <pt x="371" y="643" on="1"/>
        <pt x="331" y="543" on="0"/>
        <pt x="282" y="439" on="1"/>
        <pt x="184" y="242" on="1"/>
        <pt x="371" y="242" on="1"/>
      </contour>
    </TTGlyph>
    <TTGlyph name="Aacute" xMin="8" yMin="-1" xMax="428" yMax="916">
      <component glyphName=".ttfautohint" x="8" y="0" flags="0x0"/>
      <component glyphName="A" x="0" y="0" flags="0x1000"/>
      <component glyphName="acute" x="92" y="200" flags="0x1000"/>
    </TTGlyph>
    <TTGlyph name="Abreve" xMin="8" yMin="-1" xMax="428" yMax="909">
      <component glyphName=".ttfautohint" x="8" y="0" flags="0x0"/>
      <component glyphName="A" x="0" y="0" flags="0x1000"/>
      <component glyphName="breve" x="89" y="200" flags="0x1000"/>
    </TTGlyph>
    <TTGlyph name="Acircumflex" xMin="8" yMin="-1" xMax="428" yMax="903">
      <component glyphName=".ttfautohint" x="8" y="0" flags="0x0"/>
      <component glyphName="A" x="0" y="0" flags="0x1000"/>
      <component glyphName="circumflex" x="90" y="200" flags="0x1000"/>
    </TTGlyph>
    <TTGlyph name="Adieresis" xMin="8" yMin="-1" xMax="428" yMax="877">
      <component glyphName=".ttfautohint" x="8" y="0" flags="0x0"/>
      <component glyphName="A" x="0" y="0" flags="0x1000"/>
      <component glyphName="dieresis" x="90" y="200" flags="0x1000"/>
    </TTGlyph>
    <TTGlyph name="Agrave" xMin="8" yMin="-1" xMax="428" yMax="913">
      <component glyphName=".ttfautohint" x="8" y="0" flags="0x0"/>
      <component glyphName="A" x="0" y="0" flags="0x1000"/>
      <component glyphName="grave" x="92" y="200" flags="0x1000"/>
    </TTGlyph>
    <TTGlyph name="Amacron" xMin="8" yMin="-1" xMax="428" yMax="854">
      <component glyphName=".ttfautohint" x="8" y="0" flags="0x0"/>
      <component glyphName="A" x="0" y="0" flags="0x1000"/>
      <component glyphName="macron" x="90" y="200" flags="0x1000"/>
    </TTGlyph>
    <TTGlyph name="Aogonek" xMin="8" yMin="-195" xMax="427" yMax="704">
      <contour>
        <pt x="202" y="704" on="0"/>
        <pt x="215" y="704" on="1"/>
        <pt x="226" y="704" on="0"/>
        <pt x="234" y="702" on="1"/>
        <pt x="426" y="16" on="1"/>
        <pt x="427" y="14" on="0"/>
        <pt x="427" y="10" on="1"/>
        <pt x="427" y="5" on="0"/>
        <pt x="420" y="-1" on="1"/>
        <pt x="388" y="-22" on="0"/>
        <pt x="345" y="-80" on="0"/>
        <pt x="345" y="-111" on="1"/>
        <pt x="345" y="-159" on="0"/>
        <pt x="387" y="-159" on="1"/>
        <pt x="405" y="-159" on="0"/>
        <pt x="418" y="-150" on="1"/>
        <pt x="426" y="-164" on="0"/>
        <pt x="426" y="-172" on="1"/>
        <pt x="426" y="-195" on="0"/>
        <pt x="378" y="-195" on="1"/>
        <pt x="343" y="-195" on="0"/>
        <pt x="303" y="-155" on="0"/>
        <pt x="303" y="-115" on="1"/>
        <pt x="303" y="-79" on="0"/>
        <pt x="348" y="-14" on="0"/>
        <pt x="379" y="9" on="1"/>
        <pt x="328" y="199" on="1"/>
        <pt x="109" y="199" on="1"/>
        <pt x="58" y="9" on="1"/>
        <pt x="57" y="2" on="0"/>
        <pt x="48" y="-1" on="0"/>
        <pt x="36" y="-1" on="1"/>
        <pt x="20" y="-1" on="0"/>
        <pt x="8" y="0" on="1"/>
        <pt x="200" y="698" on="1"/>
      </contour>
      <contour>
        <pt x="222" y="593" on="0"/>
        <pt x="218" y="639" on="1"/>
        <pt x="212" y="593" on="0"/>
        <pt x="172" y="442" on="1"/>
        <pt x="118" y="242" on="1"/>
        <pt x="318" y="242" on="1"/>
        <pt x="263" y="442" on="1"/>
      </contour>
    </TTGlyph>
    <TTGlyph name="Aring" xMin="8" yMin="-1" xMax="428" yMax="935">
      <component glyphName=".ttfautohint" x="8" y="0" flags="0x0"/>
      <component glyphName="A" x="0" y="0" flags="0x1000"/>
      <component glyphName="ring" x="90" y="200" flags="0x1000"/>
    </TTGlyph>
    <TTGlyph name="Atilde" xMin="8" yMin="-1" xMax="428" yMax="879">
      <component glyphName=".ttfautohint" x="8" y="0" flags="0x0"/>
      <component glyphName="A" x="0" y="0" flags="0x1000"/>
      <component glyphName="tilde" x="90" y="200" flags="0x1000"/>
    </TTGlyph>
    <TTGlyph name="B" xMin="59" yMin="0" xMax="372" yMax="700">
      <contour>
        <pt x="59" y="700" on="0"/>
        <pt x="84" y="700" on="1"/>
        <pt x="184" y="700" on="1"/>
        <pt x="351" y="700" on="0"/>
        <pt x="351" y="548" on="1"/>
        <pt x="351" y="467" on="0"/>
        <pt x="290" y="392" on="0"/>
        <pt x="251" y="386" on="1"/>
        <pt x="297" y="384" on="0"/>
        <pt x="372" y="321" on="0"/>
        <pt x="372" y="239" on="1"/>
        <pt x="372" y="100" on="0"/>
        <pt x="252" y="0" on="0"/>
        <pt x="179" y="0" on="1"/>
        <pt x="59" y="0" on="1"/>
        <pt x="59" y="683" on="1"/>
      </contour>
      <contour>
        <pt x="303" y="402" on="0"/>
        <pt x="303" y="542" on="1"/>
        <pt x="303" y="659" on="0"/>
        <pt x="183" y="659" on="1"/>
        <pt x="104" y="659" on="1"/>
        <pt x="104" y="402" on="1"/>
        <pt x="189" y="402" on="1"/>
      </contour>
      <contour>
        <pt x="242" y="41" on="0"/>
        <pt x="322" y="130" on="0"/>
        <pt x="322" y="235" on="1"/>
        <pt x="322" y="291" on="0"/>
        <pt x="286" y="346" on="0"/>
        <pt x="228" y="361" on="0"/>
        <pt x="179" y="361" on="1"/>
        <pt x="104" y="361" on="1"/>
        <pt x="104" y="41" on="1"/>
        <pt x="179" y="41" on="1"/>
      </contour>
    </TTGlyph>
    <TTGlyph name="C" xMin="41" yMin="-9" xMax="332" yMax="709">
      <contour>
        <pt x="264" y="709" on="0"/>
        <pt x="306" y="693" on="0"/>
        <pt x="327" y="670" on="0"/>
        <pt x="327" y="660" on="1"/>
        <pt x="327" y="643" on="0"/>
        <pt x="318" y="632" on="1"/>
        <pt x="308" y="642" on="0"/>
        <pt x="265" y="666" on="0"/>
        <pt x="239" y="666" on="1"/>
        <pt x="195" y="666" on="0"/>
        <pt x="131" y="617" on="0"/>
        <pt x="88" y="461" on="0"/>
        <pt x="88" y="313" on="1"/>
        <pt x="88" y="201" on="0"/>
        <pt x="123" y="80" on="0"/>
        <pt x="178" y="39" on="0"/>
        <pt x="214" y="39" on="1"/>
        <pt x="247" y="39" on="0"/>
        <pt x="308" y="70" on="0"/>
        <pt x="323" y="89" on="1"/>
        <pt x="332" y="71" on="0"/>
        <pt x="332" y="59" on="1"/>
        <pt x="332" y="45" on="0"/>
        <pt x="298" y="13" on="0"/>
        <pt x="241" y="-9" on="0"/>
        <pt x="207" y="-9" on="1"/>
        <pt x="159" y="-9" on="0"/>
        <pt x="89" y="31" on="0"/>
        <pt x="41" y="173" on="0"/>
        <pt x="41" y="315" on="1"/>
        <pt x="41" y="481" on="0"/>
        <pt x="97" y="655" on="0"/>
        <pt x="180" y="709" on="0"/>
        <pt x="235" y="709" on="1"/>
      </contour>
    </TTGlyph>
    <TTGlyph name="Cacute" xMin="41" yMin="-9" xMax="332" yMax="916">
      <component glyphName=".ttfautohint" x="41" y="0" flags="0x0"/>
      <component glyphName="C" x="0" y="0" flags="0x1000"/>
      <component glyphName="acute" x="84" y="200" flags="0x1000"/>
    </TTGlyph>
    <TTGlyph name="Ccaron" xMin="41" yMin="-9" xMax="332" yMax="920">
      <component glyphName=".ttfautohint" x="41" y="0" flags="0x0"/>
      <component glyphName="C" x="0" y="0" flags="0x1000"/>
      <component glyphName="caron" x="81" y="200" flags="0x1000"/>
    </TTGlyph>
    <TTGlyph name="Ccedilla" xMin="41" yMin="-188" xMax="332" yMax="709">
      <contour>
        <pt x="150" y="-7" on="0"/>
        <pt x="85" y="39" on="0"/>
        <pt x="41" y="180" on="0"/>
        <pt x="41" y="315" on="1"/>
        <pt x="41" y="481" on="0"/>
        <pt x="97" y="655" on="0"/>
        <pt x="180" y="709" on="0"/>
        <pt x="235" y="709" on="1"/>
        <pt x="264" y="709" on="0"/>
        <pt x="306" y="693" on="0"/>
        <pt x="327" y="670" on="0"/>
        <pt x="327" y="660" on="1"/>
        <pt x="327" y="643" on="0"/>
        <pt x="318" y="632" on="1"/>
        <pt x="308" y="642" on="0"/>
        <pt x="265" y="666" on="0"/>
        <pt x="239" y="666" on="1"/>
        <pt x="195" y="666" on="0"/>
        <pt x="131" y="617" on="0"/>
        <pt x="88" y="461" on="0"/>
        <pt x="88" y="313" on="1"/>
        <pt x="88" y="201" on="0"/>
        <pt x="123" y="80" on="0"/>
        <pt x="178" y="39" on="0"/>
        <pt x="214" y="39" on="1"/>
        <pt x="247" y="39" on="0"/>
        <pt x="308" y="70" on="0"/>
        <pt x="323" y="89" on="1"/>
        <pt x="332" y="71" on="0"/>
        <pt x="332" y="59" on="1"/>
        <pt x="332" y="46" on="0"/>
        <pt x="304" y="17" on="0"/>
        <pt x="256" y="-5" on="0"/>
        <pt x="227" y="-8" on="1"/>
        <pt x="216" y="-60" on="1"/>
        <pt x="217" y="-60" on="0"/>
        <pt x="225" y="-59" on="0"/>
        <pt x="234" y="-59" on="1"/>
        <pt x="254" y="-59" on="0"/>
        <pt x="282" y="-86" on="0"/>
        <pt x="282" y="-114" on="1"/>
        <pt x="282" y="-152" on="0"/>
        <pt x="242" y="-188" on="0"/>
        <pt x="213" y="-188" on="1"/>
        <pt x="196" y="-188" on="0"/>
        <pt x="166" y="-181" on="0"/>
        <pt x="162" y="-179" on="1"/>
        <pt x="162" y="-175" on="0"/>
        <pt x="167" y="-154" on="0"/>
        <pt x="171" y="-150" on="1"/>
        <pt x="173" y="-147" on="0"/>
        <pt x="183" y="-149" on="0"/>
        <pt x="205" y="-157" on="0"/>
        <pt x="214" y="-157" on="1"/>
        <pt x="250" y="-157" on="0"/>
        <pt x="250" y="-121" on="1"/>
        <pt x="250" y="-86" on="0"/>
        <pt x="215" y="-86" on="1"/>
        <pt x="203" y="-86" on="0"/>
        <pt x="181" y="-90" on="0"/>
        <pt x="178" y="-91" on="1"/>
        <pt x="194" y="-9" on="1"/>
      </contour>
    </TTGlyph>
    <TTGlyph name="D" xMin="61" yMin="0" xMax="380" yMax="700">
      <contour>
        <pt x="284" y="700" on="0"/>
        <pt x="380" y="553" on="0"/>
        <pt x="380" y="387" on="1"/>
        <pt x="380" y="234" on="0"/>
        <pt x="328" y="63" on="0"/>
        <pt x="241" y="0" on="0"/>
        <pt x="180" y="0" on="1"/>
        <pt x="61" y="0" on="1"/>
        <pt x="61" y="683" on="1"/>
        <pt x="61" y="700" on="0"/>
        <pt x="86" y="700" on="1"/>
        <pt x="185" y="700" on="1"/>
      </contour>
      <contour>
        <pt x="225" y="43" on="0"/>
        <pt x="290" y="94" on="0"/>
        <pt x="331" y="247" on="0"/>
        <pt x="331" y="390" on="1"/>
        <pt x="331" y="534" on="0"/>
        <pt x="261" y="658" on="0"/>
        <pt x="183" y="658" on="1"/>
        <pt x="105" y="658" on="1"/>
        <pt x="105" y="43" on="1"/>
        <pt x="180" y="43" on="1"/>
      </contour>
    </TTGlyph>
    <TTGlyph name="Dcaron" xMin="61" yMin="0" xMax="380" yMax="920">
      <component glyphName=".ttfautohint" x="61" y="0" flags="0x0"/>
      <component glyphName="D" x="0" y="0" flags="0x1000"/>
      <component glyphName="caron" x="57" y="200" flags="0x1000"/>
    </TTGlyph>
    <TTGlyph name="Dcroat" xMin="60" yMin="0" xMax="380" yMax="854">
      <component glyphName=".ttfautohint" x="60" y="0" flags="0x0"/>
      <component glyphName="D" x="0" y="0" flags="0x1000"/>
      <component glyphName="macron" x="57" y="200" flags="0x1000"/>
    </TTGlyph>
    <TTGlyph name="Delta" xMin="30" yMin="0" xMax="425" yMax="703">
      <contour>
        <pt x="203" y="703" on="0"/>
        <pt x="230" y="703" on="1"/>
        <pt x="244" y="703" on="0"/>
        <pt x="252" y="697" on="1"/>
        <pt x="425" y="0" on="1"/>
        <pt x="30" y="0" on="1"/>
        <pt x="196" y="672" on="1"/>
      </contour>
      <contour>
        <pt x="228" y="631" on="1"/>
        <pt x="225" y="631" on="1"/>
        <pt x="83" y="43" on="1"/>
        <pt x="373" y="43" on="1"/>
      </contour>
    </TTGlyph>
    <TTGlyph name="E" xMin="61" yMin="0" xMax="313" yMax="700">
      <contour>
        <pt x="313" y="42" on="1"/>
        <pt x="313" y="13" on="0"/>
        <pt x="310" y="0" on="0"/>
        <pt x="302" y="0" on="1"/>
        <pt x="61" y="0" on="1"/>
        <pt x="61" y="688" on="1"/>
        <pt x="61" y="691" on="0"/>
        <pt x="67" y="700" on="0"/>
        <pt x="74" y="700" on="1"/>
        <pt x="313" y="700" on="1"/>
        <pt x="313" y="671" on="0"/>
        <pt x="311" y="658" on="0"/>
        <pt x="304" y="658" on="1"/>
        <pt x="106" y="658" on="1"/>
        <pt x="106" y="404" on="1"/>
        <pt x="291" y="404" on="1"/>
        <pt x="291" y="376" on="0"/>
        <pt x="288" y="362" on="0"/>
        <pt x="281" y="362" on="1"/>
        <pt x="106" y="362" on="1"/>
        <pt x="106" y="42" on="1"/>
      </contour>
    </TTGlyph>
    <TTGlyph name="Eacute" xMin="61" yMin="0" xMax="313" yMax="916">
      <component glyphName=".ttfautohint" x="61" y="0" flags="0x0"/>
      <component glyphName="E" x="0" y="0" flags="0x1000"/>
      <component glyphName="acute" x="61" y="200" flags="0x1000"/>
    </TTGlyph>
    <TTGlyph name="Ecaron" xMin="61" yMin="0" xMax="313" yMax="920">
      <component glyphName=".ttfautohint" x="61" y="0" flags="0x0"/>
      <component glyphName="E" x="0" y="0" flags="0x1000"/>
      <component glyphName="caron" x="58" y="200" flags="0x1000"/>
    </TTGlyph>
    <TTGlyph name="Ecircumflex" xMin="61" yMin="0" xMax="313" yMax="903">
      <component glyphName=".ttfautohint" x="61" y="0" flags="0x0"/>
      <component glyphName="E" x="0" y="0" flags="0x1000"/>
      <component glyphName="circumflex" x="59" y="200" flags="0x1000"/>
    </TTGlyph>
    <TTGlyph name="Edieresis" xMin="61" yMin="0" xMax="313" yMax="877">
      <component glyphName=".ttfautohint" x="61" y="0" flags="0x0"/>
      <component glyphName="E" x="0" y="0" flags="0x1000"/>
      <component glyphName="dieresis" x="59" y="200" flags="0x1000"/>
    </TTGlyph>
    <TTGlyph name="Edotaccent" xMin="61" yMin="0" xMax="313" yMax="878">
      <component glyphName=".ttfautohint" x="61" y="0" flags="0x0"/>
      <component glyphName="E" x="0" y="0" flags="0x1000"/>
      <component glyphName="dotaccent" x="58" y="200" flags="0x1000"/>
    </TTGlyph>
    <TTGlyph name="Egrave" xMin="61" yMin="0" xMax="313" yMax="913">
      <component glyphName=".ttfautohint" x="61" y="0" flags="0x0"/>
      <component glyphName="E" x="0" y="0" flags="0x1000"/>
      <component glyphName="grave" x="61" y="200" flags="0x1000"/>
    </TTGlyph>
    <TTGlyph name="Emacron" xMin="61" yMin="0" xMax="313" yMax="854">
      <component glyphName=".ttfautohint" x="61" y="0" flags="0x0"/>
      <component glyphName="E" x="0" y="0" flags="0x1000"/>
      <component glyphName="macron" x="59" y="200" flags="0x1000"/>
    </TTGlyph>
    <TTGlyph name="Eogonek" xMin="61" yMin="-195" xMax="313" yMax="700">
      <contour>
        <pt x="313" y="16" on="0"/>
        <pt x="309" y="3" on="0"/>
        <pt x="301" y="-3" on="1"/>
        <pt x="271" y="-23" on="0"/>
        <pt x="229" y="-81" on="0"/>
        <pt x="229" y="-112" on="1"/>
        <pt x="229" y="-159" on="0"/>
        <pt x="270" y="-159" on="1"/>
        <pt x="287" y="-159" on="0"/>
        <pt x="302" y="-150" on="1"/>
        <pt x="310" y="-164" on="0"/>
        <pt x="310" y="-172" on="1"/>
        <pt x="310" y="-195" on="0"/>
        <pt x="261" y="-195" on="1"/>
        <pt x="227" y="-195" on="0"/>
        <pt x="187" y="-156" on="0"/>
        <pt x="187" y="-116" on="1"/>
        <pt x="187" y="-83" on="0"/>
        <pt x="224" y="-22" on="0"/>
        <pt x="252" y="0" on="1"/>
        <pt x="61" y="0" on="1"/>
        <pt x="61" y="688" on="1"/>
        <pt x="61" y="691" on="0"/>
        <pt x="67" y="700" on="0"/>
        <pt x="74" y="700" on="1"/>
        <pt x="313" y="700" on="1"/>
        <pt x="313" y="671" on="0"/>
        <pt x="311" y="658" on="0"/>
        <pt x="304" y="658" on="1"/>
        <pt x="106" y="658" on="1"/>
        <pt x="106" y="404" on="1"/>
        <pt x="291" y="404" on="1"/>
        <pt x="291" y="376" on="0"/>
        <pt x="288" y="362" on="0"/>
        <pt x="281" y="362" on="1"/>
        <pt x="106" y="362" on="1"/>
        <pt x="106" y="42" on="1"/>
        <pt x="313" y="42" on="1"/>
      </contour>
    </TTGlyph>
    <TTGlyph name="Eth" xMin="14" yMin="0" xMax="380" yMax="700">
      <contour>
        <pt x="284" y="700" on="0"/>
        <pt x="380" y="554" on="0"/>
        <pt x="380" y="390" on="1"/>
        <pt x="380" y="235" on="0"/>
        <pt x="328" y="63" on="0"/>
        <pt x="241" y="0" on="0"/>
        <pt x="180" y="0" on="1"/>
        <pt x="61" y="0" on="1"/>
        <pt x="61" y="349" on="1"/>
        <pt x="14" y="349" on="1"/>
        <pt x="14" y="375" on="0"/>
        <pt x="18" y="390" on="0"/>
        <pt x="27" y="390" on="1"/>
        <pt x="61" y="390" on="1"/>
        <pt x="61" y="683" on="1"/>
        <pt x="61" y="700" on="0"/>
        <pt x="86" y="700" on="1"/>
        <pt x="185" y="700" on="1"/>
      </contour>
      <contour>
        <pt x="225" y="43" on="0"/>
        <pt x="290" y="94" on="0"/>
        <pt x="331" y="247" on="0"/>
        <pt x="331" y="390" on="1"/>
        <pt x="331" y="534" on="0"/>
        <pt x="261" y="658" on="0"/>
        <pt x="183" y="658" on="1"/>
        <pt x="105" y="658" on="1"/>
        <pt x="105" y="390" on="1"/>
        <pt x="219" y="390" on="1"/>
        <pt x="219" y="364" on="0"/>
        <pt x="215" y="349" on="0"/>
        <pt x="206" y="349" on="1"/>
        <pt x="105" y="349" on="1"/>
        <pt x="105" y="43" on="1"/>
        <pt x="180" y="43" on="1"/>
      </contour>
    </TTGlyph>
    <TTGlyph name="Euro" xMin="24" yMin="-10" xMax="402" yMax="605">
      <contour>
        <pt x="168" y="138" on="0"/>
        <pt x="206" y="58" on="0"/>
        <pt x="257" y="34" on="0"/>
        <pt x="293" y="34" on="1"/>
        <pt x="322" y="34" on="0"/>
        <pt x="379" y="58" on="0"/>
        <pt x="394" y="74" on="1"/>
        <pt x="402" y="60" on="0"/>
        <pt x="402" y="42" on="1"/>
        <pt x="402" y="34" on="0"/>
        <pt x="369" y="8" on="0"/>
        <pt x="315" y="-10" on="0"/>
        <pt x="286" y="-10" on="1"/>
        <pt x="238" y="-10" on="0"/>
        <pt x="169" y="22" on="0"/>
        <pt x="121" y="120" on="0"/>
        <pt x="116" y="215" on="1"/>
        <pt x="24" y="215" on="1"/>
        <pt x="24" y="237" on="0"/>
        <pt x="31" y="253" on="0"/>
        <pt x="44" y="253" on="1"/>
        <pt x="114" y="253" on="1"/>
        <pt x="114" y="269" on="1"/>
        <pt x="114" y="322" on="0"/>
        <pt x="118" y="358" on="1"/>
        <pt x="24" y="358" on="1"/>
        <pt x="24" y="380" on="0"/>
        <pt x="31" y="396" on="0"/>
        <pt x="44" y="396" on="1"/>
        <pt x="122" y="396" on="1"/>
        <pt x="140" y="519" on="0"/>
        <pt x="237" y="605" on="0"/>
        <pt x="305" y="605" on="1"/>
        <pt x="334" y="605" on="0"/>
        <pt x="376" y="591" on="0"/>
        <pt x="399" y="573" on="0"/>
        <pt x="399" y="568" on="1"/>
        <pt x="399" y="546" on="0"/>
        <pt x="390" y="537" on="1"/>
        <pt x="348" y="563" on="0"/>
        <pt x="314" y="563" on="1"/>
        <pt x="261" y="563" on="0"/>
        <pt x="185" y="497" on="0"/>
        <pt x="170" y="396" on="1"/>
        <pt x="341" y="396" on="1"/>
        <pt x="341" y="374" on="0"/>
        <pt x="333" y="358" on="0"/>
        <pt x="321" y="358" on="1"/>
        <pt x="165" y="358" on="1"/>
        <pt x="162" y="318" on="0"/>
        <pt x="162" y="267" on="1"/>
        <pt x="162" y="253" on="1"/>
        <pt x="302" y="253" on="1"/>
        <pt x="302" y="231" on="0"/>
        <pt x="295" y="215" on="0"/>
        <pt x="282" y="215" on="1"/>
        <pt x="163" y="215" on="1"/>
      </contour>
    </TTGlyph>
    <TTGlyph name="F" xMin="61" yMin="0" xMax="313" yMax="700">
      <contour>
        <pt x="313" y="671" on="0"/>
        <pt x="311" y="659" on="0"/>
        <pt x="304" y="659" on="1"/>
        <pt x="106" y="659" on="1"/>
        <pt x="106" y="405" on="1"/>
        <pt x="291" y="405" on="1"/>
        <pt x="291" y="377" on="0"/>
        <pt x="288" y="362" on="0"/>
        <pt x="281" y="362" on="1"/>
        <pt x="106" y="362" on="1"/>
        <pt x="106" y="12" on="1"/>
        <pt x="106" y="1" on="0"/>
        <pt x="106" y="1" on="0"/>
        <pt x="106" y="1" on="0"/>
        <pt x="106" y="12" on="1"/>
        <pt x="106" y="0" on="0"/>
        <pt x="94" y="0" on="1"/>
        <pt x="61" y="0" on="1"/>
        <pt x="61" y="688" on="1"/>
        <pt x="61" y="691" on="0"/>
        <pt x="67" y="700" on="0"/>
        <pt x="74" y="700" on="1"/>
        <pt x="313" y="700" on="1"/>
      </contour>
    </TTGlyph>
    <TTGlyph name="G" xMin="41" yMin="-10" xMax="363" yMax="710">
      <contour>
        <pt x="316" y="-10" on="0"/>
        <pt x="228" y="-10" on="1"/>
        <pt x="166" y="-10" on="0"/>
        <pt x="86" y="45" on="0"/>
        <pt x="41" y="199" on="0"/>
        <pt x="41" y="342" on="1"/>
        <pt x="41" y="488" on="0"/>
        <pt x="92" y="649" on="0"/>
        <pt x="182" y="710" on="0"/>
        <pt x="250" y="710" on="1"/>
        <pt x="294" y="710" on="0"/>
        <pt x="354" y="684" on="0"/>
        <pt x="354" y="667" on="1"/>
        <pt x="354" y="651" on="0"/>
        <pt x="347" y="637" on="1"/>
        <pt x="311" y="666" on="0"/>
        <pt x="258" y="666" on="1"/>
        <pt x="202" y="666" on="0"/>
        <pt x="128" y="611" on="0"/>
        <pt x="88" y="470" on="0"/>
        <pt x="88" y="344" on="1"/>
        <pt x="88" y="213" on="0"/>
        <pt x="124" y="77" on="0"/>
        <pt x="184" y="34" on="0"/>
        <pt x="230" y="34" on="1"/>
        <pt x="265" y="34" on="0"/>
        <pt x="313" y="63" on="0"/>
        <pt x="320" y="77" on="1"/>
        <pt x="320" y="354" on="1"/>
        <pt x="213" y="354" on="1"/>
        <pt x="213" y="381" on="1"/>
        <pt x="213" y="394" on="0"/>
        <pt x="227" y="394" on="1"/>
        <pt x="363" y="394" on="1"/>
        <pt x="363" y="51" on="1"/>
      </contour>
    </TTGlyph>
    <TTGlyph name="Gamma" xMin="69" yMin="0" xMax="305" yMax="700">
      <component glyphName=".ttfautohint" x="69" y="0" flags="0x0"/>
      <component glyphName="uni0413" x="0" y="0" flags="0x1000"/>
    </TTGlyph>
    <TTGlyph name="Gbreve" xMin="41" yMin="-10" xMax="363" yMax="909">
      <component glyphName=".ttfautohint" x="41" y="0" flags="0x0"/>
      <component glyphName="G" x="0" y="0" flags="0x1000"/>
      <component glyphName="breve" x="96" y="200" flags="0x1000"/>
    </TTGlyph>
    <TTGlyph name="Gcommaaccent" xMin="41" yMin="-242" xMax="363" yMax="710">
      <component glyphName=".ttfautohint" x="41" y="0" flags="0x0"/>
      <component glyphName="G" x="0" y="0" flags="0x1000"/>
      <component glyphName="commaaccentcomb" x="87" y="0" flags="0x1000"/>
    </TTGlyph>
    <TTGlyph name="H" xMin="59" yMin="0" xMax="382" yMax="700">
      <contour>
        <pt x="337" y="694" on="0"/>
        <pt x="341" y="699" on="0"/>
        <pt x="363" y="700" on="0"/>
        <pt x="382" y="700" on="1"/>
        <pt x="382" y="12" on="1"/>
        <pt x="382" y="5" on="0"/>
        <pt x="378" y="1" on="0"/>
        <pt x="356" y="0" on="0"/>
        <pt x="337" y="0" on="1"/>
        <pt x="337" y="360" on="1"/>
        <pt x="104" y="360" on="1"/>
        <pt x="104" y="12" on="1"/>
        <pt x="104" y="5" on="0"/>
        <pt x="100" y="1" on="0"/>
        <pt x="78" y="0" on="0"/>
        <pt x="59" y="0" on="1"/>
        <pt x="59" y="688" on="1"/>
        <pt x="59" y="695" on="0"/>
        <pt x="63" y="699" on="0"/>
        <pt x="85" y="700" on="0"/>
        <pt x="104" y="700" on="1"/>
        <pt x="104" y="404" on="1"/>
        <pt x="337" y="404" on="1"/>
        <pt x="337" y="688" on="1"/>
      </contour>
    </TTGlyph>
    <TTGlyph name="I" xMin="59" yMin="0" xMax="105" yMax="700">
      <contour>
        <pt x="59" y="689" on="0"/>
        <pt x="63" y="698" on="0"/>
        <pt x="80" y="700" on="0"/>
        <pt x="105" y="700" on="1"/>
        <pt x="105" y="12" on="1"/>
        <pt x="105" y="6" on="0"/>
        <pt x="100" y="1" on="0"/>
        <pt x="78" y="0" on="0"/>
        <pt x="59" y="0" on="1"/>
        <pt x="59" y="676" on="1"/>
      </contour>
    </TTGlyph>
    <TTGlyph name="IJ" xMin="59" yMin="-10" xMax="403" yMax="700">
      <component glyphName=".ttfautohint" x="59" y="0" flags="0x0"/>
      <component glyphName="I" x="0" y="0" flags="0x1000"/>
      <component glyphName="J" x="164" y="0" flags="0x1000"/>
    </TTGlyph>
    <TTGlyph name="Iacute" xMin="5" yMin="0" xMax="164" yMax="916">
      <component glyphName=".ttfautohint" x="5" y="0" flags="0x0"/>
      <component glyphName="I" x="0" y="0" flags="0x1000"/>
      <component glyphName="acute" x="-44" y="200" flags="0x1000"/>
    </TTGlyph>
    <TTGlyph name="Icircumflex" xMin="-36" yMin="0" xMax="201" yMax="903">
      <component glyphName=".ttfautohint" x="0" y="0" flags="0x0"/>
      <component glyphName="I" x="0" y="0" flags="0x1000"/>
      <component glyphName="circumflex" x="-46" y="200" flags="0x1000"/>
    </TTGlyph>
    <TTGlyph name="Idieresis" xMin="2" yMin="0" xMax="163" yMax="877">
      <component glyphName=".ttfautohint" x="2" y="0" flags="0x0"/>
      <component glyphName="I" x="0" y="0" flags="0x1000"/>
      <component glyphName="dieresis" x="-46" y="200" flags="0x1000"/>
    </TTGlyph>
    <TTGlyph name="Idotaccent" xMin="55" yMin="0" xMax="111" yMax="878">
      <component glyphName=".ttfautohint" x="55" y="0" flags="0x0"/>
      <component glyphName="I" x="0" y="0" flags="0x1000"/>
      <component glyphName="dotaccent" x="-46" y="200" flags="0x1000"/>
    </TTGlyph>
    <TTGlyph name="Igrave" xMin="5" yMin="0" xMax="164" yMax="913">
      <component glyphName=".ttfautohint" x="5" y="0" flags="0x0"/>
      <component glyphName="I" x="0" y="0" flags="0x1000"/>
      <component glyphName="grave" x="-44" y="200" flags="0x1000"/>
    </TTGlyph>
    <TTGlyph name="Imacron" xMin="-43" yMin="0" xMax="208" yMax="854">
      <component glyphName=".ttfautohint" x="0" y="0" flags="0x0"/>
      <component glyphName="I" x="0" y="0" flags="0x1000"/>
      <component glyphName="macron" x="-46" y="200" flags="0x1000"/>
    </TTGlyph>
    <TTGlyph name="Iogonek" xMin="-8" yMin="-195" xMax="114" yMax="700">
      <contour>
        <pt x="104" y="5" on="0"/>
        <pt x="92" y="-5" on="1"/>
        <pt x="68" y="-25" on="0"/>
        <pt x="33" y="-84" on="0"/>
        <pt x="33" y="-115" on="1"/>
        <pt x="33" y="-158" on="0"/>
        <pt x="75" y="-158" on="1"/>
        <pt x="89" y="-158" on="0"/>
        <pt x="107" y="-150" on="1"/>
        <pt x="114" y="-161" on="0"/>
        <pt x="114" y="-172" on="1"/>
        <pt x="115" y="-183" on="0"/>
        <pt x="89" y="-195" on="0"/>
        <pt x="68" y="-195" on="1"/>
        <pt x="-8" y="-195" on="0"/>
        <pt x="-8" y="-118" on="1"/>
        <pt x="-8" y="-52" on="0"/>
        <pt x="59" y="9" on="1"/>
        <pt x="59" y="676" on="1"/>
        <pt x="59" y="689" on="0"/>
        <pt x="63" y="698" on="0"/>
        <pt x="79" y="700" on="0"/>
        <pt x="104" y="700" on="1"/>
        <pt x="104" y="12" on="1"/>
      </contour>
    </TTGlyph>
    <TTGlyph name="J" xMin="18" yMin="-10" xMax="239" yMax="700">
      <contour>
        <pt x="194" y="690" on="0"/>
        <pt x="198" y="698" on="0"/>
        <pt x="214" y="700" on="0"/>
        <pt x="239" y="700" on="1"/>
        <pt x="239" y="169" on="1"/>
        <pt x="239" y="88" on="0"/>
        <pt x="191" y="-10" on="0"/>
        <pt x="117" y="-10" on="1"/>
        <pt x="72" y="-10" on="0"/>
        <pt x="18" y="21" on="0"/>
        <pt x="18" y="40" on="1"/>
        <pt x="18" y="54" on="0"/>
        <pt x="28" y="69" on="1"/>
        <pt x="61" y="32" on="0"/>
        <pt x="113" y="32" on="1"/>
        <pt x="149" y="32" on="0"/>
        <pt x="184" y="72" on="0"/>
        <pt x="194" y="134" on="0"/>
        <pt x="194" y="184" on="1"/>
        <pt x="194" y="677" on="1"/>
      </contour>
    </TTGlyph>
    <TTGlyph name="K" xMin="59" yMin="-1" xMax="370" yMax="700">
      <contour>
        <pt x="288" y="311" on="0"/>
        <pt x="369" y="15" on="1"/>
        <pt x="370" y="9" on="1"/>
        <pt x="370" y="-1" on="0"/>
        <pt x="352" y="-1" on="1"/>
        <pt x="333" y="-1" on="0"/>
        <pt x="324" y="0" on="1"/>
        <pt x="280" y="138" on="0"/>
        <pt x="201" y="286" on="0"/>
        <pt x="156" y="331" on="1"/>
        <pt x="135" y="352" on="0"/>
        <pt x="104" y="364" on="1"/>
        <pt x="104" y="12" on="1"/>
        <pt x="104" y="5" on="0"/>
        <pt x="100" y="1" on="0"/>
        <pt x="78" y="0" on="0"/>
        <pt x="59" y="0" on="1"/>
        <pt x="59" y="688" on="1"/>
        <pt x="59" y="695" on="0"/>
        <pt x="63" y="699" on="0"/>
        <pt x="85" y="700" on="0"/>
        <pt x="104" y="700" on="1"/>
        <pt x="104" y="397" on="1"/>
        <pt x="321" y="698" on="1"/>
        <pt x="331" y="700" on="0"/>
        <pt x="349" y="700" on="1"/>
        <pt x="368" y="700" on="0"/>
        <pt x="368" y="691" on="1"/>
        <pt x="368" y="688" on="0"/>
        <pt x="365" y="682" on="1"/>
        <pt x="149" y="394" on="1"/>
      </contour>
    </TTGlyph>
    <TTGlyph name="Kcommaaccent" xMin="59" yMin="-242" xMax="370" yMax="700">
      <component glyphName=".ttfautohint" x="59" y="0" flags="0x0"/>
      <component glyphName="K" x="0" y="0" flags="0x1000"/>
      <component glyphName="commaaccentcomb" x="66" y="0" flags="0x1000"/>
    </TTGlyph>
    <TTGlyph name="L" xMin="59" yMin="0" xMax="314" yMax="700">
      <contour>
        <pt x="314" y="12" on="1"/>
        <pt x="314" y="0" on="0"/>
        <pt x="301" y="0" on="1"/>
        <pt x="59" y="0" on="1"/>
        <pt x="59" y="682" on="1"/>
        <pt x="59" y="692" on="0"/>
        <pt x="63" y="698" on="0"/>
        <pt x="86" y="700" on="0"/>
        <pt x="105" y="700" on="1"/>
        <pt x="105" y="42" on="1"/>
        <pt x="314" y="42" on="1"/>
      </contour>
    </TTGlyph>
    <TTGlyph name="Lacute" xMin="59" yMin="0" xMax="314" yMax="916">
      <component glyphName=".ttfautohint" x="59" y="0" flags="0x0"/>
      <component glyphName="L" x="0" y="0" flags="0x1000"/>
      <component glyphName="acute" x="26" y="200" flags="0x1000"/>
    </TTGlyph>
    <TTGlyph name="Lcaron" xMin="59" yMin="0" xMax="314" yMax="700">
      <contour>
        <pt x="314" y="12" on="1"/>
        <pt x="314" y="0" on="0"/>
        <pt x="301" y="0" on="1"/>
        <pt x="59" y="0" on="1"/>
        <pt x="59" y="682" on="1"/>
        <pt x="59" y="692" on="0"/>
        <pt x="63" y="698" on="0"/>
        <pt x="86" y="700" on="0"/>
        <pt x="105" y="700" on="1"/>
        <pt x="105" y="42" on="1"/>
        <pt x="314" y="42" on="1"/>
      </contour>
      <contour>
        <pt x="230" y="647" on="0"/>
        <pt x="249" y="667" on="0"/>
        <pt x="265" y="667" on="1"/>
        <pt x="301" y="667" on="0"/>
        <pt x="301" y="624" on="1"/>
        <pt x="301" y="595" on="0"/>
        <pt x="280" y="516" on="0"/>
        <pt x="253" y="458" on="0"/>
        <pt x="245" y="458" on="1"/>
        <pt x="229" y="458" on="0"/>
        <pt x="226" y="474" on="1"/>
        <pt x="248" y="522" on="0"/>
        <pt x="248" y="594" on="1"/>
        <pt x="230" y="605" on="0"/>
        <pt x="230" y="630" on="1"/>
      </contour>
    </TTGlyph>
    <TTGlyph name="Lcommaaccent" xMin="59" yMin="-242" xMax="314" yMax="700">
      <component glyphName=".ttfautohint" x="59" y="0" flags="0x0"/>
      <component glyphName="L" x="0" y="0" flags="0x1000"/>
      <component glyphName="commaaccentcomb" x="38" y="0" flags="0x1000"/>
    </TTGlyph>
    <TTGlyph name="Ldot" xMin="59" yMin="0" xMax="314" yMax="700">
      <contour>
        <pt x="314" y="12" on="1"/>
        <pt x="314" y="0" on="0"/>
        <pt x="301" y="0" on="1"/>
        <pt x="59" y="0" on="1"/>
        <pt x="59" y="682" on="1"/>
        <pt x="59" y="692" on="0"/>
        <pt x="63" y="698" on="0"/>
        <pt x="86" y="700" on="0"/>
        <pt x="105" y="700" on="1"/>
        <pt x="105" y="42" on="1"/>
        <pt x="314" y="42" on="1"/>
      </contour>
      <contour>
        <pt x="192" y="341" on="0"/>
        <pt x="213" y="364" on="0"/>
        <pt x="230" y="364" on="1"/>
        <pt x="248" y="364" on="0"/>
        <pt x="269" y="341" on="0"/>
        <pt x="269" y="324" on="1"/>
        <pt x="269" y="307" on="0"/>
        <pt x="247" y="283" on="0"/>
        <pt x="230" y="283" on="1"/>
        <pt x="192" y="283" on="0"/>
        <pt x="192" y="324" on="1"/>
      </contour>
    </TTGlyph>
    <TTGlyph name="Lslash" xMin="8" yMin="0" xMax="318" yMax="700">
      <contour>
        <pt x="318" y="12" on="1"/>
        <pt x="318" y="9" on="0"/>
        <pt x="314" y="0" on="0"/>
        <pt x="306" y="0" on="1"/>
        <pt x="64" y="0" on="1"/>
        <pt x="64" y="336" on="1"/>
        <pt x="16" y="319" on="1"/>
        <pt x="8" y="345" on="0"/>
        <pt x="8" y="352" on="1"/>
        <pt x="8" y="360" on="0"/>
        <pt x="16" y="363" on="1"/>
        <pt x="64" y="380" on="1"/>
        <pt x="64" y="682" on="1"/>
        <pt x="64" y="692" on="0"/>
        <pt x="68" y="698" on="0"/>
        <pt x="91" y="700" on="0"/>
        <pt x="110" y="700" on="1"/>
        <pt x="110" y="396" on="1"/>
        <pt x="210" y="431" on="1"/>
        <pt x="218" y="404" on="0"/>
        <pt x="218" y="398" on="1"/>
        <pt x="218" y="390" on="0"/>
        <pt x="210" y="387" on="1"/>
        <pt x="110" y="352" on="1"/>
        <pt x="110" y="42" on="1"/>
        <pt x="318" y="42" on="1"/>
      </contour>
    </TTGlyph>
    <TTGlyph name="M" xMin="59" yMin="0" xMax="443" yMax="700">
      <contour>
        <pt x="402" y="700" on="0"/>
        <pt x="410" y="700" on="1"/>
        <pt x="443" y="700" on="1"/>
        <pt x="443" y="12" on="1"/>
        <pt x="443" y="5" on="0"/>
        <pt x="439" y="1" on="0"/>
        <pt x="418" y="0" on="0"/>
        <pt x="399" y="0" on="1"/>
        <pt x="399" y="306" on="1"/>
        <pt x="405" y="583" on="1"/>
        <pt x="326" y="323" on="1"/>
        <pt x="267" y="147" on="1"/>
        <pt x="264" y="138" on="0"/>
        <pt x="256" y="138" on="1"/>
        <pt x="233" y="138" on="1"/>
        <pt x="176" y="323" on="1"/>
        <pt x="96" y="581" on="1"/>
        <pt x="98" y="535" on="0"/>
        <pt x="101" y="375" on="0"/>
        <pt x="104" y="314" on="1"/>
        <pt x="104" y="12" on="1"/>
        <pt x="104" y="6" on="0"/>
        <pt x="99" y="1" on="0"/>
        <pt x="77" y="0" on="0"/>
        <pt x="59" y="0" on="1"/>
        <pt x="59" y="688" on="1"/>
        <pt x="59" y="700" on="0"/>
        <pt x="71" y="700" on="1"/>
        <pt x="100" y="700" on="1"/>
        <pt x="214" y="331" on="1"/>
        <pt x="251" y="208" on="1"/>
        <pt x="286" y="327" on="1"/>
        <pt x="398" y="688" on="1"/>
      </contour>
    </TTGlyph>
    <TTGlyph name="N" xMin="59" yMin="0" xMax="402" yMax="700">
      <contour>
        <pt x="357" y="695" on="0"/>
        <pt x="361" y="699" on="0"/>
        <pt x="383" y="700" on="0"/>
        <pt x="402" y="700" on="1"/>
        <pt x="402" y="12" on="1"/>
        <pt x="402" y="0" on="0"/>
        <pt x="389" y="0" on="1"/>
        <pt x="359" y="0" on="1"/>
        <pt x="234" y="283" on="1"/>
        <pt x="101" y="609" on="1"/>
        <pt x="104" y="489" on="0"/>
        <pt x="104" y="258" on="1"/>
        <pt x="104" y="12" on="1"/>
        <pt x="104" y="5" on="0"/>
        <pt x="100" y="1" on="0"/>
        <pt x="78" y="0" on="0"/>
        <pt x="59" y="0" on="1"/>
        <pt x="59" y="688" on="1"/>
        <pt x="59" y="700" on="0"/>
        <pt x="71" y="700" on="1"/>
        <pt x="102" y="700" on="1"/>
        <pt x="224" y="422" on="1"/>
        <pt x="242" y="374" on="0"/>
        <pt x="360" y="93" on="1"/>
        <pt x="357" y="198" on="0"/>
        <pt x="357" y="449" on="1"/>
        <pt x="357" y="688" on="1"/>
      </contour>
    </TTGlyph>
    <TTGlyph name="Nacute" xMin="59" yMin="0" xMax="402" yMax="916">
      <component glyphName=".ttfautohint" x="59" y="0" flags="0x0"/>
      <component glyphName="N" x="0" y="0" flags="0x1000"/>
      <component glyphName="acute" x="104" y="200" flags="0x1000"/>
    </TTGlyph>
    <TTGlyph name="Ncaron" xMin="59" yMin="0" xMax="402" yMax="920">
      <component glyphName=".ttfautohint" x="59" y="0" flags="0x0"/>
      <component glyphName="N" x="0" y="0" flags="0x1000"/>
      <component glyphName="caron" x="102" y="200" flags="0x1000"/>
    </TTGlyph>
    <TTGlyph name="Ncommaaccent" xMin="59" yMin="-242" xMax="402" yMax="700">
      <component glyphName=".ttfautohint" x="59" y="0" flags="0x0"/>
      <component glyphName="N" x="0" y="0" flags="0x1000"/>
      <component glyphName="commaaccentcomb" x="101" y="0" flags="0x1000"/>
    </TTGlyph>
    <TTGlyph name="Ntilde" xMin="59" yMin="0" xMax="402" yMax="879">
      <component glyphName=".ttfautohint" x="59" y="0" flags="0x0"/>
      <component glyphName="N" x="0" y="0" flags="0x1000"/>
      <component glyphName="tilde" x="102" y="200" flags="0x1000"/>
    </TTGlyph>
    <TTGlyph name="O" xMin="41" yMin="-10" xMax="411" yMax="710">
      <contour>
        <pt x="41" y="545" on="0"/>
        <pt x="134" y="710" on="0"/>
        <pt x="234" y="710" on="1"/>
        <pt x="300" y="710" on="0"/>
        <pt x="376" y="642" on="0"/>
        <pt x="411" y="489" on="0"/>
        <pt x="411" y="356" on="1"/>
        <pt x="411" y="222" on="0"/>
        <pt x="372" y="62" on="0"/>
        <pt x="290" y="-10" on="0"/>
        <pt x="223" y="-10" on="1"/>
        <pt x="157" y="-10" on="0"/>
        <pt x="78" y="57" on="0"/>
        <pt x="41" y="215" on="0"/>
        <pt x="41" y="355" on="1"/>
      </contour>
      <contour>
        <pt x="90" y="228" on="0"/>
        <pt x="117" y="96" on="0"/>
        <pt x="175" y="36" on="0"/>
        <pt x="224" y="36" on="1"/>
        <pt x="274" y="36" on="0"/>
        <pt x="335" y="99" on="0"/>
        <pt x="364" y="239" on="0"/>
        <pt x="364" y="357" on="1"/>
        <pt x="364" y="472" on="0"/>
        <pt x="338" y="606" on="0"/>
        <pt x="281" y="664" on="0"/>
        <pt x="233" y="664" on="1"/>
        <pt x="183" y="664" on="0"/>
        <pt x="121" y="601" on="0"/>
        <pt x="90" y="459" on="0"/>
        <pt x="90" y="340" on="1"/>
      </contour>
    </TTGlyph>
    <TTGlyph name="OE" xMin="40" yMin="-10" xMax="611" yMax="710">
      <contour>
        <pt x="610" y="42" on="1"/>
        <pt x="610" y="13" on="0"/>
        <pt x="607" y="0" on="0"/>
        <pt x="600" y="0" on="1"/>
        <pt x="364" y="0" on="1"/>
        <pt x="364" y="78" on="1"/>
        <pt x="323" y="-10" on="0"/>
        <pt x="222" y="-10" on="1"/>
        <pt x="156" y="-10" on="0"/>
        <pt x="77" y="57" on="0"/>
        <pt x="40" y="215" on="0"/>
        <pt x="40" y="354" on="1"/>
        <pt x="40" y="544" on="0"/>
        <pt x="132" y="710" on="0"/>
        <pt x="231" y="710" on="1"/>
        <pt x="326" y="710" on="0"/>
        <pt x="364" y="633" on="1"/>
        <pt x="364" y="688" on="1"/>
        <pt x="364" y="691" on="0"/>
        <pt x="369" y="700" on="0"/>
        <pt x="376" y="700" on="1"/>
        <pt x="611" y="700" on="1"/>
        <pt x="611" y="671" on="0"/>
        <pt x="608" y="658" on="0"/>
        <pt x="601" y="658" on="1"/>
        <pt x="404" y="658" on="1"/>
        <pt x="404" y="404" on="1"/>
        <pt x="589" y="404" on="1"/>
        <pt x="589" y="376" on="0"/>
        <pt x="586" y="362" on="0"/>
        <pt x="578" y="362" on="1"/>
        <pt x="404" y="362" on="1"/>
        <pt x="404" y="42" on="1"/>
      </contour>
      <contour>
        <pt x="272" y="35" on="0"/>
        <pt x="330" y="98" on="0"/>
        <pt x="355" y="237" on="0"/>
        <pt x="355" y="357" on="1"/>
        <pt x="355" y="475" on="0"/>
        <pt x="332" y="607" on="0"/>
        <pt x="279" y="666" on="0"/>
        <pt x="231" y="666" on="1"/>
        <pt x="157" y="666" on="0"/>
        <pt x="89" y="516" on="0"/>
        <pt x="89" y="340" on="1"/>
        <pt x="89" y="228" on="0"/>
        <pt x="116" y="95" on="0"/>
        <pt x="174" y="35" on="0"/>
        <pt x="222" y="35" on="1"/>
      </contour>
    </TTGlyph>
    <TTGlyph name="Oacute" xMin="41" yMin="-10" xMax="411" yMax="916">
      <component glyphName=".ttfautohint" x="41" y="0" flags="0x0"/>
      <component glyphName="O" x="0" y="0" flags="0x1000"/>
      <component glyphName="acute" x="100" y="200" flags="0x1000"/>
    </TTGlyph>
    <TTGlyph name="Ocircumflex" xMin="41" yMin="-10" xMax="411" yMax="903">
      <component glyphName=".ttfautohint" x="41" y="0" flags="0x0"/>
      <component glyphName="O" x="0" y="0" flags="0x1000"/>
      <component glyphName="circumflex" x="98" y="200" flags="0x1000"/>
    </TTGlyph>
    <TTGlyph name="Odieresis" xMin="41" yMin="-10" xMax="411" yMax="877">
      <component glyphName=".ttfautohint" x="41" y="0" flags="0x0"/>
      <component glyphName="O" x="0" y="0" flags="0x1000"/>
      <component glyphName="dieresis" x="98" y="200" flags="0x1000"/>
    </TTGlyph>
    <TTGlyph name="Ograve" xMin="41" yMin="-10" xMax="411" yMax="913">
      <component glyphName=".ttfautohint" x="41" y="0" flags="0x0"/>
      <component glyphName="O" x="0" y="0" flags="0x1000"/>
      <component glyphName="grave" x="100" y="200" flags="0x1000"/>
    </TTGlyph>
    <TTGlyph name="Ohm" xMin="50" yMin="0" xMax="419" yMax="710">
      <component glyphName=".ttfautohint" x="50" y="0" flags="0x0"/>
      <component glyphName="Omega" x="0" y="0" flags="0x1000"/>
    </TTGlyph>
    <TTGlyph name="Ohungarumlaut" xMin="41" yMin="-10" xMax="411" yMax="920">
      <component glyphName=".ttfautohint" x="41" y="0" flags="0x0"/>
      <component glyphName="O" x="0" y="0" flags="0x1000"/>
      <component glyphName="hungarumlaut" x="120" y="200" flags="0x1000"/>
    </TTGlyph>
    <TTGlyph name="Omacron" xMin="41" yMin="-10" xMax="411" yMax="854">
      <component glyphName=".ttfautohint" x="41" y="0" flags="0x0"/>
      <component glyphName="O" x="0" y="0" flags="0x1000"/>
      <component glyphName="macron" x="98" y="200" flags="0x1000"/>
    </TTGlyph>
    <TTGlyph name="Omega" xMin="50" yMin="0" xMax="419" yMax="710">
      <contour>
        <pt x="308" y="53" on="0"/>
        <pt x="373" y="249" on="0"/>
        <pt x="373" y="356" on="1"/>
        <pt x="373" y="471" on="0"/>
        <pt x="345" y="605" on="0"/>
        <pt x="287" y="664" on="0"/>
        <pt x="240" y="664" on="1"/>
        <pt x="191" y="664" on="0"/>
        <pt x="129" y="606" on="0"/>
        <pt x="98" y="473" on="0"/>
        <pt x="98" y="360" on="1"/>
        <pt x="98" y="252" on="0"/>
        <pt x="159" y="47" on="0"/>
        <pt x="199" y="0" on="1"/>
        <pt x="53" y="0" on="1"/>
        <pt x="50" y="18" on="0"/>
        <pt x="50" y="20" on="1"/>
        <pt x="50" y="43" on="0"/>
        <pt x="67" y="43" on="1"/>
        <pt x="137" y="43" on="1"/>
        <pt x="103" y="91" on="0"/>
        <pt x="52" y="260" on="0"/>
        <pt x="52" y="374" on="1"/>
        <pt x="52" y="550" on="0"/>
        <pt x="146" y="710" on="0"/>
        <pt x="245" y="710" on="1"/>
        <pt x="309" y="710" on="0"/>
        <pt x="385" y="644" on="0"/>
        <pt x="418" y="500" on="0"/>
        <pt x="418" y="379" on="1"/>
        <pt x="418" y="259" on="0"/>
        <pt x="363" y="85" on="0"/>
        <pt x="329" y="43" on="1"/>
        <pt x="416" y="43" on="1"/>
        <pt x="419" y="28" on="0"/>
        <pt x="419" y="22" on="1"/>
        <pt x="419" y="0" on="0"/>
        <pt x="402" y="0" on="1"/>
        <pt x="266" y="0" on="1"/>
      </contour>
    </TTGlyph>
    <TTGlyph name="Oslash" xMin="43" yMin="-17" xMax="412" yMax="719">
      <contour>
        <pt x="412" y="549" on="0"/>
        <pt x="412" y="356" on="1"/>
        <pt x="412" y="222" on="0"/>
        <pt x="373" y="62" on="0"/>
        <pt x="291" y="-10" on="0"/>
        <pt x="224" y="-10" on="1"/>
        <pt x="146" y="-10" on="0"/>
        <pt x="107" y="36" on="1"/>
        <pt x="85" y="-17" on="1"/>
        <pt x="57" y="-17" on="0"/>
        <pt x="55" y="-1" on="1"/>
        <pt x="54" y="1" on="0"/>
        <pt x="84" y="71" on="1"/>
        <pt x="43" y="150" on="0"/>
        <pt x="43" y="355" on="1"/>
        <pt x="43" y="484" on="0"/>
        <pt x="84" y="639" on="0"/>
        <pt x="167" y="710" on="0"/>
        <pt x="233" y="710" on="1"/>
        <pt x="307" y="710" on="0"/>
        <pt x="347" y="666" on="1"/>
        <pt x="365" y="715" on="0"/>
        <pt x="368" y="719" on="1"/>
        <pt x="370" y="719" on="0"/>
        <pt x="384" y="716" on="0"/>
        <pt x="398" y="710" on="0"/>
        <pt x="399" y="704" on="1"/>
        <pt x="399" y="703" on="0"/>
        <pt x="373" y="628" on="1"/>
      </contour>
      <contour>
        <pt x="287" y="665" on="0"/>
        <pt x="233" y="665" on="1"/>
        <pt x="159" y="665" on="0"/>
        <pt x="91" y="516" on="0"/>
        <pt x="91" y="340" on="1"/>
        <pt x="91" y="181" on="0"/>
        <pt x="118" y="111" on="1"/>
        <pt x="317" y="628" on="1"/>
      </contour>
      <contour>
        <pt x="272" y="36" on="0"/>
        <pt x="334" y="94" on="0"/>
        <pt x="365" y="234" on="0"/>
        <pt x="365" y="357" on="1"/>
        <pt x="365" y="519" on="0"/>
        <pt x="337" y="590" on="1"/>
        <pt x="138" y="74" on="1"/>
        <pt x="168" y="36" on="0"/>
        <pt x="222" y="36" on="1"/>
      </contour>
    </TTGlyph>
    <TTGlyph name="Otilde" xMin="41" yMin="-10" xMax="411" yMax="879">
      <component glyphName=".ttfautohint" x="41" y="0" flags="0x0"/>
      <component glyphName="O" x="0" y="0" flags="0x1000"/>
      <component glyphName="tilde" x="98" y="200" flags="0x1000"/>
    </TTGlyph>
    <TTGlyph name="P" xMin="59" yMin="0" xMax="348" yMax="700">
      <contour>
        <pt x="348" y="700" on="0"/>
        <pt x="348" y="512" on="1"/>
        <pt x="348" y="406" on="0"/>
        <pt x="255" y="301" on="0"/>
        <pt x="172" y="301" on="1"/>
        <pt x="104" y="301" on="1"/>
        <pt x="104" y="12" on="1"/>
        <pt x="104" y="5" on="0"/>
        <pt x="100" y="1" on="0"/>
        <pt x="78" y="0" on="0"/>
        <pt x="59" y="0" on="1"/>
        <pt x="59" y="688" on="1"/>
        <pt x="59" y="700" on="0"/>
        <pt x="71" y="700" on="1"/>
        <pt x="177" y="700" on="1"/>
      </contour>
      <contour>
        <pt x="300" y="343" on="0"/>
        <pt x="300" y="516" on="1"/>
        <pt x="300" y="659" on="0"/>
        <pt x="179" y="659" on="1"/>
        <pt x="104" y="659" on="1"/>
        <pt x="104" y="343" on="1"/>
        <pt x="174" y="343" on="1"/>
      </contour>
    </TTGlyph>
    <TTGlyph name="Pi" xMin="69" yMin="0" xMax="380" yMax="700">
      <component glyphName=".ttfautohint" x="69" y="0" flags="0x0"/>
      <component glyphName="uni041F" x="0" y="0" flags="0x1000"/>
    </TTGlyph>
    <TTGlyph name="Q" xMin="41" yMin="-132" xMax="411" yMax="710">
      <contour>
        <pt x="365" y="-94" on="0"/>
        <pt x="392" y="-77" on="1"/>
        <pt x="400" y="-85" on="0"/>
        <pt x="400" y="-102" on="1"/>
        <pt x="400" y="-115" on="0"/>
        <pt x="350" y="-132" on="0"/>
        <pt x="319" y="-132" on="1"/>
        <pt x="277" y="-132" on="0"/>
        <pt x="227" y="-76" on="0"/>
        <pt x="213" y="-10" on="1"/>
        <pt x="151" y="-8" on="0"/>
        <pt x="76" y="61" on="0"/>
        <pt x="41" y="219" on="0"/>
        <pt x="41" y="355" on="1"/>
        <pt x="41" y="545" on="0"/>
        <pt x="134" y="710" on="0"/>
        <pt x="234" y="710" on="1"/>
        <pt x="300" y="710" on="0"/>
        <pt x="376" y="642" on="0"/>
        <pt x="411" y="489" on="0"/>
        <pt x="411" y="356" on="1"/>
        <pt x="411" y="178" on="0"/>
        <pt x="341" y="8" on="0"/>
        <pt x="263" y="-6" on="1"/>
        <pt x="273" y="-56" on="0"/>
        <pt x="301" y="-94" on="0"/>
        <pt x="327" y="-94" on="1"/>
      </contour>
      <contour>
        <pt x="90" y="228" on="0"/>
        <pt x="117" y="96" on="0"/>
        <pt x="175" y="36" on="0"/>
        <pt x="224" y="36" on="1"/>
        <pt x="274" y="36" on="0"/>
        <pt x="335" y="99" on="0"/>
        <pt x="364" y="239" on="0"/>
        <pt x="364" y="357" on="1"/>
        <pt x="364" y="472" on="0"/>
        <pt x="338" y="606" on="0"/>
        <pt x="281" y="664" on="0"/>
        <pt x="233" y="664" on="1"/>
        <pt x="183" y="664" on="0"/>
        <pt x="121" y="601" on="0"/>
        <pt x="90" y="459" on="0"/>
        <pt x="90" y="340" on="1"/>
      </contour>
    </TTGlyph>
    <TTGlyph name="R" xMin="59" yMin="-1" xMax="348" yMax="700">
      <contour>
        <pt x="348" y="700" on="0"/>
        <pt x="348" y="512" on="1"/>
        <pt x="348" y="349" on="0"/>
        <pt x="239" y="311" on="1"/>
        <pt x="271" y="267" on="0"/>
        <pt x="334" y="118" on="0"/>
        <pt x="344" y="14" on="1"/>
        <pt x="344" y="11" on="1"/>
        <pt x="344" y="4" on="0"/>
        <pt x="336" y="0" on="0"/>
        <pt x="322" y="-1" on="1"/>
        <pt x="297" y="0" on="1"/>
        <pt x="283" y="120" on="0"/>
        <pt x="222" y="268" on="0"/>
        <pt x="194" y="302" on="1"/>
        <pt x="187" y="301" on="0"/>
        <pt x="172" y="301" on="1"/>
        <pt x="104" y="301" on="1"/>
        <pt x="104" y="12" on="1"/>
        <pt x="104" y="5" on="0"/>
        <pt x="100" y="1" on="0"/>
        <pt x="78" y="0" on="0"/>
        <pt x="59" y="0" on="1"/>
        <pt x="59" y="688" on="1"/>
        <pt x="59" y="691" on="0"/>
        <pt x="64" y="700" on="0"/>
        <pt x="71" y="700" on="1"/>
        <pt x="177" y="700" on="1"/>
      </contour>
      <contour>
        <pt x="300" y="343" on="0"/>
        <pt x="300" y="514" on="1"/>
        <pt x="300" y="659" on="0"/>
        <pt x="179" y="659" on="1"/>
        <pt x="104" y="659" on="1"/>
        <pt x="104" y="343" on="1"/>
        <pt x="174" y="343" on="1"/>
      </contour>
    </TTGlyph>
    <TTGlyph name="Racute" xMin="59" yMin="-1" xMax="348" yMax="916">
      <component glyphName=".ttfautohint" x="59" y="0" flags="0x0"/>
      <component glyphName="R" x="0" y="0" flags="0x1000"/>
      <component glyphName="acute" x="44" y="200" flags="0x1000"/>
    </TTGlyph>
    <TTGlyph name="Rcaron" xMin="55" yMin="-1" xMax="348" yMax="920">
      <component glyphName=".ttfautohint" x="55" y="0" flags="0x0"/>
      <component glyphName="R" x="0" y="0" flags="0x1000"/>
      <component glyphName="caron" x="42" y="200" flags="0x1000"/>
    </TTGlyph>
    <TTGlyph name="Rcommaaccent" xMin="59" yMin="-242" xMax="348" yMax="700">
      <component glyphName=".ttfautohint" x="59" y="0" flags="0x0"/>
      <component glyphName="R" x="0" y="0" flags="0x1000"/>
      <component glyphName="commaaccentcomb" x="62" y="0" flags="0x1000"/>
    </TTGlyph>
    <TTGlyph name="S" xMin="36" yMin="-10" xMax="341" yMax="710">
      <contour>
        <pt x="73" y="476" on="0"/>
        <pt x="39" y="541" on="0"/>
        <pt x="39" y="578" on="1"/>
        <pt x="39" y="637" on="0"/>
        <pt x="127" y="710" on="0"/>
        <pt x="204" y="710" on="1"/>
        <pt x="265" y="710" on="0"/>
        <pt x="329" y="684" on="0"/>
        <pt x="329" y="668" on="1"/>
        <pt x="329" y="653" on="0"/>
        <pt x="316" y="640" on="1"/>
        <pt x="302" y="651" on="0"/>
        <pt x="243" y="669" on="0"/>
        <pt x="205" y="669" on="1"/>
        <pt x="151" y="669" on="0"/>
        <pt x="86" y="620" on="0"/>
        <pt x="86" y="579" on="1"/>
        <pt x="86" y="549" on="0"/>
        <pt x="115" y="499" on="0"/>
        <pt x="144" y="468" on="1"/>
        <pt x="267" y="345" on="1"/>
        <pt x="309" y="300" on="0"/>
        <pt x="341" y="222" on="0"/>
        <pt x="341" y="170" on="1"/>
        <pt x="341" y="88" on="0"/>
        <pt x="256" y="-10" on="0"/>
        <pt x="168" y="-10" on="1"/>
        <pt x="125" y="-10" on="0"/>
        <pt x="65" y="7" on="0"/>
        <pt x="36" y="30" on="0"/>
        <pt x="36" y="41" on="1"/>
        <pt x="36" y="60" on="0"/>
        <pt x="51" y="72" on="1"/>
        <pt x="92" y="35" on="0"/>
        <pt x="166" y="35" on="1"/>
        <pt x="231" y="35" on="0"/>
        <pt x="294" y="105" on="0"/>
        <pt x="294" y="166" on="1"/>
        <pt x="294" y="211" on="0"/>
        <pt x="262" y="282" on="0"/>
        <pt x="220" y="325" on="1"/>
        <pt x="109" y="437" on="1"/>
      </contour>
    </TTGlyph>
    <TTGlyph name="Sacute" xMin="36" yMin="-10" xMax="341" yMax="916">
      <component glyphName=".ttfautohint" x="36" y="0" flags="0x0"/>
      <component glyphName="S" x="0" y="0" flags="0x1000"/>
      <component glyphName="acute" x="61" y="200" flags="0x1000"/>
    </TTGlyph>
    <TTGlyph name="Scaron" xMin="36" yMin="-10" xMax="341" yMax="920">
      <component glyphName=".ttfautohint" x="36" y="0" flags="0x0"/>
      <component glyphName="S" x="0" y="0" flags="0x1000"/>
      <component glyphName="caron" x="59" y="200" flags="0x1000"/>
    </TTGlyph>
    <TTGlyph name="Scedilla" xMin="36" yMin="-188" xMax="341" yMax="710">
      <contour>
        <pt x="309" y="300" on="0"/>
        <pt x="341" y="222" on="0"/>
        <pt x="341" y="170" on="1"/>
        <pt x="341" y="96" on="0"/>
        <pt x="272" y="1" on="0"/>
        <pt x="199" y="-8" on="1"/>
        <pt x="188" y="-60" on="1"/>
        <pt x="189" y="-60" on="0"/>
        <pt x="197" y="-59" on="0"/>
        <pt x="206" y="-59" on="1"/>
        <pt x="226" y="-59" on="0"/>
        <pt x="254" y="-86" on="0"/>
        <pt x="254" y="-114" on="1"/>
        <pt x="254" y="-152" on="0"/>
        <pt x="214" y="-188" on="0"/>
        <pt x="186" y="-188" on="1"/>
        <pt x="169" y="-188" on="0"/>
        <pt x="138" y="-181" on="0"/>
        <pt x="134" y="-179" on="1"/>
        <pt x="134" y="-175" on="0"/>
        <pt x="139" y="-154" on="0"/>
        <pt x="143" y="-150" on="1"/>
        <pt x="145" y="-147" on="0"/>
        <pt x="155" y="-149" on="0"/>
        <pt x="177" y="-157" on="0"/>
        <pt x="186" y="-157" on="1"/>
        <pt x="222" y="-157" on="0"/>
        <pt x="222" y="-121" on="1"/>
        <pt x="222" y="-86" on="0"/>
        <pt x="187" y="-86" on="1"/>
        <pt x="175" y="-86" on="0"/>
        <pt x="153" y="-90" on="0"/>
        <pt x="150" y="-91" on="1"/>
        <pt x="166" y="-10" on="1"/>
        <pt x="124" y="-10" on="0"/>
        <pt x="65" y="7" on="0"/>
        <pt x="36" y="30" on="0"/>
        <pt x="36" y="41" on="1"/>
        <pt x="36" y="60" on="0"/>
        <pt x="51" y="72" on="1"/>
        <pt x="92" y="35" on="0"/>
        <pt x="166" y="35" on="1"/>
        <pt x="231" y="35" on="0"/>
        <pt x="294" y="105" on="0"/>
        <pt x="294" y="166" on="1"/>
        <pt x="294" y="211" on="0"/>
        <pt x="262" y="282" on="0"/>
        <pt x="220" y="325" on="1"/>
        <pt x="109" y="437" on="1"/>
        <pt x="73" y="476" on="0"/>
        <pt x="39" y="541" on="0"/>
        <pt x="39" y="578" on="1"/>
        <pt x="39" y="637" on="0"/>
        <pt x="127" y="710" on="0"/>
        <pt x="204" y="710" on="1"/>
        <pt x="265" y="710" on="0"/>
        <pt x="329" y="684" on="0"/>
        <pt x="329" y="668" on="1"/>
        <pt x="329" y="653" on="0"/>
        <pt x="316" y="640" on="1"/>
        <pt x="302" y="651" on="0"/>
        <pt x="243" y="669" on="0"/>
        <pt x="205" y="669" on="1"/>
        <pt x="151" y="669" on="0"/>
        <pt x="86" y="620" on="0"/>
        <pt x="86" y="579" on="1"/>
        <pt x="86" y="549" on="0"/>
        <pt x="115" y="499" on="0"/>
        <pt x="144" y="468" on="1"/>
        <pt x="267" y="345" on="1"/>
      </contour>
    </TTGlyph>
    <TTGlyph name="Scommaaccent" xMin="36" yMin="-242" xMax="341" yMax="710">
      <component glyphName=".ttfautohint" x="36" y="0" flags="0x0"/>
      <component glyphName="S" x="0" y="0" flags="0x1000"/>
      <component glyphName="commaaccentcomb" x="57" y="0" flags="0x1000"/>
    </TTGlyph>
    <TTGlyph name="T" xMin="6" yMin="0" xMax="359" yMax="700">
      <contour>
        <pt x="359" y="669" on="1"/>
        <pt x="359" y="657" on="0"/>
        <pt x="346" y="657" on="1"/>
        <pt x="203" y="657" on="1"/>
        <pt x="203" y="12" on="1"/>
        <pt x="203" y="5" on="0"/>
        <pt x="199" y="1" on="0"/>
        <pt x="177" y="0" on="0"/>
        <pt x="158" y="0" on="1"/>
        <pt x="158" y="657" on="1"/>
        <pt x="6" y="657" on="1"/>
        <pt x="6" y="688" on="1"/>
        <pt x="6" y="700" on="0"/>
        <pt x="19" y="700" on="1"/>
        <pt x="359" y="700" on="1"/>
      </contour>
    </TTGlyph>
    <TTGlyph name="Tcaron" xMin="6" yMin="0" xMax="359" yMax="920">
      <component glyphName=".ttfautohint" x="6" y="0" flags="0x0"/>
      <component glyphName="T" x="0" y="0" flags="0x1000"/>
      <component glyphName="caron" x="54" y="200" flags="0x1000"/>
    </TTGlyph>
    <TTGlyph name="Tcedilla" xMin="6" yMin="-188" xMax="359" yMax="700">
      <contour>
        <pt x="359" y="669" on="1"/>
        <pt x="359" y="657" on="0"/>
        <pt x="346" y="657" on="1"/>
        <pt x="203" y="657" on="1"/>
        <pt x="203" y="12" on="1"/>
        <pt x="203" y="6" on="0"/>
        <pt x="200" y="2" on="0"/>
        <pt x="194" y="1" on="1"/>
        <pt x="182" y="-60" on="1"/>
        <pt x="183" y="-60" on="0"/>
        <pt x="191" y="-59" on="0"/>
        <pt x="200" y="-59" on="1"/>
        <pt x="220" y="-59" on="0"/>
        <pt x="248" y="-86" on="0"/>
        <pt x="248" y="-114" on="1"/>
        <pt x="248" y="-152" on="0"/>
        <pt x="208" y="-188" on="0"/>
        <pt x="179" y="-188" on="1"/>
        <pt x="161" y="-188" on="0"/>
        <pt x="132" y="-181" on="0"/>
        <pt x="128" y="-179" on="1"/>
        <pt x="128" y="-175" on="0"/>
        <pt x="133" y="-154" on="0"/>
        <pt x="137" y="-150" on="1"/>
        <pt x="139" y="-147" on="0"/>
        <pt x="149" y="-149" on="0"/>
        <pt x="171" y="-157" on="0"/>
        <pt x="180" y="-157" on="1"/>
        <pt x="215" y="-157" on="0"/>
        <pt x="215" y="-121" on="1"/>
        <pt x="215" y="-86" on="0"/>
        <pt x="181" y="-86" on="1"/>
        <pt x="168" y="-86" on="0"/>
        <pt x="147" y="-90" on="0"/>
        <pt x="144" y="-91" on="1"/>
        <pt x="162" y="0" on="1"/>
        <pt x="158" y="0" on="1"/>
        <pt x="158" y="657" on="1"/>
        <pt x="6" y="657" on="1"/>
        <pt x="6" y="688" on="1"/>
        <pt x="6" y="700" on="0"/>
        <pt x="19" y="700" on="1"/>
        <pt x="359" y="700" on="1"/>
      </contour>
    </TTGlyph>
    <TTGlyph name="Thorn" xMin="59" yMin="0" xMax="348" yMax="700">
      <contour>
        <pt x="348" y="562" on="0"/>
        <pt x="348" y="374" on="1"/>
        <pt x="348" y="268" on="0"/>
        <pt x="255" y="162" on="0"/>
        <pt x="172" y="162" on="1"/>
        <pt x="104" y="162" on="1"/>
        <pt x="104" y="12" on="1"/>
        <pt x="104" y="6" on="0"/>
        <pt x="99" y="1" on="0"/>
        <pt x="77" y="0" on="0"/>
        <pt x="59" y="0" on="1"/>
        <pt x="59" y="688" on="1"/>
        <pt x="59" y="696" on="0"/>
        <pt x="72" y="700" on="0"/>
        <pt x="90" y="700" on="1"/>
        <pt x="104" y="700" on="1"/>
        <pt x="104" y="562" on="1"/>
        <pt x="177" y="562" on="1"/>
      </contour>
      <contour>
        <pt x="174" y="205" on="1"/>
        <pt x="300" y="205" on="0"/>
        <pt x="300" y="377" on="1"/>
        <pt x="300" y="520" on="0"/>
        <pt x="179" y="520" on="1"/>
        <pt x="104" y="520" on="1"/>
        <pt x="104" y="206" on="1"/>
      </contour>
    </TTGlyph>
    <TTGlyph name="U" xMin="59" yMin="-10" xMax="408" yMax="700">
      <contour>
        <pt x="105" y="159" on="0"/>
        <pt x="123" y="81" on="0"/>
        <pt x="182" y="33" on="0"/>
        <pt x="240" y="33" on="1"/>
        <pt x="275" y="33" on="0"/>
        <pt x="345" y="47" on="0"/>
        <pt x="363" y="56" on="1"/>
        <pt x="363" y="688" on="1"/>
        <pt x="363" y="694" on="0"/>
        <pt x="368" y="699" on="0"/>
        <pt x="390" y="700" on="0"/>
        <pt x="408" y="700" on="1"/>
        <pt x="408" y="24" on="1"/>
        <pt x="386" y="10" on="0"/>
        <pt x="292" y="-10" on="0"/>
        <pt x="240" y="-10" on="1"/>
        <pt x="163" y="-10" on="0"/>
        <pt x="83" y="50" on="0"/>
        <pt x="59" y="147" on="0"/>
        <pt x="59" y="219" on="1"/>
        <pt x="59" y="687" on="1"/>
        <pt x="59" y="694" on="0"/>
        <pt x="63" y="699" on="0"/>
        <pt x="86" y="700" on="0"/>
        <pt x="105" y="700" on="1"/>
        <pt x="105" y="218" on="1"/>
      </contour>
    </TTGlyph>
    <TTGlyph name="Uacute" xMin="59" yMin="-10" xMax="408" yMax="916">
      <component glyphName=".ttfautohint" x="59" y="0" flags="0x0"/>
      <component glyphName="U" x="0" y="0" flags="0x1000"/>
      <component glyphName="acute" x="107" y="200" flags="0x1000"/>
    </TTGlyph>
    <TTGlyph name="Ucircumflex" xMin="59" yMin="-10" xMax="408" yMax="903">
      <component glyphName=".ttfautohint" x="59" y="0" flags="0x0"/>
      <component glyphName="U" x="0" y="0" flags="0x1000"/>
      <component glyphName="circumflex" x="105" y="200" flags="0x1000"/>
    </TTGlyph>
    <TTGlyph name="Udieresis" xMin="59" yMin="-10" xMax="408" yMax="877">
      <component glyphName=".ttfautohint" x="59" y="0" flags="0x0"/>
      <component glyphName="U" x="0" y="0" flags="0x1000"/>
      <component glyphName="dieresis" x="105" y="200" flags="0x1000"/>
    </TTGlyph>
    <TTGlyph name="Ugrave" xMin="59" yMin="-10" xMax="408" yMax="913">
      <component glyphName=".ttfautohint" x="59" y="0" flags="0x0"/>
      <component glyphName="U" x="0" y="0" flags="0x1000"/>
      <component glyphName="grave" x="107" y="200" flags="0x1000"/>
    </TTGlyph>
    <TTGlyph name="Uhungarumlaut" xMin="59" yMin="-10" xMax="408" yMax="920">
      <component glyphName=".ttfautohint" x="59" y="0" flags="0x0"/>
      <component glyphName="U" x="0" y="0" flags="0x1000"/>
      <component glyphName="hungarumlaut" x="127" y="200" flags="0x1000"/>
    </TTGlyph>
    <TTGlyph name="Umacron" xMin="59" yMin="-10" xMax="408" yMax="854">
      <component glyphName=".ttfautohint" x="59" y="0" flags="0x0"/>
      <component glyphName="U" x="0" y="0" flags="0x1000"/>
      <component glyphName="macron" x="105" y="200" flags="0x1000"/>
    </TTGlyph>
    <TTGlyph name="Uogonek" xMin="59" yMin="-195" xMax="408" yMax="700">
      <contour>
        <pt x="375" y="2" on="0"/>
        <pt x="323" y="-79" on="0"/>
        <pt x="323" y="-111" on="1"/>
        <pt x="323" y="-159" on="0"/>
        <pt x="364" y="-159" on="1"/>
        <pt x="380" y="-159" on="0"/>
        <pt x="396" y="-150" on="1"/>
        <pt x="404" y="-164" on="0"/>
        <pt x="404" y="-172" on="1"/>
        <pt x="404" y="-195" on="0"/>
        <pt x="355" y="-195" on="1"/>
        <pt x="281" y="-195" on="0"/>
        <pt x="281" y="-115" on="1"/>
        <pt x="281" y="-89" on="0"/>
        <pt x="312" y="-25" on="0"/>
        <pt x="334" y="0" on="1"/>
        <pt x="289" y="-10" on="0"/>
        <pt x="240" y="-10" on="1"/>
        <pt x="163" y="-10" on="0"/>
        <pt x="83" y="50" on="0"/>
        <pt x="59" y="147" on="0"/>
        <pt x="59" y="219" on="1"/>
        <pt x="59" y="687" on="1"/>
        <pt x="59" y="694" on="0"/>
        <pt x="63" y="699" on="0"/>
        <pt x="86" y="700" on="0"/>
        <pt x="105" y="700" on="1"/>
        <pt x="105" y="218" on="1"/>
        <pt x="105" y="159" on="0"/>
        <pt x="123" y="81" on="0"/>
        <pt x="182" y="33" on="0"/>
        <pt x="240" y="33" on="1"/>
        <pt x="274" y="33" on="0"/>
        <pt x="345" y="47" on="0"/>
        <pt x="363" y="55" on="1"/>
        <pt x="363" y="688" on="1"/>
        <pt x="363" y="694" on="0"/>
        <pt x="368" y="699" on="0"/>
        <pt x="390" y="700" on="0"/>
        <pt x="408" y="700" on="1"/>
        <pt x="408" y="24" on="1"/>
      </contour>
    </TTGlyph>
    <TTGlyph name="Uring" xMin="59" yMin="-10" xMax="408" yMax="935">
      <component glyphName=".ttfautohint" x="59" y="0" flags="0x0"/>
      <component glyphName="U" x="0" y="0" flags="0x1000"/>
      <component glyphName="ring" x="105" y="200" flags="0x1000"/>
    </TTGlyph>
    <TTGlyph name="V" xMin="5" yMin="-9" xMax="417" yMax="700">
      <contour>
        <pt x="222" y="-9" on="0"/>
        <pt x="205" y="-9" on="1"/>
        <pt x="189" y="-9" on="0"/>
        <pt x="174" y="49" on="1"/>
        <pt x="129" y="219" on="0"/>
        <pt x="27" y="607" on="0"/>
        <pt x="7" y="682" on="1"/>
        <pt x="5" y="692" on="0"/>
        <pt x="5" y="693" on="1"/>
        <pt x="5" y="700" on="0"/>
        <pt x="16" y="700" on="1"/>
        <pt x="50" y="700" on="1"/>
        <pt x="172" y="242" on="1"/>
        <pt x="188" y="181" on="0"/>
        <pt x="215" y="42" on="1"/>
        <pt x="238" y="168" on="0"/>
        <pt x="255" y="242" on="1"/>
        <pt x="366" y="682" on="1"/>
        <pt x="369" y="700" on="0"/>
        <pt x="380" y="700" on="1"/>
        <pt x="417" y="700" on="1"/>
        <pt x="238" y="-7" on="1"/>
      </contour>
    </TTGlyph>
    <TTGlyph name="W" xMin="5" yMin="-10" xMax="635" yMax="700">
      <contour>
        <pt x="490" y="-7" on="1"/>
        <pt x="457" y="-10" on="0"/>
        <pt x="457" y="-10" on="1"/>
        <pt x="442" y="-10" on="0"/>
        <pt x="432" y="39" on="1"/>
        <pt x="347" y="401" on="1"/>
        <pt x="318" y="579" on="1"/>
        <pt x="291" y="403" on="1"/>
        <pt x="204" y="-7" on="1"/>
        <pt x="186" y="-9" on="0"/>
        <pt x="168" y="-9" on="1"/>
        <pt x="154" y="-9" on="0"/>
        <pt x="143" y="52" on="1"/>
        <pt x="6" y="682" on="1"/>
        <pt x="5" y="691" on="1"/>
        <pt x="5" y="700" on="0"/>
        <pt x="15" y="700" on="1"/>
        <pt x="50" y="700" on="1"/>
        <pt x="150" y="241" on="1"/>
        <pt x="155" y="218" on="0"/>
        <pt x="177" y="86" on="1"/>
        <pt x="179" y="68" on="0"/>
        <pt x="181" y="58" on="1"/>
        <pt x="184" y="58" on="1"/>
        <pt x="192" y="145" on="0"/>
        <pt x="212" y="241" on="1"/>
        <pt x="294" y="645" on="1"/>
        <pt x="297" y="655" on="0"/>
        <pt x="301" y="662" on="0"/>
        <pt x="308" y="662" on="1"/>
        <pt x="310" y="662" on="1"/>
        <pt x="341" y="662" on="1"/>
        <pt x="434" y="241" on="1"/>
        <pt x="445" y="193" on="0"/>
        <pt x="458" y="106" on="1"/>
        <pt x="463" y="70" on="0"/>
        <pt x="465" y="60" on="1"/>
        <pt x="468" y="60" on="1"/>
        <pt x="473" y="93" on="1"/>
        <pt x="489" y="209" on="0"/>
        <pt x="495" y="241" on="1"/>
        <pt x="585" y="682" on="1"/>
        <pt x="588" y="700" on="0"/>
        <pt x="599" y="700" on="1"/>
        <pt x="635" y="700" on="1"/>
      </contour>
    </TTGlyph>
    <TTGlyph name="Wacute" xMin="5" yMin="-10" xMax="635" yMax="916">
      <component glyphName=".ttfautohint" x="5" y="0" flags="0x0"/>
      <component glyphName="W" x="0" y="0" flags="0x1000"/>
      <component glyphName="acute" x="193" y="200" flags="0x1000"/>
    </TTGlyph>
    <TTGlyph name="Wcircumflex" xMin="5" yMin="-10" xMax="635" yMax="903">
      <component glyphName=".ttfautohint" x="5" y="0" flags="0x0"/>
      <component glyphName="W" x="0" y="0" flags="0x1000"/>
      <component glyphName="circumflex" x="191" y="200" flags="0x1000"/>
    </TTGlyph>
    <TTGlyph name="Wdieresis" xMin="5" yMin="-10" xMax="635" yMax="877">
      <component glyphName=".ttfautohint" x="5" y="0" flags="0x0"/>
      <component glyphName="W" x="0" y="0" flags="0x1000"/>
      <component glyphName="dieresis" x="191" y="200" flags="0x1000"/>
    </TTGlyph>
    <TTGlyph name="Wgrave" xMin="5" yMin="-10" xMax="635" yMax="913">
      <component glyphName=".ttfautohint" x="5" y="0" flags="0x0"/>
      <component glyphName="W" x="0" y="0" flags="0x1000"/>
      <component glyphName="grave" x="193" y="200" flags="0x1000"/>
    </TTGlyph>
    <TTGlyph name="X" xMin="11" yMin="0" xMax="416" yMax="700">
      <contour>
        <pt x="416" y="6" on="1"/>
        <pt x="416" y="0" on="0"/>
        <pt x="408" y="0" on="1"/>
        <pt x="362" y="0" on="1"/>
        <pt x="289" y="156" on="1"/>
        <pt x="229" y="286" on="0"/>
        <pt x="213" y="326" on="1"/>
        <pt x="156" y="198" on="0"/>
        <pt x="136" y="157" on="1"/>
        <pt x="63" y="6" on="1"/>
        <pt x="59" y="0" on="0"/>
        <pt x="51" y="0" on="1"/>
        <pt x="11" y="0" on="1"/>
        <pt x="185" y="365" on="1"/>
        <pt x="38" y="692" on="1"/>
        <pt x="36" y="696" on="0"/>
        <pt x="39" y="699" on="0"/>
        <pt x="66" y="700" on="0"/>
        <pt x="89" y="700" on="1"/>
        <pt x="144" y="577" on="1"/>
        <pt x="186" y="483" on="0"/>
        <pt x="218" y="401" on="1"/>
        <pt x="260" y="502" on="0"/>
        <pt x="293" y="577" on="1"/>
        <pt x="345" y="692" on="1"/>
        <pt x="347" y="697" on="0"/>
        <pt x="352" y="699" on="0"/>
        <pt x="376" y="700" on="0"/>
        <pt x="397" y="700" on="1"/>
        <pt x="246" y="363" on="1"/>
        <pt x="414" y="11" on="1"/>
      </contour>
    </TTGlyph>
    <TTGlyph name="Y" xMin="6" yMin="0" xMax="355" yMax="700">
      <contour>
        <pt x="204" y="5" on="0"/>
        <pt x="200" y="1" on="0"/>
        <pt x="178" y="0" on="0"/>
        <pt x="159" y="0" on="1"/>
        <pt x="159" y="285" on="1"/>
        <pt x="6" y="692" on="1"/>
        <pt x="4" y="696" on="0"/>
        <pt x="9" y="699" on="0"/>
        <pt x="34" y="700" on="0"/>
        <pt x="56" y="700" on="1"/>
        <pt x="108" y="555" on="1"/>
        <pt x="129" y="499" on="0"/>
        <pt x="182" y="336" on="0"/>
        <pt x="183" y="327" on="1"/>
        <pt x="184" y="334" on="0"/>
        <pt x="233" y="486" on="0"/>
        <pt x="257" y="555" on="1"/>
        <pt x="305" y="691" on="1"/>
        <pt x="307" y="696" on="0"/>
        <pt x="312" y="699" on="0"/>
        <pt x="336" y="700" on="0"/>
        <pt x="355" y="700" on="1"/>
        <pt x="204" y="286" on="1"/>
        <pt x="204" y="12" on="1"/>
      </contour>
    </TTGlyph>
    <TTGlyph name="Yacute" xMin="6" yMin="0" xMax="355" yMax="916">
      <component glyphName=".ttfautohint" x="6" y="0" flags="0x0"/>
      <component glyphName="Y" x="0" y="0" flags="0x1000"/>
      <component glyphName="acute" x="54" y="200" flags="0x1000"/>
    </TTGlyph>
    <TTGlyph name="Ycircumflex" xMin="6" yMin="0" xMax="355" yMax="903">
      <component glyphName=".ttfautohint" x="6" y="0" flags="0x0"/>
      <component glyphName="Y" x="0" y="0" flags="0x1000"/>
      <component glyphName="circumflex" x="52" y="200" flags="0x1000"/>
    </TTGlyph>
    <TTGlyph name="Ydieresis" xMin="6" yMin="0" xMax="355" yMax="877">
      <component glyphName=".ttfautohint" x="6" y="0" flags="0x0"/>
      <component glyphName="Y" x="0" y="0" flags="0x1000"/>
      <component glyphName="dieresis" x="52" y="200" flags="0x1000"/>
    </TTGlyph>
    <TTGlyph name="Ygrave" xMin="6" yMin="0" xMax="355" yMax="913">
      <component glyphName=".ttfautohint" x="6" y="0" flags="0x0"/>
      <component glyphName="Y" x="0" y="0" flags="0x1000"/>
      <component glyphName="grave" x="54" y="200" flags="0x1000"/>
    </TTGlyph>
    <TTGlyph name="Z" xMin="27" yMin="0" xMax="365" yMax="700">
      <contour>
        <pt x="49" y="700" on="0"/>
        <pt x="62" y="700" on="1"/>
        <pt x="360" y="700" on="1"/>
        <pt x="365" y="692" on="0"/>
        <pt x="365" y="683" on="1"/>
        <pt x="365" y="675" on="0"/>
        <pt x="360" y="660" on="1"/>
        <pt x="78" y="42" on="1"/>
        <pt x="315" y="42" on="1"/>
        <pt x="353" y="42" on="0"/>
        <pt x="365" y="46" on="1"/>
        <pt x="365" y="12" on="1"/>
        <pt x="365" y="0" on="0"/>
        <pt x="353" y="0" on="1"/>
        <pt x="36" y="0" on="1"/>
        <pt x="27" y="5" on="0"/>
        <pt x="27" y="19" on="1"/>
        <pt x="27" y="29" on="0"/>
        <pt x="32" y="42" on="1"/>
        <pt x="311" y="658" on="1"/>
        <pt x="90" y="658" on="1"/>
        <pt x="53" y="658" on="0"/>
        <pt x="49" y="657" on="1"/>
        <pt x="49" y="687" on="1"/>
      </contour>
    </TTGlyph>
    <TTGlyph name="Zacute" xMin="27" yMin="0" xMax="365" yMax="916">
      <component glyphName=".ttfautohint" x="27" y="0" flags="0x0"/>
      <component glyphName="Z" x="0" y="0" flags="0x1000"/>
      <component glyphName="acute" x="72" y="200" flags="0x1000"/>
    </TTGlyph>
    <TTGlyph name="Zcaron" xMin="27" yMin="0" xMax="365" yMax="920">
      <component glyphName=".ttfautohint" x="27" y="0" flags="0x0"/>
      <component glyphName="Z" x="0" y="0" flags="0x1000"/>
      <component glyphName="caron" x="69" y="200" flags="0x1000"/>
    </TTGlyph>
    <TTGlyph name="Zdotaccent" xMin="27" yMin="0" xMax="365" yMax="878">
      <component glyphName=".ttfautohint" x="27" y="0" flags="0x0"/>
      <component glyphName="Z" x="0" y="0" flags="0x1000"/>
      <component glyphName="dotaccent" x="69" y="200" flags="0x1000"/>
    </TTGlyph>
    <TTGlyph name="a" xMin="39" yMin="-10" xMax="323" yMax="510">
      <contour>
        <pt x="323" y="144" on="0"/>
        <pt x="317" y="27" on="1"/>
        <pt x="260" y="-10" on="0"/>
        <pt x="183" y="-10" on="1"/>
        <pt x="117" y="-12" on="0"/>
        <pt x="39" y="46" on="0"/>
        <pt x="39" y="138" on="1"/>
        <pt x="39" y="234" on="0"/>
        <pt x="123" y="300" on="0"/>
        <pt x="194" y="300" on="1"/>
        <pt x="248" y="300" on="0"/>
        <pt x="278" y="289" on="1"/>
        <pt x="278" y="380" on="1"/>
        <pt x="278" y="430" on="0"/>
        <pt x="235" y="466" on="0"/>
        <pt x="193" y="466" on="1"/>
        <pt x="99" y="466" on="0"/>
        <pt x="45" y="441" on="1"/>
        <pt x="39" y="453" on="0"/>
        <pt x="39" y="467" on="1"/>
        <pt x="39" y="481" on="0"/>
        <pt x="46" y="485" on="1"/>
        <pt x="63" y="495" on="0"/>
        <pt x="152" y="510" on="0"/>
        <pt x="203" y="510" on="1"/>
        <pt x="264" y="510" on="0"/>
        <pt x="323" y="455" on="0"/>
        <pt x="323" y="389" on="1"/>
        <pt x="323" y="327" on="1"/>
      </contour>
      <contour>
        <pt x="249" y="264" on="0"/>
        <pt x="207" y="264" on="1"/>
        <pt x="169" y="264" on="0"/>
        <pt x="118" y="247" on="0"/>
        <pt x="85" y="193" on="0"/>
        <pt x="85" y="139" on="1"/>
        <pt x="85" y="91" on="0"/>
        <pt x="113" y="43" on="0"/>
        <pt x="157" y="30" on="0"/>
        <pt x="191" y="30" on="1"/>
        <pt x="216" y="30" on="0"/>
        <pt x="263" y="46" on="0"/>
        <pt x="273" y="55" on="1"/>
        <pt x="278" y="111" on="0"/>
        <pt x="278" y="254" on="1"/>
      </contour>
    </TTGlyph>
    <TTGlyph name="aacute" xMin="39" yMin="-10" xMax="323" yMax="716">
      <component glyphName=".ttfautohint" x="39" y="0" flags="0x0"/>
      <component glyphName="a" x="0" y="0" flags="0x1000"/>
      <component glyphName="acute" x="55" y="0" flags="0x1000"/>
    </TTGlyph>
    <TTGlyph name="abreve" xMin="39" yMin="-10" xMax="323" yMax="709">
      <component glyphName=".ttfautohint" x="39" y="0" flags="0x0"/>
      <component glyphName="a" x="0" y="0" flags="0x1000"/>
      <component glyphName="breve" x="52" y="0" flags="0x1000"/>
    </TTGlyph>
    <TTGlyph name="acircumflex" xMin="39" yMin="-10" xMax="323" yMax="703">
      <component glyphName=".ttfautohint" x="39" y="0" flags="0x0"/>
      <component glyphName="a" x="0" y="0" flags="0x1000"/>
      <component glyphName="circumflex" x="53" y="0" flags="0x1000"/>
    </TTGlyph>
    <TTGlyph name="acute" xMin="49" yMin="572" xMax="208" yMax="716">
      <contour>
        <pt x="63" y="572" on="0"/>
        <pt x="51" y="595" on="0"/>
        <pt x="49" y="599" on="1"/>
        <pt x="87" y="637" on="0"/>
        <pt x="183" y="716" on="0"/>
        <pt x="186" y="716" on="1"/>
        <pt x="194" y="716" on="0"/>
        <pt x="207" y="689" on="0"/>
        <pt x="208" y="679" on="1"/>
        <pt x="202" y="672" on="0"/>
        <pt x="107" y="599" on="0"/>
        <pt x="67" y="572" on="1"/>
      </contour>
    </TTGlyph>
    <TTGlyph name="adieresis" xMin="39" yMin="-10" xMax="323" yMax="677">
      <component glyphName=".ttfautohint" x="39" y="0" flags="0x0"/>
      <component glyphName="a" x="0" y="0" flags="0x1000"/>
      <component glyphName="dieresis" x="53" y="0" flags="0x1000"/>
    </TTGlyph>
    <TTGlyph name="ae" xMin="39" yMin="-9" xMax="586" yMax="510">
      <contour>
        <pt x="267" y="-9" on="0"/>
        <pt x="172" y="-9" on="1"/>
        <pt x="132" y="-9" on="0"/>
        <pt x="75" y="12" on="0"/>
        <pt x="39" y="77" on="0"/>
        <pt x="39" y="140" on="1"/>
        <pt x="39" y="237" on="0"/>
        <pt x="123" y="305" on="0"/>
        <pt x="193" y="305" on="1"/>
        <pt x="248" y="305" on="0"/>
        <pt x="278" y="294" on="1"/>
        <pt x="278" y="382" on="1"/>
        <pt x="278" y="432" on="0"/>
        <pt x="232" y="468" on="0"/>
        <pt x="187" y="468" on="1"/>
        <pt x="99" y="468" on="0"/>
        <pt x="48" y="439" on="1"/>
        <pt x="43" y="450" on="0"/>
        <pt x="43" y="466" on="1"/>
        <pt x="43" y="479" on="0"/>
        <pt x="52" y="484" on="1"/>
        <pt x="95" y="510" on="0"/>
        <pt x="203" y="510" on="1"/>
        <pt x="254" y="510" on="0"/>
        <pt x="309" y="470" on="0"/>
        <pt x="316" y="423" on="1"/>
        <pt x="339" y="475" on="0"/>
        <pt x="411" y="510" on="0"/>
        <pt x="460" y="510" on="1"/>
        <pt x="586" y="510" on="0"/>
        <pt x="586" y="356" on="1"/>
        <pt x="586" y="279" on="0"/>
        <pt x="578" y="236" on="1"/>
        <pt x="536" y="229" on="0"/>
        <pt x="487" y="229" on="1"/>
        <pt x="409" y="229" on="0"/>
        <pt x="327" y="246" on="1"/>
        <pt x="327" y="221" on="1"/>
        <pt x="327" y="140" on="0"/>
        <pt x="357" y="60" on="0"/>
        <pt x="408" y="36" on="0"/>
        <pt x="450" y="36" on="1"/>
        <pt x="527" y="36" on="0"/>
        <pt x="576" y="70" on="1"/>
        <pt x="581" y="58" on="0"/>
        <pt x="581" y="29" on="1"/>
        <pt x="581" y="23" on="0"/>
        <pt x="542" y="5" on="0"/>
        <pt x="481" y="-8" on="0"/>
        <pt x="447" y="-8" on="1"/>
        <pt x="400" y="-8" on="0"/>
        <pt x="338" y="14" on="0"/>
        <pt x="319" y="47" on="1"/>
        <pt x="319" y="22" on="1"/>
      </contour>
      <contour>
        <pt x="407" y="469" on="0"/>
        <pt x="338" y="397" on="0"/>
        <pt x="329" y="285" on="1"/>
        <pt x="419" y="267" on="0"/>
        <pt x="481" y="267" on="1"/>
        <pt x="517" y="267" on="0"/>
        <pt x="538" y="272" on="1"/>
        <pt x="542" y="305" on="0"/>
        <pt x="542" y="345" on="1"/>
        <pt x="541" y="410" on="0"/>
        <pt x="505" y="469" on="0"/>
        <pt x="458" y="469" on="1"/>
      </contour>
      <contour>
        <pt x="243" y="269" on="0"/>
        <pt x="207" y="269" on="1"/>
        <pt x="149" y="269" on="0"/>
        <pt x="85" y="217" on="0"/>
        <pt x="85" y="138" on="1"/>
        <pt x="85" y="91" on="0"/>
        <pt x="113" y="43" on="0"/>
        <pt x="156" y="30" on="0"/>
        <pt x="190" y="30" on="1"/>
        <pt x="217" y="30" on="0"/>
        <pt x="269" y="43" on="0"/>
        <pt x="278" y="53" on="1"/>
        <pt x="278" y="259" on="1"/>
      </contour>
    </TTGlyph>
    <TTGlyph name="agrave" xMin="39" yMin="-10" xMax="323" yMax="713">
      <component glyphName=".ttfautohint" x="39" y="0" flags="0x0"/>
      <component glyphName="a" x="0" y="0" flags="0x1000"/>
      <component glyphName="grave" x="55" y="0" flags="0x1000"/>
    </TTGlyph>
    <TTGlyph name="amacron" xMin="39" yMin="-10" xMax="323" yMax="654">
      <component glyphName=".ttfautohint" x="39" y="0" flags="0x0"/>
      <component glyphName="a" x="0" y="0" flags="0x1000"/>
      <component glyphName="macron" x="53" y="0" flags="0x1000"/>
    </TTGlyph>
    <TTGlyph name="ampersand" xMin="39" yMin="-10" xMax="496" yMax="706">
      <contour>
        <pt x="397" y="442" on="0"/>
        <pt x="437" y="347" on="0"/>
        <pt x="437" y="270" on="1"/>
        <pt x="437" y="175" on="0"/>
        <pt x="407" y="107" on="1"/>
        <pt x="463" y="45" on="0"/>
        <pt x="492" y="27" on="1"/>
        <pt x="490" y="16" on="0"/>
        <pt x="472" y="-9" on="0"/>
        <pt x="462" y="-9" on="1"/>
        <pt x="449" y="-9" on="0"/>
        <pt x="382" y="64" on="1"/>
        <pt x="327" y="-10" on="0"/>
        <pt x="222" y="-10" on="1"/>
        <pt x="39" y="-10" on="0"/>
        <pt x="39" y="172" on="1"/>
        <pt x="39" y="231" on="0"/>
        <pt x="107" y="330" on="0"/>
        <pt x="156" y="357" on="1"/>
        <pt x="73" y="495" on="0"/>
        <pt x="73" y="568" on="1"/>
        <pt x="73" y="640" on="0"/>
        <pt x="165" y="706" on="0"/>
        <pt x="240" y="706" on="1"/>
        <pt x="280" y="706" on="0"/>
        <pt x="345" y="692" on="0"/>
        <pt x="382" y="672" on="0"/>
        <pt x="382" y="664" on="1"/>
        <pt x="382" y="647" on="0"/>
        <pt x="372" y="632" on="1"/>
        <pt x="319" y="666" on="0"/>
        <pt x="243" y="666" on="1"/>
        <pt x="187" y="666" on="0"/>
        <pt x="119" y="622" on="0"/>
        <pt x="119" y="563" on="1"/>
        <pt x="119" y="500" on="0"/>
        <pt x="274" y="259" on="0"/>
        <pt x="373" y="145" on="1"/>
        <pt x="394" y="200" on="0"/>
        <pt x="394" y="276" on="1"/>
        <pt x="394" y="353" on="0"/>
        <pt x="341" y="469" on="0"/>
        <pt x="300" y="497" on="1"/>
        <pt x="349" y="503" on="0"/>
        <pt x="403" y="503" on="1"/>
        <pt x="468" y="503" on="0"/>
        <pt x="495" y="501" on="1"/>
        <pt x="496" y="497" on="0"/>
        <pt x="496" y="481" on="1"/>
        <pt x="496" y="471" on="0"/>
        <pt x="480" y="463" on="0"/>
        <pt x="456" y="463" on="1"/>
        <pt x="374" y="464" on="1"/>
      </contour>
      <contour>
        <pt x="305" y="33" on="0"/>
        <pt x="350" y="99" on="1"/>
        <pt x="253" y="208" on="0"/>
        <pt x="178" y="323" on="1"/>
        <pt x="138" y="301" on="0"/>
        <pt x="86" y="222" on="0"/>
        <pt x="86" y="169" on="1"/>
        <pt x="86" y="113" on="0"/>
        <pt x="145" y="33" on="0"/>
        <pt x="219" y="33" on="1"/>
      </contour>
    </TTGlyph>
    <TTGlyph name="ampersand.ss03" xMin="48" yMin="-61" xMax="420" yMax="769">
      <contour>
        <pt x="189" y="350" on="0"/>
        <pt x="96" y="273" on="0"/>
        <pt x="96" y="215" on="1"/>
        <pt x="96" y="166" on="0"/>
        <pt x="167" y="100" on="0"/>
        <pt x="236" y="100" on="1"/>
        <pt x="347" y="100" on="0"/>
        <pt x="401" y="181" on="1"/>
        <pt x="420" y="154" on="0"/>
        <pt x="420" y="145" on="1"/>
        <pt x="420" y="136" on="0"/>
        <pt x="387" y="97" on="0"/>
        <pt x="318" y="61" on="0"/>
        <pt x="266" y="56" on="1"/>
        <pt x="266" y="-41" on="1"/>
        <pt x="266" y="-53" on="0"/>
        <pt x="249" y="-61" on="0"/>
        <pt x="225" y="-61" on="1"/>
        <pt x="225" y="55" on="1"/>
        <pt x="134" y="57" on="0"/>
        <pt x="48" y="141" on="0"/>
        <pt x="48" y="213" on="1"/>
        <pt x="48" y="273" on="0"/>
        <pt x="112" y="351" on="0"/>
        <pt x="163" y="366" on="1"/>
        <pt x="126" y="368" on="0"/>
        <pt x="64" y="428" on="0"/>
        <pt x="64" y="485" on="1"/>
        <pt x="64" y="557" on="0"/>
        <pt x="159" y="643" on="0"/>
        <pt x="235" y="648" on="1"/>
        <pt x="235" y="749" on="1"/>
        <pt x="235" y="761" on="0"/>
        <pt x="253" y="769" on="0"/>
        <pt x="276" y="769" on="1"/>
        <pt x="276" y="647" on="1"/>
        <pt x="320" y="643" on="0"/>
        <pt x="385" y="614" on="0"/>
        <pt x="419" y="579" on="0"/>
        <pt x="419" y="570" on="1"/>
        <pt x="419" y="549" on="0"/>
        <pt x="402" y="532" on="1"/>
        <pt x="354" y="603" on="0"/>
        <pt x="256" y="603" on="1"/>
        <pt x="191" y="603" on="0"/>
        <pt x="111" y="541" on="0"/>
        <pt x="111" y="484" on="1"/>
        <pt x="111" y="395" on="0"/>
        <pt x="223" y="393" on="1"/>
        <pt x="245" y="393" on="0"/>
        <pt x="287" y="398" on="0"/>
        <pt x="290" y="398" on="1"/>
        <pt x="283" y="353" on="1"/>
      </contour>
    </TTGlyph>
    <TTGlyph name="ampersand.ss04" xMin="46" yMin="-8" xMax="628" yMax="689">
      <contour>
        <pt x="440" y="420" on="0"/>
        <pt x="317" y="406" on="0"/>
        <pt x="155" y="393" on="0"/>
        <pt x="93" y="393" on="1"/>
        <pt x="93" y="305" on="0"/>
        <pt x="124" y="221" on="0"/>
        <pt x="174" y="200" on="0"/>
        <pt x="216" y="200" on="1"/>
        <pt x="264" y="200" on="0"/>
        <pt x="319" y="247" on="0"/>
        <pt x="337" y="280" on="1"/>
        <pt x="338" y="279" on="0"/>
        <pt x="344" y="269" on="0"/>
        <pt x="351" y="252" on="0"/>
        <pt x="351" y="244" on="1"/>
        <pt x="351" y="232" on="0"/>
        <pt x="319" y="191" on="0"/>
        <pt x="255" y="159" on="0"/>
        <pt x="210" y="159" on="1"/>
        <pt x="155" y="159" on="0"/>
        <pt x="85" y="195" on="0"/>
        <pt x="46" y="299" on="0"/>
        <pt x="46" y="397" on="1"/>
        <pt x="46" y="547" on="0"/>
        <pt x="131" y="689" on="0"/>
        <pt x="231" y="689" on="1"/>
        <pt x="278" y="689" on="0"/>
        <pt x="345" y="623" on="0"/>
        <pt x="345" y="539" on="1"/>
        <pt x="345" y="522" on="0"/>
        <pt x="336" y="447" on="0"/>
        <pt x="330" y="445" on="1"/>
        <pt x="366" y="448" on="0"/>
        <pt x="445" y="459" on="0"/>
        <pt x="457" y="461" on="1"/>
        <pt x="457" y="574" on="1"/>
        <pt x="457" y="598" on="0"/>
        <pt x="475" y="612" on="0"/>
        <pt x="503" y="612" on="1"/>
        <pt x="503" y="466" on="1"/>
        <pt x="545" y="471" on="0"/>
        <pt x="612" y="482" on="0"/>
        <pt x="621" y="484" on="1"/>
        <pt x="621" y="460" on="0"/>
        <pt x="614" y="442" on="0"/>
        <pt x="602" y="441" on="1"/>
        <pt x="593" y="439" on="0"/>
        <pt x="532" y="429" on="0"/>
        <pt x="503" y="426" on="1"/>
        <pt x="503" y="151" on="1"/>
        <pt x="503" y="102" on="0"/>
        <pt x="511" y="52" on="0"/>
        <pt x="533" y="32" on="0"/>
        <pt x="554" y="32" on="1"/>
        <pt x="583" y="32" on="0"/>
        <pt x="625" y="42" on="0"/>
        <pt x="625" y="43" on="1"/>
        <pt x="626" y="41" on="0"/>
        <pt x="628" y="27" on="0"/>
        <pt x="628" y="17" on="1"/>
        <pt x="628" y="6" on="0"/>
        <pt x="586" y="-8" on="0"/>
        <pt x="545" y="-8" on="1"/>
        <pt x="511" y="-8" on="0"/>
        <pt x="474" y="15" on="0"/>
        <pt x="457" y="83" on="0"/>
        <pt x="457" y="152" on="1"/>
        <pt x="457" y="422" on="1"/>
      </contour>
      <contour>
        <pt x="303" y="596" on="0"/>
        <pt x="264" y="651" on="0"/>
        <pt x="226" y="651" on="1"/>
        <pt x="102" y="651" on="0"/>
        <pt x="94" y="429" on="1"/>
        <pt x="146" y="429" on="0"/>
        <pt x="269" y="441" on="0"/>
        <pt x="287" y="443" on="1"/>
        <pt x="295" y="445" on="0"/>
        <pt x="303" y="510" on="0"/>
        <pt x="303" y="527" on="1"/>
      </contour>
    </TTGlyph>
    <TTGlyph name="aogonek" xMin="39" yMin="-195" xMax="323" yMax="510">
      <contour>
        <pt x="278" y="430" on="0"/>
        <pt x="235" y="466" on="0"/>
        <pt x="193" y="466" on="1"/>
        <pt x="99" y="466" on="0"/>
        <pt x="45" y="441" on="1"/>
        <pt x="39" y="453" on="0"/>
        <pt x="39" y="467" on="1"/>
        <pt x="39" y="481" on="0"/>
        <pt x="46" y="485" on="1"/>
        <pt x="63" y="495" on="0"/>
        <pt x="152" y="510" on="0"/>
        <pt x="203" y="510" on="1"/>
        <pt x="264" y="510" on="0"/>
        <pt x="323" y="455" on="0"/>
        <pt x="323" y="389" on="1"/>
        <pt x="323" y="327" on="1"/>
        <pt x="323" y="144" on="0"/>
        <pt x="317" y="27" on="1"/>
        <pt x="280" y="0" on="0"/>
        <pt x="238" y="-69" on="0"/>
        <pt x="238" y="-104" on="1"/>
        <pt x="238" y="-132" on="0"/>
        <pt x="257" y="-158" on="0"/>
        <pt x="279" y="-158" on="1"/>
        <pt x="296" y="-158" on="0"/>
        <pt x="311" y="-150" on="1"/>
        <pt x="314" y="-154" on="0"/>
        <pt x="317" y="-165" on="1"/>
        <pt x="318" y="-172" on="0"/>
        <pt x="317" y="-176" on="1"/>
        <pt x="314" y="-195" on="0"/>
        <pt x="270" y="-195" on="1"/>
        <pt x="196" y="-195" on="0"/>
        <pt x="196" y="-108" on="1"/>
        <pt x="196" y="-54" on="0"/>
        <pt x="236" y="-5" on="1"/>
        <pt x="206" y="-10" on="0"/>
        <pt x="174" y="-10" on="1"/>
        <pt x="111" y="-10" on="0"/>
        <pt x="39" y="50" on="0"/>
        <pt x="39" y="138" on="1"/>
        <pt x="39" y="234" on="0"/>
        <pt x="123" y="300" on="0"/>
        <pt x="194" y="300" on="1"/>
        <pt x="248" y="300" on="0"/>
        <pt x="278" y="289" on="1"/>
        <pt x="278" y="380" on="1"/>
      </contour>
      <contour>
        <pt x="169" y="264" on="0"/>
        <pt x="118" y="247" on="0"/>
        <pt x="85" y="193" on="0"/>
        <pt x="85" y="139" on="1"/>
        <pt x="85" y="91" on="0"/>
        <pt x="113" y="43" on="0"/>
        <pt x="157" y="30" on="0"/>
        <pt x="191" y="30" on="1"/>
        <pt x="216" y="30" on="0"/>
        <pt x="263" y="46" on="0"/>
        <pt x="273" y="55" on="1"/>
        <pt x="278" y="111" on="0"/>
        <pt x="278" y="254" on="1"/>
        <pt x="249" y="264" on="0"/>
        <pt x="207" y="264" on="1"/>
      </contour>
    </TTGlyph>
    <TTGlyph name="apple" xMin="53" yMin="-10" xMax="773" yMax="710">
      <contour>
        <pt x="521" y="710" on="0"/>
        <pt x="684" y="621" on="0"/>
        <pt x="773" y="458" on="0"/>
        <pt x="773" y="350" on="1"/>
        <pt x="773" y="242" on="0"/>
        <pt x="684" y="79" on="0"/>
        <pt x="521" y="-10" on="0"/>
        <pt x="413" y="-10" on="1"/>
        <pt x="305" y="-10" on="0"/>
        <pt x="142" y="79" on="0"/>
        <pt x="53" y="242" on="0"/>
        <pt x="53" y="350" on="1"/>
        <pt x="53" y="458" on="0"/>
        <pt x="142" y="621" on="0"/>
        <pt x="305" y="710" on="0"/>
        <pt x="413" y="710" on="1"/>
      </contour>
      <contour>
        <pt x="396" y="579" on="0"/>
        <pt x="361" y="545" on="0"/>
        <pt x="361" y="516" on="1"/>
        <pt x="361" y="486" on="0"/>
        <pt x="392" y="445" on="0"/>
        <pt x="426" y="417" on="1"/>
        <pt x="466" y="384" on="0"/>
        <pt x="489" y="356" on="1"/>
        <pt x="509" y="382" on="0"/>
        <pt x="552" y="417" on="1"/>
        <pt x="587" y="447" on="0"/>
        <pt x="618" y="487" on="0"/>
        <pt x="618" y="516" on="1"/>
        <pt x="618" y="545" on="0"/>
        <pt x="582" y="579" on="0"/>
        <pt x="556" y="579" on="1"/>
        <pt x="513" y="579" on="0"/>
        <pt x="489" y="535" on="1"/>
        <pt x="465" y="579" on="0"/>
        <pt x="422" y="579" on="1"/>
      </contour>
      <contour>
        <pt x="307" y="540" on="0"/>
        <pt x="312" y="540" on="1"/>
        <pt x="326" y="539" on="1"/>
        <pt x="332" y="539" on="0"/>
        <pt x="343" y="549" on="0"/>
        <pt x="343" y="556" on="1"/>
        <pt x="343" y="574" on="0"/>
        <pt x="322" y="574" on="1"/>
        <pt x="314" y="574" on="0"/>
        <pt x="295" y="571" on="0"/>
        <pt x="288" y="571" on="1"/>
        <pt x="279" y="571" on="0"/>
        <pt x="260" y="574" on="0"/>
        <pt x="252" y="574" on="1"/>
        <pt x="229" y="574" on="0"/>
        <pt x="229" y="556" on="1"/>
        <pt x="229" y="550" on="0"/>
        <pt x="240" y="539" on="0"/>
        <pt x="247" y="539" on="1"/>
        <pt x="261" y="540" on="1"/>
        <pt x="266" y="540" on="0"/>
        <pt x="266" y="528" on="1"/>
        <pt x="266" y="416" on="1"/>
        <pt x="266" y="404" on="0"/>
        <pt x="261" y="404" on="1"/>
        <pt x="247" y="405" on="1"/>
        <pt x="239" y="405" on="0"/>
        <pt x="229" y="395" on="0"/>
        <pt x="229" y="388" on="1"/>
        <pt x="229" y="380" on="0"/>
        <pt x="240" y="368" on="0"/>
        <pt x="250" y="368" on="1"/>
        <pt x="261" y="368" on="0"/>
        <pt x="282" y="373" on="0"/>
        <pt x="289" y="373" on="1"/>
        <pt x="295" y="373" on="0"/>
        <pt x="314" y="368" on="0"/>
        <pt x="322" y="368" on="1"/>
        <pt x="343" y="368" on="0"/>
        <pt x="343" y="388" on="1"/>
        <pt x="343" y="405" on="0"/>
        <pt x="326" y="405" on="1"/>
        <pt x="312" y="404" on="1"/>
        <pt x="307" y="404" on="0"/>
        <pt x="307" y="416" on="1"/>
        <pt x="307" y="528" on="1"/>
      </contour>
      <contour>
        <pt x="640" y="294" on="0"/>
        <pt x="640" y="311" on="1"/>
        <pt x="640" y="330" on="0"/>
        <pt x="620" y="330" on="1"/>
        <pt x="612" y="330" on="0"/>
        <pt x="596" y="327" on="0"/>
        <pt x="588" y="327" on="1"/>
        <pt x="581" y="327" on="0"/>
        <pt x="564" y="330" on="0"/>
        <pt x="556" y="330" on="1"/>
        <pt x="545" y="330" on="0"/>
        <pt x="534" y="318" on="0"/>
        <pt x="534" y="311" on="1"/>
        <pt x="534" y="304" on="0"/>
        <pt x="544" y="294" on="0"/>
        <pt x="552" y="294" on="1"/>
        <pt x="560" y="294" on="1"/>
        <pt x="571" y="294" on="0"/>
        <pt x="571" y="282" on="1"/>
        <pt x="571" y="184" on="1"/>
        <pt x="501" y="312" on="1"/>
        <pt x="499" y="318" on="1"/>
        <pt x="497" y="330" on="0"/>
        <pt x="480" y="330" on="1"/>
        <pt x="475" y="330" on="0"/>
        <pt x="462" y="328" on="0"/>
        <pt x="454" y="328" on="1"/>
        <pt x="444" y="328" on="0"/>
        <pt x="431" y="330" on="0"/>
        <pt x="428" y="330" on="1"/>
        <pt x="415" y="330" on="0"/>
        <pt x="411" y="319" on="1"/>
        <pt x="406" y="330" on="0"/>
        <pt x="394" y="330" on="1"/>
        <pt x="386" y="330" on="0"/>
        <pt x="367" y="327" on="0"/>
        <pt x="358" y="327" on="1"/>
        <pt x="348" y="327" on="0"/>
        <pt x="332" y="330" on="0"/>
        <pt x="326" y="330" on="1"/>
        <pt x="307" y="330" on="0"/>
        <pt x="307" y="311" on="1"/>
        <pt x="307" y="293" on="0"/>
        <pt x="326" y="293" on="1"/>
        <pt x="331" y="294" on="1"/>
        <pt x="313" y="261" on="1"/>
        <pt x="301" y="239" on="1"/>
        <pt x="267" y="294" on="1"/>
        <pt x="269" y="294" on="1"/>
        <pt x="291" y="294" on="0"/>
        <pt x="291" y="311" on="1"/>
        <pt x="291" y="330" on="0"/>
        <pt x="271" y="330" on="1"/>
        <pt x="264" y="330" on="0"/>
        <pt x="246" y="326" on="0"/>
        <pt x="240" y="326" on="1"/>
        <pt x="234" y="326" on="0"/>
        <pt x="211" y="330" on="0"/>
        <pt x="205" y="330" on="1"/>
        <pt x="185" y="330" on="0"/>
        <pt x="185" y="311" on="1"/>
        <pt x="185" y="293" on="0"/>
        <pt x="206" y="293" on="1"/>
        <pt x="216" y="294" on="1"/>
        <pt x="220" y="294" on="0"/>
        <pt x="221" y="293" on="1"/>
        <pt x="279" y="199" on="1"/>
        <pt x="279" y="165" on="1"/>
        <pt x="279" y="157" on="0"/>
        <pt x="273" y="157" on="1"/>
        <pt x="270" y="157" on="0"/>
        <pt x="263" y="160" on="0"/>
        <pt x="260" y="160" on="1"/>
        <pt x="242" y="160" on="0"/>
        <pt x="242" y="141" on="1"/>
        <pt x="242" y="124" on="0"/>
        <pt x="263" y="124" on="1"/>
        <pt x="270" y="124" on="0"/>
        <pt x="292" y="128" on="0"/>
        <pt x="298" y="128" on="1"/>
        <pt x="304" y="128" on="0"/>
        <pt x="327" y="124" on="0"/>
        <pt x="334" y="124" on="1"/>
        <pt x="356" y="124" on="0"/>
        <pt x="356" y="142" on="1"/>
        <pt x="356" y="160" on="0"/>
        <pt x="340" y="160" on="1"/>
        <pt x="335" y="160" on="0"/>
        <pt x="327" y="157" on="0"/>
        <pt x="325" y="157" on="1"/>
        <pt x="319" y="157" on="0"/>
        <pt x="319" y="165" on="1"/>
        <pt x="319" y="201" on="1"/>
        <pt x="377" y="292" on="1"/>
        <pt x="379" y="295" on="0"/>
        <pt x="381" y="295" on="1"/>
        <pt x="385" y="295" on="0"/>
        <pt x="391" y="294" on="0"/>
        <pt x="394" y="294" on="1"/>
        <pt x="406" y="294" on="0"/>
        <pt x="410" y="303" on="1"/>
        <pt x="417" y="294" on="0"/>
        <pt x="425" y="294" on="1"/>
        <pt x="430" y="294" on="0"/>
        <pt x="436" y="295" on="0"/>
        <pt x="438" y="295" on="1"/>
        <pt x="444" y="295" on="0"/>
        <pt x="444" y="282" on="1"/>
        <pt x="444" y="169" on="1"/>
        <pt x="444" y="157" on="0"/>
        <pt x="438" y="157" on="1"/>
        <pt x="435" y="157" on="0"/>
        <pt x="429" y="159" on="0"/>
        <pt x="425" y="159" on="1"/>
        <pt x="408" y="159" on="0"/>
        <pt x="408" y="142" on="1"/>
        <pt x="408" y="124" on="0"/>
        <pt x="428" y="124" on="1"/>
        <pt x="435" y="124" on="0"/>
        <pt x="457" y="128" on="0"/>
        <pt x="465" y="128" on="1"/>
        <pt x="473" y="128" on="0"/>
        <pt x="491" y="124" on="0"/>
        <pt x="498" y="124" on="1"/>
        <pt x="519" y="124" on="0"/>
        <pt x="519" y="141" on="1"/>
        <pt x="519" y="159" on="0"/>
        <pt x="502" y="159" on="1"/>
        <pt x="498" y="159" on="0"/>
        <pt x="492" y="157" on="0"/>
        <pt x="489" y="157" on="1"/>
        <pt x="483" y="157" on="0"/>
        <pt x="483" y="170" on="1"/>
        <pt x="483" y="267" on="1"/>
        <pt x="551" y="144" on="1"/>
        <pt x="564" y="120" on="0"/>
        <pt x="582" y="120" on="1"/>
        <pt x="609" y="120" on="0"/>
        <pt x="609" y="164" on="1"/>
        <pt x="609" y="282" on="1"/>
        <pt x="609" y="294" on="0"/>
        <pt x="616" y="294" on="1"/>
        <pt x="621" y="294" on="1"/>
      </contour>
    </TTGlyph>
    <TTGlyph name="approxequal" xMin="14" yMin="160" xMax="387" yMax="381">
      <contour>
        <pt x="31" y="342" on="0"/>
        <pt x="90" y="381" on="0"/>
        <pt x="131" y="381" on="1"/>
        <pt x="153" y="381" on="0"/>
        <pt x="183" y="368" on="0"/>
        <pt x="203" y="355" on="1"/>
        <pt x="222" y="342" on="0"/>
        <pt x="251" y="329" on="0"/>
        <pt x="272" y="329" on="1"/>
        <pt x="322" y="329" on="0"/>
        <pt x="353" y="372" on="1"/>
        <pt x="358" y="378" on="0"/>
        <pt x="364" y="378" on="1"/>
        <pt x="376" y="378" on="0"/>
        <pt x="382" y="365" on="1"/>
        <pt x="382" y="352" on="0"/>
        <pt x="377" y="339" on="1"/>
        <pt x="340" y="287" on="0"/>
        <pt x="270" y="287" on="1"/>
        <pt x="244" y="287" on="0"/>
        <pt x="211" y="301" on="0"/>
        <pt x="188" y="315" on="1"/>
        <pt x="153" y="338" on="0"/>
        <pt x="127" y="338" on="1"/>
        <pt x="97" y="338" on="0"/>
        <pt x="60" y="316" on="0"/>
        <pt x="39" y="298" on="1"/>
        <pt x="37" y="296" on="0"/>
        <pt x="33" y="296" on="1"/>
        <pt x="27" y="296" on="0"/>
        <pt x="16" y="308" on="0"/>
        <pt x="15" y="318" on="1"/>
      </contour>
      <contour>
        <pt x="30" y="216" on="0"/>
        <pt x="88" y="253" on="0"/>
        <pt x="128" y="253" on="1"/>
        <pt x="150" y="253" on="0"/>
        <pt x="181" y="241" on="0"/>
        <pt x="202" y="228" on="1"/>
        <pt x="239" y="203" on="0"/>
        <pt x="272" y="203" on="1"/>
        <pt x="321" y="203" on="0"/>
        <pt x="360" y="244" on="1"/>
        <pt x="365" y="247" on="0"/>
        <pt x="368" y="247" on="1"/>
        <pt x="380" y="247" on="0"/>
        <pt x="387" y="225" on="1"/>
        <pt x="344" y="160" on="0"/>
        <pt x="268" y="160" on="1"/>
        <pt x="241" y="160" on="0"/>
        <pt x="206" y="175" on="0"/>
        <pt x="186" y="189" on="1"/>
        <pt x="155" y="211" on="0"/>
        <pt x="128" y="211" on="1"/>
        <pt x="80" y="211" on="0"/>
        <pt x="47" y="170" on="1"/>
        <pt x="41" y="166" on="0"/>
        <pt x="37" y="166" on="1"/>
        <pt x="30" y="166" on="0"/>
        <pt x="16" y="182" on="0"/>
        <pt x="14" y="193" on="1"/>
      </contour>
    </TTGlyph>
    <TTGlyph name="aring" xMin="39" yMin="-10" xMax="323" yMax="735">
      <component glyphName=".ttfautohint" x="39" y="0" flags="0x0"/>
      <component glyphName="a" x="0" y="0" flags="0x1000"/>
      <component glyphName="ring" x="53" y="0" flags="0x1000"/>
    </TTGlyph>
    <TTGlyph name="asciicircum" xMin="61" yMin="214" xMax="366" yMax="382">
      <contour>
        <pt x="89" y="214" on="0"/>
        <pt x="82" y="214" on="1"/>
        <pt x="63" y="214" on="0"/>
        <pt x="61" y="238" on="1"/>
        <pt x="218" y="382" on="1"/>
        <pt x="358" y="252" on="1"/>
        <pt x="366" y="245" on="0"/>
        <pt x="366" y="236" on="1"/>
        <pt x="366" y="228" on="0"/>
        <pt x="353" y="215" on="0"/>
        <pt x="343" y="214" on="1"/>
        <pt x="214" y="324" on="1"/>
        <pt x="102" y="225" on="1"/>
      </contour>
    </TTGlyph>
    <TTGlyph name="asciitilde" xMin="13" yMin="227" xMax="388" yMax="321">
      <contour>
        <pt x="26" y="281" on="0"/>
        <pt x="89" y="321" on="0"/>
        <pt x="130" y="321" on="1"/>
        <pt x="153" y="321" on="0"/>
        <pt x="184" y="308" on="0"/>
        <pt x="204" y="295" on="1"/>
        <pt x="223" y="282" on="0"/>
        <pt x="253" y="269" on="0"/>
        <pt x="274" y="269" on="1"/>
        <pt x="324" y="269" on="0"/>
        <pt x="355" y="312" on="1"/>
        <pt x="360" y="317" on="0"/>
        <pt x="367" y="317" on="1"/>
        <pt x="374" y="317" on="0"/>
        <pt x="387" y="303" on="0"/>
        <pt x="388" y="292" on="1"/>
        <pt x="345" y="227" on="0"/>
        <pt x="270" y="227" on="1"/>
        <pt x="243" y="227" on="0"/>
        <pt x="207" y="242" on="0"/>
        <pt x="186" y="256" on="1"/>
        <pt x="152" y="279" on="0"/>
        <pt x="126" y="279" on="1"/>
        <pt x="102" y="279" on="0"/>
        <pt x="66" y="259" on="0"/>
        <pt x="44" y="239" on="0"/>
        <pt x="40" y="236" on="1"/>
        <pt x="32" y="231" on="0"/>
        <pt x="15" y="245" on="0"/>
        <pt x="13" y="258" on="1"/>
      </contour>
    </TTGlyph>
    <TTGlyph name="asterisk" xMin="22" yMin="253" xMax="450" yMax="683">
      <contour>
        <pt x="245" y="496" on="0"/>
        <pt x="234" y="496" on="1"/>
        <pt x="232" y="496" on="0"/>
        <pt x="224" y="498" on="1"/>
        <pt x="211" y="671" on="1"/>
        <pt x="210" y="683" on="0"/>
        <pt x="230" y="683" on="1"/>
        <pt x="246" y="683" on="0"/>
        <pt x="260" y="676" on="1"/>
        <pt x="247" y="508" on="1"/>
      </contour>
      <contour>
        <pt x="201" y="478" on="1"/>
        <pt x="201" y="459" on="0"/>
        <pt x="186" y="464" on="1"/>
        <pt x="22" y="518" on="1"/>
        <pt x="21" y="537" on="0"/>
        <pt x="47" y="564" on="0"/>
        <pt x="58" y="559" on="1"/>
        <pt x="201" y="483" on="1"/>
      </contour>
      <contour>
        <pt x="440" y="556" on="0"/>
        <pt x="450" y="536" on="0"/>
        <pt x="450" y="527" on="1"/>
        <pt x="450" y="515" on="0"/>
        <pt x="441" y="512" on="1"/>
        <pt x="272" y="461" on="1"/>
        <pt x="265" y="472" on="0"/>
        <pt x="265" y="476" on="1"/>
        <pt x="265" y="484" on="0"/>
        <pt x="275" y="489" on="1"/>
        <pt x="433" y="560" on="1"/>
      </contour>
      <contour>
        <pt x="246" y="420" on="0"/>
        <pt x="246" y="422" on="1"/>
        <pt x="246" y="429" on="0"/>
        <pt x="262" y="435" on="1"/>
        <pt x="374" y="288" on="1"/>
        <pt x="382" y="278" on="0"/>
        <pt x="356" y="255" on="0"/>
        <pt x="338" y="253" on="1"/>
        <pt x="248" y="416" on="1"/>
      </contour>
      <contour>
        <pt x="202" y="433" on="0"/>
        <pt x="206" y="433" on="1"/>
        <pt x="214" y="433" on="0"/>
        <pt x="221" y="423" on="1"/>
        <pt x="121" y="267" on="1"/>
        <pt x="117" y="261" on="0"/>
        <pt x="111" y="261" on="1"/>
        <pt x="103" y="261" on="0"/>
        <pt x="83" y="280" on="0"/>
        <pt x="78" y="291" on="1"/>
        <pt x="197" y="428" on="1"/>
      </contour>
    </TTGlyph>
    <TTGlyph name="at" xMin="55" yMin="-189" xMax="707" yMax="685">
      <contour>
        <pt x="500" y="74" on="0"/>
        <pt x="498" y="59" on="1"/>
        <pt x="518" y="42" on="0"/>
        <pt x="543" y="42" on="1"/>
        <pt x="565" y="42" on="0"/>
        <pt x="620" y="89" on="0"/>
        <pt x="663" y="224" on="0"/>
        <pt x="663" y="347" on="1"/>
        <pt x="663" y="454" on="0"/>
        <pt x="611" y="584" on="0"/>
        <pt x="500" y="645" on="0"/>
        <pt x="407" y="645" on="1"/>
        <pt x="259" y="645" on="0"/>
        <pt x="100" y="466" on="0"/>
        <pt x="100" y="259" on="1"/>
        <pt x="100" y="87" on="0"/>
        <pt x="172" y="-90" on="0"/>
        <pt x="293" y="-146" on="0"/>
        <pt x="389" y="-146" on="1"/>
        <pt x="468" y="-146" on="0"/>
        <pt x="575" y="-115" on="0"/>
        <pt x="623" y="-90" on="1"/>
        <pt x="635" y="-111" on="0"/>
        <pt x="635" y="-127" on="1"/>
        <pt x="635" y="-136" on="0"/>
        <pt x="571" y="-166" on="0"/>
        <pt x="460" y="-189" on="0"/>
        <pt x="393" y="-189" on="1"/>
        <pt x="283" y="-189" on="0"/>
        <pt x="142" y="-132" on="0"/>
        <pt x="55" y="66" on="0"/>
        <pt x="55" y="265" on="1"/>
        <pt x="55" y="485" on="0"/>
        <pt x="243" y="685" on="0"/>
        <pt x="409" y="685" on="1"/>
        <pt x="563" y="685" on="0"/>
        <pt x="707" y="528" on="0"/>
        <pt x="707" y="353" on="1"/>
        <pt x="707" y="139" on="0"/>
        <pt x="603" y="3" on="0"/>
        <pt x="547" y="3" on="1"/>
        <pt x="509" y="3" on="0"/>
        <pt x="484" y="28" on="1"/>
        <pt x="447" y="2" on="0"/>
        <pt x="369" y="1" on="1"/>
        <pt x="364" y="1" on="1"/>
        <pt x="308" y="1" on="0"/>
        <pt x="245" y="59" on="0"/>
        <pt x="245" y="140" on="1"/>
        <pt x="245" y="235" on="0"/>
        <pt x="330" y="310" on="0"/>
        <pt x="404" y="310" on="1"/>
        <pt x="445" y="310" on="0"/>
        <pt x="465" y="303" on="1"/>
        <pt x="468" y="367" on="1"/>
        <pt x="470" y="416" on="0"/>
        <pt x="425" y="453" on="0"/>
        <pt x="381" y="453" on="1"/>
        <pt x="316" y="453" on="0"/>
        <pt x="270" y="428" on="1"/>
        <pt x="265" y="438" on="0"/>
        <pt x="265" y="454" on="1"/>
        <pt x="266" y="464" on="0"/>
        <pt x="274" y="470" on="1"/>
        <pt x="316" y="493" on="0"/>
        <pt x="396" y="493" on="1"/>
        <pt x="455" y="493" on="0"/>
        <pt x="512" y="438" on="0"/>
        <pt x="510" y="374" on="1"/>
        <pt x="503" y="153" on="1"/>
      </contour>
      <contour>
        <pt x="440" y="276" on="0"/>
        <pt x="410" y="276" on="1"/>
        <pt x="352" y="276" on="0"/>
        <pt x="287" y="216" on="0"/>
        <pt x="287" y="140" on="1"/>
        <pt x="287" y="79" on="0"/>
        <pt x="334" y="37" on="0"/>
        <pt x="378" y="37" on="1"/>
        <pt x="407" y="37" on="0"/>
        <pt x="458" y="61" on="0"/>
        <pt x="459" y="77" on="1"/>
        <pt x="465" y="271" on="1"/>
      </contour>
    </TTGlyph>
    <TTGlyph name="atilde" xMin="39" yMin="-10" xMax="323" yMax="679">
      <component glyphName=".ttfautohint" x="39" y="0" flags="0x0"/>
      <component glyphName="a" x="0" y="0" flags="0x1000"/>
      <component glyphName="tilde" x="53" y="0" flags="0x1000"/>
    </TTGlyph>
    <TTGlyph name="b" xMin="62" yMin="-10" xMax="372" yMax="735">
      <contour>
        <pt x="62" y="728" on="0"/>
        <pt x="78" y="735" on="0"/>
        <pt x="107" y="735" on="1"/>
        <pt x="107" y="467" on="1"/>
        <pt x="160" y="510" on="0"/>
        <pt x="238" y="510" on="1"/>
        <pt x="303" y="509" on="0"/>
        <pt x="372" y="421" on="0"/>
        <pt x="372" y="320" on="1"/>
        <pt x="372" y="124" on="0"/>
        <pt x="259" y="-10" on="0"/>
        <pt x="177" y="-10" on="1"/>
        <pt x="99" y="-10" on="0"/>
        <pt x="62" y="20" on="1"/>
        <pt x="62" y="712" on="1"/>
      </contour>
      <contour>
        <pt x="129" y="31" on="0"/>
        <pt x="182" y="31" on="1"/>
        <pt x="323" y="31" on="0"/>
        <pt x="323" y="305" on="1"/>
        <pt x="323" y="396" on="0"/>
        <pt x="274" y="468" on="0"/>
        <pt x="219" y="468" on="1"/>
        <pt x="152" y="468" on="0"/>
        <pt x="107" y="424" on="1"/>
        <pt x="107" y="51" on="1"/>
      </contour>
    </TTGlyph>
    <TTGlyph name="backslash" xMin="11" yMin="-30" xMax="282" yMax="765">
      <contour>
        <pt x="285" y="-26" on="0"/>
        <pt x="270" y="-30" on="0"/>
        <pt x="239" y="-30" on="1"/>
        <pt x="11" y="751" on="1"/>
        <pt x="8" y="761" on="0"/>
        <pt x="23" y="765" on="0"/>
        <pt x="54" y="765" on="1"/>
        <pt x="282" y="-17" on="1"/>
      </contour>
    </TTGlyph>
    <TTGlyph name="bar" xMin="160" yMin="-200" xMax="205" yMax="815">
      <contour>
        <pt x="205" y="-196" on="0"/>
        <pt x="191" y="-200" on="0"/>
        <pt x="160" y="-200" on="1"/>
        <pt x="160" y="801" on="1"/>
        <pt x="160" y="808" on="0"/>
        <pt x="165" y="814" on="0"/>
        <pt x="187" y="815" on="0"/>
        <pt x="205" y="815" on="1"/>
        <pt x="205" y="-187" on="1"/>
      </contour>
    </TTGlyph>
    <TTGlyph name="braceleft" xMin="56" yMin="-151" xMax="271" yMax="744">
      <contour>
        <pt x="271" y="732" on="0"/>
        <pt x="271" y="717" on="1"/>
        <pt x="271" y="701" on="0"/>
        <pt x="258" y="699" on="1"/>
        <pt x="206" y="697" on="0"/>
        <pt x="153" y="659" on="0"/>
        <pt x="153" y="610" on="1"/>
        <pt x="153" y="582" on="0"/>
        <pt x="158" y="535" on="1"/>
        <pt x="165" y="451" on="0"/>
        <pt x="165" y="412" on="1"/>
        <pt x="165" y="363" on="0"/>
        <pt x="134" y="314" on="0"/>
        <pt x="104" y="301" on="1"/>
        <pt x="135" y="291" on="0"/>
        <pt x="165" y="249" on="0"/>
        <pt x="165" y="208" on="1"/>
        <pt x="165" y="149" on="0"/>
        <pt x="158" y="84" on="1"/>
        <pt x="153" y="34" on="0"/>
        <pt x="153" y="-2" on="1"/>
        <pt x="153" y="-48" on="0"/>
        <pt x="178" y="-92" on="0"/>
        <pt x="221" y="-105" on="0"/>
        <pt x="265" y="-109" on="1"/>
        <pt x="267" y="-125" on="0"/>
        <pt x="267" y="-127" on="1"/>
        <pt x="267" y="-151" on="0"/>
        <pt x="250" y="-151" on="1"/>
        <pt x="174" y="-151" on="0"/>
        <pt x="107" y="-90" on="0"/>
        <pt x="107" y="-17" on="1"/>
        <pt x="107" y="5" on="0"/>
        <pt x="114" y="82" on="1"/>
        <pt x="121" y="143" on="0"/>
        <pt x="121" y="195" on="1"/>
        <pt x="121" y="234" on="0"/>
        <pt x="90" y="270" on="0"/>
        <pt x="60" y="276" on="1"/>
        <pt x="56" y="285" on="0"/>
        <pt x="56" y="297" on="1"/>
        <pt x="56" y="315" on="0"/>
        <pt x="70" y="324" on="1"/>
        <pt x="89" y="335" on="0"/>
        <pt x="109" y="352" on="0"/>
        <pt x="121" y="388" on="0"/>
        <pt x="121" y="421" on="1"/>
        <pt x="121" y="471" on="0"/>
        <pt x="114" y="532" on="1"/>
        <pt x="107" y="607" on="0"/>
        <pt x="107" y="628" on="1"/>
        <pt x="107" y="744" on="0"/>
        <pt x="262" y="744" on="1"/>
      </contour>
    </TTGlyph>
    <TTGlyph name="braceright" xMin="19" yMin="-151" xMax="233" yMax="744">
      <contour>
        <pt x="19" y="-140" on="0"/>
        <pt x="19" y="-123" on="1"/>
        <pt x="19" y="-108" on="0"/>
        <pt x="31" y="-106" on="1"/>
        <pt x="83" y="-104" on="0"/>
        <pt x="136" y="-65" on="0"/>
        <pt x="136" y="-17" on="1"/>
        <pt x="136" y="11" on="0"/>
        <pt x="131" y="59" on="1"/>
        <pt x="124" y="141" on="0"/>
        <pt x="124" y="181" on="1"/>
        <pt x="124" y="230" on="0"/>
        <pt x="156" y="280" on="0"/>
        <pt x="185" y="292" on="1"/>
        <pt x="155" y="302" on="0"/>
        <pt x="124" y="344" on="0"/>
        <pt x="124" y="386" on="1"/>
        <pt x="124" y="444" on="0"/>
        <pt x="131" y="509" on="1"/>
        <pt x="136" y="559" on="0"/>
        <pt x="136" y="595" on="1"/>
        <pt x="136" y="641" on="0"/>
        <pt x="111" y="685" on="0"/>
        <pt x="68" y="699" on="0"/>
        <pt x="24" y="703" on="1"/>
        <pt x="22" y="717" on="0"/>
        <pt x="22" y="720" on="1"/>
        <pt x="22" y="744" on="0"/>
        <pt x="39" y="744" on="1"/>
        <pt x="115" y="744" on="0"/>
        <pt x="182" y="683" on="0"/>
        <pt x="182" y="610" on="1"/>
        <pt x="182" y="589" on="0"/>
        <pt x="175" y="512" on="1"/>
        <pt x="168" y="451" on="0"/>
        <pt x="168" y="398" on="1"/>
        <pt x="168" y="359" on="0"/>
        <pt x="199" y="323" on="0"/>
        <pt x="229" y="317" on="1"/>
        <pt x="233" y="308" on="0"/>
        <pt x="233" y="297" on="1"/>
        <pt x="233" y="278" on="0"/>
        <pt x="219" y="270" on="1"/>
        <pt x="199" y="258" on="0"/>
        <pt x="180" y="241" on="0"/>
        <pt x="168" y="205" on="0"/>
        <pt x="168" y="173" on="1"/>
        <pt x="168" y="122" on="0"/>
        <pt x="175" y="61" on="1"/>
        <pt x="182" y="-14" on="0"/>
        <pt x="182" y="-35" on="1"/>
        <pt x="182" y="-151" on="0"/>
        <pt x="27" y="-151" on="1"/>
      </contour>
    </TTGlyph>
    <TTGlyph name="bracketleft" xMin="160" yMin="-198" xMax="416" yMax="821">
      <contour>
        <pt x="416" y="794" on="0"/>
        <pt x="410" y="781" on="0"/>
        <pt x="395" y="781" on="1"/>
        <pt x="205" y="781" on="1"/>
        <pt x="205" y="-155" on="1"/>
        <pt x="415" y="-155" on="1"/>
        <pt x="415" y="-184" on="0"/>
        <pt x="406" y="-198" on="0"/>
        <pt x="393" y="-198" on="1"/>
        <pt x="160" y="-198" on="1"/>
        <pt x="160" y="804" on="1"/>
        <pt x="160" y="815" on="0"/>
        <pt x="173" y="821" on="0"/>
        <pt x="196" y="821" on="1"/>
        <pt x="416" y="821" on="1"/>
      </contour>
    </TTGlyph>
    <TTGlyph name="bracketright" xMin="10" yMin="-200" xMax="266" yMax="822">
      <contour>
        <pt x="10" y="-173" on="0"/>
        <pt x="17" y="-160" on="0"/>
        <pt x="32" y="-160" on="1"/>
        <pt x="222" y="-160" on="1"/>
        <pt x="222" y="780" on="1"/>
        <pt x="12" y="780" on="1"/>
        <pt x="12" y="801" on="0"/>
        <pt x="16" y="818" on="0"/>
        <pt x="24" y="822" on="0"/>
        <pt x="34" y="822" on="1"/>
        <pt x="266" y="822" on="1"/>
        <pt x="266" y="-183" on="1"/>
        <pt x="266" y="-194" on="0"/>
        <pt x="254" y="-200" on="0"/>
        <pt x="230" y="-200" on="1"/>
        <pt x="10" y="-200" on="1"/>
      </contour>
    </TTGlyph>
    <TTGlyph name="breve" xMin="9" yMin="575" xMax="249" yMax="709">
      <contour>
        <pt x="69" y="618" on="0"/>
        <pt x="128" y="618" on="1"/>
        <pt x="162" y="618" on="0"/>
        <pt x="198" y="661" on="0"/>
        <pt x="213" y="698" on="1"/>
        <pt x="216" y="707" on="0"/>
        <pt x="225" y="707" on="1"/>
        <pt x="233" y="707" on="0"/>
        <pt x="248" y="693" on="0"/>
        <pt x="249" y="684" on="1"/>
        <pt x="214" y="575" on="0"/>
        <pt x="127" y="575" on="1"/>
        <pt x="93" y="575" on="0"/>
        <pt x="39" y="616" on="0"/>
        <pt x="9" y="669" on="0"/>
        <pt x="9" y="685" on="1"/>
        <pt x="9" y="703" on="0"/>
        <pt x="37" y="709" on="1"/>
      </contour>
    </TTGlyph>
    <TTGlyph name="breve.cyr" xMin="2" yMin="580" xMax="258" yMax="709">
      <contour>
        <pt x="55" y="613" on="0"/>
        <pt x="130" y="613" on="1"/>
        <pt x="169" y="613" on="0"/>
        <pt x="204" y="653" on="0"/>
        <pt x="217" y="699" on="1"/>
        <pt x="220" y="707" on="0"/>
        <pt x="229" y="707" on="1"/>
        <pt x="238" y="707" on="0"/>
        <pt x="257" y="694" on="0"/>
        <pt x="258" y="685" on="1"/>
        <pt x="240" y="632" on="0"/>
        <pt x="183" y="580" on="0"/>
        <pt x="128" y="580" on="1"/>
        <pt x="87" y="580" on="0"/>
        <pt x="32" y="614" on="0"/>
        <pt x="4" y="662" on="0"/>
        <pt x="2" y="685" on="1"/>
        <pt x="1" y="702" on="0"/>
        <pt x="36" y="709" on="1"/>
      </contour>
    </TTGlyph>
    <TTGlyph name="brokenbar" xMin="90" yMin="-197" xMax="135" yMax="742">
      <contour>
        <pt x="135" y="337" on="0"/>
        <pt x="126" y="331" on="0"/>
        <pt x="112" y="331" on="1"/>
        <pt x="98" y="331" on="0"/>
        <pt x="90" y="334" on="1"/>
        <pt x="90" y="724" on="1"/>
        <pt x="90" y="734" on="0"/>
        <pt x="100" y="742" on="0"/>
        <pt x="113" y="742" on="1"/>
        <pt x="127" y="742" on="0"/>
        <pt x="135" y="739" on="1"/>
        <pt x="135" y="346" on="1"/>
      </contour>
      <contour>
        <pt x="135" y="-191" on="0"/>
        <pt x="126" y="-197" on="0"/>
        <pt x="112" y="-197" on="1"/>
        <pt x="98" y="-197" on="0"/>
        <pt x="90" y="-194" on="1"/>
        <pt x="90" y="204" on="1"/>
        <pt x="90" y="214" on="0"/>
        <pt x="100" y="222" on="0"/>
        <pt x="113" y="222" on="1"/>
        <pt x="127" y="222" on="0"/>
        <pt x="135" y="219" on="1"/>
        <pt x="135" y="-182" on="1"/>
      </contour>
    </TTGlyph>
    <TTGlyph name="bullet" xMin="55" yMin="221" xMax="168" yMax="341">
      <contour>
        <pt x="55" y="306" on="0"/>
        <pt x="85" y="341" on="0"/>
        <pt x="110" y="341" on="1"/>
        <pt x="138" y="341" on="0"/>
        <pt x="168" y="307" on="0"/>
        <pt x="168" y="281" on="1"/>
        <pt x="168" y="255" on="0"/>
        <pt x="136" y="221" on="0"/>
        <pt x="110" y="221" on="1"/>
        <pt x="83" y="221" on="0"/>
        <pt x="55" y="253" on="0"/>
        <pt x="55" y="281" on="1"/>
      </contour>
    </TTGlyph>
    <TTGlyph name="bulletoperator" xMin="55" yMin="221" xMax="168" yMax="341">
      <component glyphName=".ttfautohint" x="55" y="221" flags="0x0"/>
      <component glyphName="bullet" x="0" y="0" flags="0x1000"/>
    </TTGlyph>
    <TTGlyph name="c" xMin="43" yMin="-10" xMax="308" yMax="510">
      <contour>
        <pt x="308" y="458" on="0"/>
        <pt x="301" y="444" on="1"/>
        <pt x="268" y="469" on="0"/>
        <pt x="221" y="469" on="1"/>
        <pt x="164" y="469" on="0"/>
        <pt x="89" y="376" on="0"/>
        <pt x="89" y="236" on="1"/>
        <pt x="89" y="153" on="0"/>
        <pt x="117" y="64" on="0"/>
        <pt x="167" y="31" on="0"/>
        <pt x="205" y="31" on="1"/>
        <pt x="266" y="31" on="0"/>
        <pt x="302" y="65" on="1"/>
        <pt x="308" y="50" on="0"/>
        <pt x="308" y="37" on="1"/>
        <pt x="308" y="27" on="0"/>
        <pt x="278" y="5" on="0"/>
        <pt x="225" y="-10" on="0"/>
        <pt x="193" y="-10" on="1"/>
        <pt x="144" y="-10" on="0"/>
        <pt x="80" y="27" on="0"/>
        <pt x="43" y="136" on="0"/>
        <pt x="43" y="239" on="1"/>
        <pt x="43" y="400" on="0"/>
        <pt x="145" y="510" on="0"/>
        <pt x="224" y="510" on="1"/>
        <pt x="257" y="510" on="0"/>
        <pt x="308" y="487" on="0"/>
        <pt x="308" y="472" on="1"/>
      </contour>
    </TTGlyph>
    <TTGlyph name="cacute" xMin="43" yMin="-10" xMax="308" yMax="716">
      <component glyphName=".ttfautohint" x="43" y="0" flags="0x0"/>
      <component glyphName="c" x="0" y="0" flags="0x1000"/>
      <component glyphName="acute" x="63" y="0" flags="0x1000"/>
    </TTGlyph>
    <TTGlyph name="caron" xMin="13" yMin="575" xMax="244" yMax="720">
      <contour>
        <pt x="126" y="575" on="0"/>
        <pt x="20" y="679" on="0"/>
        <pt x="13" y="689" on="1"/>
        <pt x="15" y="696" on="0"/>
        <pt x="30" y="717" on="0"/>
        <pt x="37" y="717" on="1"/>
        <pt x="44" y="717" on="0"/>
        <pt x="122" y="634" on="0"/>
        <pt x="136" y="619" on="1"/>
        <pt x="162" y="651" on="0"/>
        <pt x="217" y="711" on="0"/>
        <pt x="225" y="720" on="1"/>
        <pt x="244" y="709" on="0"/>
        <pt x="244" y="697" on="1"/>
        <pt x="244" y="691" on="0"/>
        <pt x="195" y="630" on="0"/>
        <pt x="142" y="575" on="0"/>
        <pt x="136" y="575" on="1"/>
      </contour>
    </TTGlyph>
    <TTGlyph name="ccaron" xMin="43" yMin="-10" xMax="308" yMax="720">
      <component glyphName=".ttfautohint" x="43" y="0" flags="0x0"/>
      <component glyphName="c" x="0" y="0" flags="0x1000"/>
      <component glyphName="caron" x="61" y="0" flags="0x1000"/>
    </TTGlyph>
    <TTGlyph name="ccedilla" xMin="43" yMin="-188" xMax="308" yMax="510">
      <contour>
        <pt x="132" y="-6" on="0"/>
        <pt x="76" y="36" on="0"/>
        <pt x="43" y="143" on="0"/>
        <pt x="43" y="239" on="1"/>
        <pt x="43" y="400" on="0"/>
        <pt x="145" y="510" on="0"/>
        <pt x="224" y="510" on="1"/>
        <pt x="257" y="510" on="0"/>
        <pt x="308" y="487" on="0"/>
        <pt x="308" y="472" on="1"/>
        <pt x="308" y="458" on="0"/>
        <pt x="301" y="444" on="1"/>
        <pt x="268" y="469" on="0"/>
        <pt x="221" y="469" on="1"/>
        <pt x="164" y="469" on="0"/>
        <pt x="89" y="376" on="0"/>
        <pt x="89" y="236" on="1"/>
        <pt x="89" y="153" on="0"/>
        <pt x="117" y="64" on="0"/>
        <pt x="167" y="31" on="0"/>
        <pt x="205" y="31" on="1"/>
        <pt x="266" y="31" on="0"/>
        <pt x="302" y="65" on="1"/>
        <pt x="308" y="50" on="0"/>
        <pt x="308" y="37" on="1"/>
        <pt x="308" y="22" on="0"/>
        <pt x="250" y="-7" on="0"/>
        <pt x="207" y="-10" on="1"/>
        <pt x="196" y="-60" on="1"/>
        <pt x="197" y="-60" on="0"/>
        <pt x="205" y="-59" on="0"/>
        <pt x="215" y="-59" on="1"/>
        <pt x="235" y="-59" on="0"/>
        <pt x="263" y="-86" on="0"/>
        <pt x="263" y="-114" on="1"/>
        <pt x="263" y="-152" on="0"/>
        <pt x="222" y="-188" on="0"/>
        <pt x="194" y="-188" on="1"/>
        <pt x="177" y="-188" on="0"/>
        <pt x="146" y="-181" on="0"/>
        <pt x="142" y="-179" on="1"/>
        <pt x="142" y="-175" on="0"/>
        <pt x="148" y="-154" on="0"/>
        <pt x="152" y="-150" on="1"/>
        <pt x="154" y="-147" on="0"/>
        <pt x="164" y="-149" on="0"/>
        <pt x="186" y="-157" on="0"/>
        <pt x="195" y="-157" on="1"/>
        <pt x="230" y="-157" on="0"/>
        <pt x="230" y="-121" on="1"/>
        <pt x="230" y="-86" on="0"/>
        <pt x="196" y="-86" on="1"/>
        <pt x="183" y="-86" on="0"/>
        <pt x="161" y="-90" on="0"/>
        <pt x="158" y="-91" on="1"/>
        <pt x="175" y="-9" on="1"/>
      </contour>
    </TTGlyph>
    <TTGlyph name="cedilla" xMin="76" yMin="-188" xMax="197" yMax="3">
      <contour>
        <pt x="131" y="-60" on="0"/>
        <pt x="139" y="-59" on="0"/>
        <pt x="149" y="-59" on="1"/>
        <pt x="169" y="-59" on="0"/>
        <pt x="197" y="-86" on="0"/>
        <pt x="197" y="-114" on="1"/>
        <pt x="197" y="-152" on="0"/>
        <pt x="156" y="-188" on="0"/>
        <pt x="128" y="-188" on="1"/>
        <pt x="111" y="-188" on="0"/>
        <pt x="80" y="-181" on="0"/>
        <pt x="76" y="-179" on="1"/>
        <pt x="76" y="-175" on="0"/>
        <pt x="82" y="-154" on="0"/>
        <pt x="86" y="-150" on="1"/>
        <pt x="88" y="-147" on="0"/>
        <pt x="98" y="-149" on="0"/>
        <pt x="120" y="-157" on="0"/>
        <pt x="129" y="-157" on="1"/>
        <pt x="164" y="-157" on="0"/>
        <pt x="164" y="-121" on="1"/>
        <pt x="164" y="-86" on="0"/>
        <pt x="130" y="-86" on="1"/>
        <pt x="118" y="-86" on="0"/>
        <pt x="95" y="-90" on="0"/>
        <pt x="92" y="-91" on="1"/>
        <pt x="111" y="3" on="1"/>
        <pt x="144" y="3" on="1"/>
        <pt x="130" y="-60" on="1"/>
      </contour>
    </TTGlyph>
    <TTGlyph name="cent" xMin="94" yMin="-143" xMax="360" yMax="642">
      <contour>
        <pt x="310" y="508" on="0"/>
        <pt x="359" y="487" on="0"/>
        <pt x="359" y="478" on="1"/>
        <pt x="359" y="457" on="0"/>
        <pt x="352" y="443" on="1"/>
        <pt x="334" y="455" on="0"/>
        <pt x="303" y="467" on="0"/>
        <pt x="279" y="467" on="1"/>
        <pt x="240" y="467" on="0"/>
        <pt x="180" y="432" on="0"/>
        <pt x="140" y="324" on="0"/>
        <pt x="140" y="222" on="1"/>
        <pt x="140" y="137" on="0"/>
        <pt x="168" y="55" on="0"/>
        <pt x="218" y="32" on="0"/>
        <pt x="263" y="32" on="1"/>
        <pt x="309" y="32" on="0"/>
        <pt x="353" y="66" on="1"/>
        <pt x="360" y="50" on="0"/>
        <pt x="360" y="36" on="1"/>
        <pt x="360" y="28" on="0"/>
        <pt x="332" y="7" on="0"/>
        <pt x="286" y="-10" on="0"/>
        <pt x="261" y="-10" on="1"/>
        <pt x="261" y="-121" on="1"/>
        <pt x="261" y="-134" on="0"/>
        <pt x="244" y="-143" on="0"/>
        <pt x="221" y="-143" on="1"/>
        <pt x="221" y="-9" on="1"/>
        <pt x="178" y="-6" on="0"/>
        <pt x="125" y="31" on="0"/>
        <pt x="94" y="131" on="0"/>
        <pt x="94" y="224" on="1"/>
        <pt x="94" y="485" on="0"/>
        <pt x="240" y="507" on="1"/>
        <pt x="240" y="620" on="1"/>
        <pt x="240" y="633" on="0"/>
        <pt x="258" y="642" on="0"/>
        <pt x="281" y="642" on="1"/>
        <pt x="281" y="509" on="1"/>
      </contour>
    </TTGlyph>
    <TTGlyph name="circumflex" xMin="10" yMin="573" xMax="247" yMax="703">
      <contour>
        <pt x="127" y="703" on="0"/>
        <pt x="133" y="703" on="1"/>
        <pt x="143" y="703" on="0"/>
        <pt x="151" y="695" on="1"/>
        <pt x="166" y="680" on="0"/>
        <pt x="247" y="596" on="0"/>
        <pt x="247" y="592" on="1"/>
        <pt x="247" y="587" on="0"/>
        <pt x="224" y="573" on="0"/>
        <pt x="212" y="573" on="1"/>
        <pt x="200" y="586" on="0"/>
        <pt x="135" y="656" on="0"/>
        <pt x="132" y="662" on="1"/>
        <pt x="120" y="648" on="0"/>
        <pt x="49" y="574" on="0"/>
        <pt x="42" y="574" on="1"/>
        <pt x="24" y="574" on="0"/>
        <pt x="10" y="591" on="1"/>
        <pt x="121" y="701" on="1"/>
      </contour>
    </TTGlyph>
    <TTGlyph name="colon" xMin="53" yMin="-5" xMax="129" yMax="427">
      <contour>
        <pt x="53" y="403" on="0"/>
        <pt x="73" y="427" on="0"/>
        <pt x="90" y="427" on="1"/>
        <pt x="109" y="427" on="0"/>
        <pt x="129" y="404" on="0"/>
        <pt x="129" y="387" on="1"/>
        <pt x="129" y="369" on="0"/>
        <pt x="108" y="346" on="0"/>
        <pt x="90" y="346" on="1"/>
        <pt x="53" y="346" on="0"/>
        <pt x="53" y="387" on="1"/>
      </contour>
      <contour>
        <pt x="53" y="52" on="0"/>
        <pt x="73" y="76" on="0"/>
        <pt x="90" y="76" on="1"/>
        <pt x="109" y="76" on="0"/>
        <pt x="129" y="53" on="0"/>
        <pt x="129" y="36" on="1"/>
        <pt x="129" y="18" on="0"/>
        <pt x="108" y="-5" on="0"/>
        <pt x="90" y="-5" on="1"/>
        <pt x="53" y="-5" on="0"/>
        <pt x="53" y="36" on="1"/>
      </contour>
    </TTGlyph>
    <TTGlyph name="comma" xMin="48" yMin="-111" xMax="130" yMax="76">
      <contour>
        <pt x="60" y="55" on="0"/>
        <pt x="79" y="76" on="0"/>
        <pt x="95" y="76" on="1"/>
        <pt x="130" y="76" on="0"/>
        <pt x="130" y="32" on="1"/>
        <pt x="130" y="4" on="0"/>
        <pt x="106" y="-63" on="0"/>
        <pt x="75" y="-111" on="0"/>
        <pt x="67" y="-111" on="1"/>
        <pt x="61" y="-111" on="0"/>
        <pt x="49" y="-102" on="0"/>
        <pt x="48" y="-95" on="1"/>
        <pt x="76" y="-46" on="0"/>
        <pt x="78" y="3" on="1"/>
        <pt x="60" y="14" on="0"/>
        <pt x="60" y="39" on="1"/>
      </contour>
    </TTGlyph>
    <TTGlyph name="commaaccentcomb" xMin="82" yMin="-242" xMax="165" yMax="-56">
      <contour>
        <pt x="94" y="-76" on="0"/>
        <pt x="113" y="-56" on="0"/>
        <pt x="129" y="-56" on="1"/>
        <pt x="165" y="-56" on="0"/>
        <pt x="165" y="-99" on="1"/>
        <pt x="165" y="-127" on="0"/>
        <pt x="141" y="-194" on="0"/>
        <pt x="110" y="-242" on="0"/>
        <pt x="102" y="-242" on="1"/>
        <pt x="85" y="-242" on="0"/>
        <pt x="82" y="-226" on="1"/>
        <pt x="112" y="-176" on="0"/>
        <pt x="112" y="-129" on="1"/>
        <pt x="94" y="-118" on="0"/>
        <pt x="94" y="-93" on="1"/>
      </contour>
    </TTGlyph>
    <TTGlyph name="copyright" xMin="40" yMin="321" xMax="423" yMax="761">
      <contour>
        <pt x="40" y="652" on="0"/>
        <pt x="143" y="761" on="0"/>
        <pt x="237" y="761" on="1"/>
        <pt x="332" y="761" on="0"/>
        <pt x="423" y="662" on="0"/>
        <pt x="423" y="540" on="1"/>
        <pt x="423" y="434" on="0"/>
        <pt x="323" y="321" on="0"/>
        <pt x="231" y="321" on="1"/>
        <pt x="166" y="321" on="0"/>
        <pt x="84" y="358" on="0"/>
        <pt x="40" y="453" on="0"/>
        <pt x="40" y="540" on="1"/>
      </contour>
      <contour>
        <pt x="77" y="437" on="0"/>
        <pt x="151" y="357" on="0"/>
        <pt x="226" y="357" on="1"/>
        <pt x="300" y="357" on="0"/>
        <pt x="386" y="451" on="0"/>
        <pt x="386" y="543" on="1"/>
        <pt x="386" y="642" on="0"/>
        <pt x="311" y="725" on="0"/>
        <pt x="238" y="725" on="1"/>
        <pt x="77" y="725" on="0"/>
        <pt x="77" y="536" on="1"/>
      </contour>
      <contour>
        <pt x="290" y="649" on="0"/>
        <pt x="283" y="635" on="1"/>
        <pt x="261" y="646" on="0"/>
        <pt x="249" y="646" on="1"/>
        <pt x="219" y="646" on="0"/>
        <pt x="183" y="598" on="0"/>
        <pt x="183" y="527" on="1"/>
        <pt x="183" y="488" on="0"/>
        <pt x="196" y="449" on="0"/>
        <pt x="219" y="437" on="0"/>
        <pt x="239" y="437" on="1"/>
        <pt x="259" y="437" on="0"/>
        <pt x="283" y="450" on="1"/>
        <pt x="286" y="446" on="0"/>
        <pt x="290" y="433" on="0"/>
        <pt x="290" y="429" on="1"/>
        <pt x="290" y="423" on="0"/>
        <pt x="254" y="407" on="0"/>
        <pt x="235" y="407" on="1"/>
        <pt x="205" y="407" on="0"/>
        <pt x="170" y="422" on="0"/>
        <pt x="150" y="474" on="0"/>
        <pt x="150" y="527" on="1"/>
        <pt x="150" y="617" on="0"/>
        <pt x="203" y="676" on="0"/>
        <pt x="244" y="676" on="1"/>
        <pt x="259" y="676" on="0"/>
        <pt x="290" y="664" on="0"/>
        <pt x="290" y="660" on="1"/>
      </contour>
    </TTGlyph>
    <TTGlyph name="currency" xMin="17" yMin="32" xMax="522" yMax="537">
      <contour>
        <pt x="497" y="37" on="0"/>
        <pt x="491" y="37" on="1"/>
        <pt x="489" y="37" on="0"/>
        <pt x="483" y="41" on="1"/>
        <pt x="407" y="118" on="1"/>
        <pt x="358" y="69" on="0"/>
        <pt x="268" y="69" on="1"/>
        <pt x="180" y="69" on="0"/>
        <pt x="132" y="117" on="1"/>
        <pt x="47" y="32" on="1"/>
        <pt x="22" y="57" on="0"/>
        <pt x="22" y="63" on="1"/>
        <pt x="22" y="65" on="0"/>
        <pt x="26" y="71" on="1"/>
        <pt x="106" y="151" on="1"/>
        <pt x="75" y="205" on="0"/>
        <pt x="75" y="287" on="1"/>
        <pt x="75" y="368" on="0"/>
        <pt x="104" y="420" on="1"/>
        <pt x="17" y="507" on="1"/>
        <pt x="42" y="532" on="0"/>
        <pt x="48" y="532" on="1"/>
        <pt x="51" y="532" on="0"/>
        <pt x="55" y="528" on="1"/>
        <pt x="129" y="455" on="1"/>
        <pt x="180" y="508" on="0"/>
        <pt x="276" y="508" on="1"/>
        <pt x="365" y="508" on="0"/>
        <pt x="412" y="457" on="1"/>
        <pt x="493" y="537" on="1"/>
        <pt x="517" y="513" on="0"/>
        <pt x="517" y="506" on="1"/>
        <pt x="517" y="502" on="0"/>
        <pt x="513" y="498" on="1"/>
        <pt x="437" y="422" on="1"/>
        <pt x="464" y="371" on="0"/>
        <pt x="464" y="291" on="1"/>
        <pt x="464" y="205" on="0"/>
        <pt x="432" y="152" on="1"/>
        <pt x="522" y="62" on="1"/>
      </contour>
      <contour>
        <pt x="342" y="109" on="0"/>
        <pt x="422" y="204" on="0"/>
        <pt x="422" y="294" on="1"/>
        <pt x="422" y="379" on="0"/>
        <pt x="347" y="469" on="0"/>
        <pt x="278" y="469" on="1"/>
        <pt x="201" y="469" on="0"/>
        <pt x="118" y="371" on="0"/>
        <pt x="118" y="280" on="1"/>
        <pt x="118" y="198" on="0"/>
        <pt x="196" y="109" on="0"/>
        <pt x="268" y="109" on="1"/>
      </contour>
    </TTGlyph>
    <TTGlyph name="d" xMin="43" yMin="-10" xMax="346" yMax="735">
      <contour>
        <pt x="301" y="728" on="0"/>
        <pt x="317" y="735" on="0"/>
        <pt x="346" y="735" on="1"/>
        <pt x="346" y="20" on="1"/>
        <pt x="290" y="-10" on="0"/>
        <pt x="206" y="-10" on="1"/>
        <pt x="154" y="-10" on="0"/>
        <pt x="85" y="24" on="0"/>
        <pt x="43" y="133" on="0"/>
        <pt x="43" y="238" on="1"/>
        <pt x="43" y="329" on="0"/>
        <pt x="89" y="451" on="0"/>
        <pt x="166" y="510" on="0"/>
        <pt x="215" y="510" on="1"/>
        <pt x="270" y="510" on="0"/>
        <pt x="301" y="487" on="1"/>
        <pt x="301" y="712" on="1"/>
      </contour>
      <contour>
        <pt x="285" y="459" on="0"/>
        <pt x="253" y="469" on="0"/>
        <pt x="226" y="469" on="1"/>
        <pt x="167" y="469" on="0"/>
        <pt x="91" y="356" on="0"/>
        <pt x="91" y="241" on="1"/>
        <pt x="91" y="152" on="0"/>
        <pt x="120" y="61" on="0"/>
        <pt x="170" y="32" on="0"/>
        <pt x="211" y="32" on="1"/>
        <pt x="267" y="32" on="0"/>
        <pt x="301" y="53" on="1"/>
        <pt x="301" y="446" on="1"/>
      </contour>
    </TTGlyph>
    <TTGlyph name="dagger" xMin="40" yMin="-5" xMax="392" yMax="707">
      <contour>
        <pt x="190" y="695" on="0"/>
        <pt x="206" y="707" on="0"/>
        <pt x="218" y="707" on="1"/>
        <pt x="233" y="707" on="0"/>
        <pt x="242" y="696" on="1"/>
        <pt x="230" y="515" on="1"/>
        <pt x="229" y="505" on="0"/>
        <pt x="217" y="505" on="1"/>
        <pt x="208" y="505" on="0"/>
        <pt x="203" y="510" on="1"/>
        <pt x="191" y="685" on="1"/>
      </contour>
      <contour>
        <pt x="380" y="512" on="0"/>
        <pt x="392" y="496" on="0"/>
        <pt x="392" y="484" on="1"/>
        <pt x="392" y="467" on="0"/>
        <pt x="381" y="459" on="1"/>
        <pt x="253" y="470" on="1"/>
        <pt x="243" y="471" on="0"/>
        <pt x="243" y="484" on="1"/>
        <pt x="243" y="491" on="0"/>
        <pt x="247" y="498" on="1"/>
        <pt x="371" y="509" on="1"/>
      </contour>
      <contour>
        <pt x="52" y="459" on="0"/>
        <pt x="40" y="474" on="0"/>
        <pt x="40" y="484" on="1"/>
        <pt x="40" y="500" on="0"/>
        <pt x="51" y="510" on="1"/>
        <pt x="179" y="498" on="1"/>
        <pt x="191" y="497" on="0"/>
        <pt x="191" y="485" on="1"/>
        <pt x="191" y="478" on="0"/>
        <pt x="185" y="470" on="1"/>
        <pt x="61" y="460" on="1"/>
      </contour>
      <contour>
        <pt x="242" y="7" on="0"/>
        <pt x="226" y="-5" on="0"/>
        <pt x="216" y="-5" on="1"/>
        <pt x="199" y="-5" on="0"/>
        <pt x="191" y="6" on="1"/>
        <pt x="202" y="449" on="1"/>
        <pt x="204" y="461" on="0"/>
        <pt x="215" y="461" on="1"/>
        <pt x="224" y="461" on="0"/>
        <pt x="230" y="455" on="1"/>
        <pt x="241" y="16" on="1"/>
      </contour>
    </TTGlyph>
    <TTGlyph name="daggerdbl" xMin="40" yMin="-2" xMax="392" yMax="707">
      <contour>
        <pt x="190" y="695" on="0"/>
        <pt x="206" y="707" on="0"/>
        <pt x="218" y="707" on="1"/>
        <pt x="233" y="707" on="0"/>
        <pt x="242" y="696" on="1"/>
        <pt x="230" y="515" on="1"/>
        <pt x="229" y="505" on="0"/>
        <pt x="217" y="505" on="1"/>
        <pt x="208" y="505" on="0"/>
        <pt x="203" y="510" on="1"/>
        <pt x="191" y="685" on="1"/>
      </contour>
      <contour>
        <pt x="380" y="512" on="0"/>
        <pt x="392" y="496" on="0"/>
        <pt x="392" y="484" on="1"/>
        <pt x="392" y="467" on="0"/>
        <pt x="381" y="459" on="1"/>
        <pt x="253" y="470" on="1"/>
        <pt x="243" y="471" on="0"/>
        <pt x="243" y="484" on="1"/>
        <pt x="243" y="491" on="0"/>
        <pt x="247" y="498" on="1"/>
        <pt x="371" y="509" on="1"/>
      </contour>
      <contour>
        <pt x="52" y="459" on="0"/>
        <pt x="40" y="474" on="0"/>
        <pt x="40" y="484" on="1"/>
        <pt x="40" y="500" on="0"/>
        <pt x="51" y="510" on="1"/>
        <pt x="179" y="498" on="1"/>
        <pt x="191" y="497" on="0"/>
        <pt x="191" y="485" on="1"/>
        <pt x="191" y="478" on="0"/>
        <pt x="185" y="470" on="1"/>
        <pt x="61" y="460" on="1"/>
      </contour>
      <contour>
        <pt x="200" y="460" on="0"/>
        <pt x="216" y="460" on="1"/>
        <pt x="220" y="460" on="0"/>
        <pt x="232" y="456" on="1"/>
        <pt x="232" y="255" on="1"/>
        <pt x="232" y="240" on="0"/>
        <pt x="216" y="240" on="1"/>
        <pt x="209" y="240" on="0"/>
        <pt x="200" y="243" on="1"/>
        <pt x="200" y="444" on="1"/>
      </contour>
      <contour>
        <pt x="52" y="189" on="0"/>
        <pt x="40" y="205" on="0"/>
        <pt x="40" y="217" on="1"/>
        <pt x="40" y="234" on="0"/>
        <pt x="51" y="242" on="1"/>
        <pt x="179" y="231" on="1"/>
        <pt x="189" y="230" on="0"/>
        <pt x="189" y="217" on="1"/>
        <pt x="189" y="208" on="0"/>
        <pt x="185" y="203" on="1"/>
        <pt x="61" y="191" on="1"/>
      </contour>
      <contour>
        <pt x="379" y="242" on="0"/>
        <pt x="392" y="226" on="0"/>
        <pt x="392" y="216" on="1"/>
        <pt x="392" y="201" on="0"/>
        <pt x="381" y="191" on="1"/>
        <pt x="252" y="202" on="1"/>
        <pt x="241" y="205" on="0"/>
        <pt x="241" y="216" on="1"/>
        <pt x="241" y="223" on="0"/>
        <pt x="246" y="230" on="1"/>
        <pt x="370" y="241" on="1"/>
      </contour>
      <contour>
        <pt x="242" y="9" on="0"/>
        <pt x="226" y="-2" on="0"/>
        <pt x="214" y="-2" on="1"/>
        <pt x="198" y="-2" on="0"/>
        <pt x="190" y="9" on="1"/>
        <pt x="201" y="185" on="1"/>
        <pt x="204" y="196" on="0"/>
        <pt x="215" y="196" on="1"/>
        <pt x="224" y="196" on="0"/>
        <pt x="229" y="191" on="1"/>
        <pt x="240" y="19" on="1"/>
      </contour>
    </TTGlyph>
    <TTGlyph name="dcaron" xMin="43" yMin="-10" xMax="468" yMax="735">
      <contour>
        <pt x="301" y="728" on="0"/>
        <pt x="317" y="735" on="0"/>
        <pt x="346" y="735" on="1"/>
        <pt x="346" y="20" on="1"/>
        <pt x="290" y="-10" on="0"/>
        <pt x="206" y="-10" on="1"/>
        <pt x="154" y="-10" on="0"/>
        <pt x="85" y="24" on="0"/>
        <pt x="43" y="133" on="0"/>
        <pt x="43" y="238" on="1"/>
        <pt x="43" y="329" on="0"/>
        <pt x="89" y="451" on="0"/>
        <pt x="166" y="510" on="0"/>
        <pt x="215" y="510" on="1"/>
        <pt x="270" y="510" on="0"/>
        <pt x="301" y="487" on="1"/>
        <pt x="301" y="712" on="1"/>
      </contour>
      <contour>
        <pt x="397" y="680" on="0"/>
        <pt x="416" y="701" on="0"/>
        <pt x="432" y="701" on="1"/>
        <pt x="468" y="701" on="0"/>
        <pt x="468" y="657" on="1"/>
        <pt x="468" y="629" on="0"/>
        <pt x="447" y="550" on="0"/>
        <pt x="420" y="491" on="0"/>
        <pt x="412" y="491" on="1"/>
        <pt x="397" y="491" on="0"/>
        <pt x="392" y="507" on="1"/>
        <pt x="415" y="556" on="0"/>
        <pt x="415" y="628" on="1"/>
        <pt x="397" y="638" on="0"/>
        <pt x="397" y="664" on="1"/>
      </contour>
      <contour>
        <pt x="285" y="459" on="0"/>
        <pt x="253" y="469" on="0"/>
        <pt x="226" y="469" on="1"/>
        <pt x="167" y="469" on="0"/>
        <pt x="91" y="356" on="0"/>
        <pt x="91" y="241" on="1"/>
        <pt x="91" y="152" on="0"/>
        <pt x="120" y="61" on="0"/>
        <pt x="170" y="32" on="0"/>
        <pt x="211" y="32" on="1"/>
        <pt x="267" y="32" on="0"/>
        <pt x="301" y="53" on="1"/>
        <pt x="301" y="446" on="1"/>
      </contour>
    </TTGlyph>
    <TTGlyph name="dcroat" xMin="43" yMin="-10" xMax="429" yMax="735">
      <contour>
        <pt x="429" y="636" on="0"/>
        <pt x="429" y="623" on="1"/>
        <pt x="429" y="600" on="0"/>
        <pt x="411" y="600" on="1"/>
        <pt x="346" y="600" on="1"/>
        <pt x="346" y="20" on="1"/>
        <pt x="290" y="-10" on="0"/>
        <pt x="206" y="-10" on="1"/>
        <pt x="154" y="-10" on="0"/>
        <pt x="85" y="24" on="0"/>
        <pt x="43" y="133" on="0"/>
        <pt x="43" y="238" on="1"/>
        <pt x="43" y="329" on="0"/>
        <pt x="89" y="451" on="0"/>
        <pt x="166" y="510" on="0"/>
        <pt x="215" y="510" on="1"/>
        <pt x="270" y="510" on="0"/>
        <pt x="301" y="487" on="1"/>
        <pt x="301" y="600" on="1"/>
        <pt x="181" y="600" on="1"/>
        <pt x="178" y="608" on="0"/>
        <pt x="178" y="622" on="1"/>
        <pt x="180" y="644" on="0"/>
        <pt x="197" y="644" on="1"/>
        <pt x="301" y="644" on="1"/>
        <pt x="301" y="712" on="1"/>
        <pt x="301" y="728" on="0"/>
        <pt x="317" y="735" on="0"/>
        <pt x="346" y="735" on="1"/>
        <pt x="346" y="644" on="1"/>
        <pt x="426" y="644" on="1"/>
      </contour>
      <contour>
        <pt x="285" y="459" on="0"/>
        <pt x="253" y="469" on="0"/>
        <pt x="226" y="469" on="1"/>
        <pt x="167" y="469" on="0"/>
        <pt x="91" y="356" on="0"/>
        <pt x="91" y="241" on="1"/>
        <pt x="91" y="152" on="0"/>
        <pt x="120" y="61" on="0"/>
        <pt x="170" y="32" on="0"/>
        <pt x="211" y="32" on="1"/>
        <pt x="267" y="32" on="0"/>
        <pt x="301" y="53" on="1"/>
        <pt x="301" y="446" on="1"/>
      </contour>
    </TTGlyph>
    <TTGlyph name="degree" xMin="102" yMin="565" xMax="277" yMax="742">
      <contour>
        <pt x="102" y="697" on="0"/>
        <pt x="150" y="742" on="0"/>
        <pt x="193" y="742" on="1"/>
        <pt x="236" y="742" on="0"/>
        <pt x="277" y="702" on="0"/>
        <pt x="277" y="654" on="1"/>
        <pt x="277" y="611" on="0"/>
        <pt x="230" y="565" on="0"/>
        <pt x="187" y="565" on="1"/>
        <pt x="144" y="565" on="0"/>
        <pt x="102" y="602" on="0"/>
        <pt x="102" y="653" on="1"/>
      </contour>
      <contour>
        <pt x="137" y="600" on="0"/>
        <pt x="187" y="600" on="1"/>
        <pt x="242" y="600" on="0"/>
        <pt x="242" y="654" on="1"/>
        <pt x="242" y="684" on="0"/>
        <pt x="218" y="708" on="0"/>
        <pt x="194" y="708" on="1"/>
        <pt x="166" y="708" on="0"/>
        <pt x="137" y="682" on="0"/>
        <pt x="137" y="651" on="1"/>
      </contour>
    </TTGlyph>
    <TTGlyph name="dieresis" xMin="48" yMin="599" xMax="209" yMax="677">
      <contour>
        <pt x="103" y="677" on="0"/>
        <pt x="103" y="641" on="1"/>
        <pt x="103" y="599" on="0"/>
        <pt x="74" y="599" on="1"/>
        <pt x="48" y="599" on="0"/>
        <pt x="48" y="635" on="1"/>
        <pt x="48" y="677" on="0"/>
        <pt x="77" y="677" on="1"/>
      </contour>
      <contour>
        <pt x="209" y="677" on="0"/>
        <pt x="209" y="642" on="1"/>
        <pt x="209" y="599" on="0"/>
        <pt x="181" y="599" on="1"/>
        <pt x="155" y="599" on="0"/>
        <pt x="155" y="635" on="1"/>
        <pt x="155" y="677" on="0"/>
        <pt x="184" y="677" on="1"/>
      </contour>
    </TTGlyph>
    <TTGlyph name="divide" xMin="45" yMin="106" xMax="395" yMax="452">
      <contour>
        <pt x="181" y="430" on="0"/>
        <pt x="200" y="452" on="0"/>
        <pt x="216" y="452" on="1"/>
        <pt x="234" y="452" on="0"/>
        <pt x="253" y="431" on="0"/>
        <pt x="253" y="414" on="1"/>
        <pt x="253" y="398" on="0"/>
        <pt x="232" y="376" on="0"/>
        <pt x="216" y="376" on="1"/>
        <pt x="181" y="376" on="0"/>
        <pt x="181" y="414" on="1"/>
      </contour>
      <contour>
        <pt x="45" y="287" on="0"/>
        <pt x="49" y="302" on="0"/>
        <pt x="57" y="302" on="1"/>
        <pt x="395" y="302" on="1"/>
        <pt x="395" y="276" on="0"/>
        <pt x="391" y="261" on="0"/>
        <pt x="383" y="261" on="1"/>
        <pt x="45" y="261" on="1"/>
      </contour>
      <contour>
        <pt x="181" y="160" on="0"/>
        <pt x="200" y="182" on="0"/>
        <pt x="216" y="182" on="1"/>
        <pt x="233" y="182" on="0"/>
        <pt x="253" y="160" on="0"/>
        <pt x="253" y="144" on="1"/>
        <pt x="253" y="127" on="0"/>
        <pt x="232" y="106" on="0"/>
        <pt x="216" y="106" on="1"/>
        <pt x="181" y="106" on="0"/>
        <pt x="181" y="144" on="1"/>
      </contour>
    </TTGlyph>
    <TTGlyph name="divisionslash" xMin="-116" yMin="-9" xMax="350" yMax="710">
      <component glyphName=".ttfautohint" x="0" y="0" flags="0x0"/>
      <component glyphName="fraction" x="0" y="0" flags="0x1000"/>
    </TTGlyph>
    <TTGlyph name="dollar" xMin="71" yMin="-121" xMax="369" yMax="736">
      <contour>
        <pt x="338" y="261" on="0"/>
        <pt x="369" y="195" on="0"/>
        <pt x="369" y="153" on="1"/>
        <pt x="369" y="11" on="0"/>
        <pt x="234" y="-5" on="1"/>
        <pt x="234" y="-100" on="1"/>
        <pt x="234" y="-113" on="0"/>
        <pt x="217" y="-121" on="0"/>
        <pt x="194" y="-121" on="1"/>
        <pt x="194" y="-7" on="1"/>
        <pt x="155" y="-7" on="0"/>
        <pt x="99" y="9" on="0"/>
        <pt x="71" y="28" on="0"/>
        <pt x="71" y="34" on="1"/>
        <pt x="71" y="40" on="0"/>
        <pt x="81" y="63" on="0"/>
        <pt x="88" y="68" on="1"/>
        <pt x="125" y="37" on="0"/>
        <pt x="200" y="37" on="1"/>
        <pt x="322" y="37" on="0"/>
        <pt x="322" y="154" on="1"/>
        <pt x="322" y="188" on="0"/>
        <pt x="291" y="245" on="0"/>
        <pt x="251" y="282" on="1"/>
        <pt x="139" y="384" on="1"/>
        <pt x="74" y="446" on="0"/>
        <pt x="74" y="500" on="1"/>
        <pt x="74" y="549" on="0"/>
        <pt x="145" y="611" on="0"/>
        <pt x="208" y="616" on="1"/>
        <pt x="208" y="715" on="1"/>
        <pt x="208" y="728" on="0"/>
        <pt x="226" y="736" on="0"/>
        <pt x="249" y="736" on="1"/>
        <pt x="249" y="617" on="1"/>
        <pt x="284" y="616" on="0"/>
        <pt x="333" y="603" on="0"/>
        <pt x="358" y="588" on="0"/>
        <pt x="358" y="585" on="1"/>
        <pt x="358" y="578" on="0"/>
        <pt x="351" y="557" on="0"/>
        <pt x="345" y="551" on="1"/>
        <pt x="309" y="576" on="0"/>
        <pt x="237" y="576" on="1"/>
        <pt x="121" y="576" on="0"/>
        <pt x="121" y="499" on="1"/>
        <pt x="121" y="461" on="0"/>
        <pt x="176" y="408" on="1"/>
        <pt x="300" y="296" on="1"/>
      </contour>
    </TTGlyph>
    <TTGlyph name="dotaccent" xMin="101" yMin="598" xMax="157" yMax="678">
      <contour>
        <pt x="101" y="678" on="0"/>
        <pt x="130" y="678" on="1"/>
        <pt x="157" y="678" on="0"/>
        <pt x="157" y="642" on="1"/>
        <pt x="157" y="598" on="0"/>
        <pt x="127" y="598" on="1"/>
        <pt x="101" y="598" on="0"/>
        <pt x="101" y="635" on="1"/>
      </contour>
    </TTGlyph>
    <TTGlyph name="dotlessi" xMin="62" yMin="0" xMax="107" yMax="500">
      <contour>
        <pt x="107" y="5" on="0"/>
        <pt x="103" y="1" on="0"/>
        <pt x="81" y="0" on="0"/>
        <pt x="62" y="0" on="1"/>
        <pt x="62" y="477" on="1"/>
        <pt x="62" y="493" on="0"/>
        <pt x="78" y="500" on="0"/>
        <pt x="107" y="500" on="1"/>
        <pt x="107" y="12" on="1"/>
      </contour>
    </TTGlyph>
    <TTGlyph name="dotlessj" xMin="-117" yMin="-195" xMax="113" yMax="500">
      <contour>
        <pt x="113" y="-114" on="0"/>
        <pt x="63" y="-195" on="0"/>
        <pt x="-7" y="-195" on="1"/>
        <pt x="-57" y="-195" on="0"/>
        <pt x="-117" y="-168" on="0"/>
        <pt x="-117" y="-151" on="1"/>
        <pt x="-117" y="-136" on="0"/>
        <pt x="-109" y="-124" on="1"/>
        <pt x="-66" y="-152" on="0"/>
        <pt x="-9" y="-152" on="1"/>
        <pt x="24" y="-152" on="0"/>
        <pt x="58" y="-125" on="0"/>
        <pt x="69" y="-72" on="0"/>
        <pt x="69" y="-26" on="1"/>
        <pt x="69" y="477" on="1"/>
        <pt x="69" y="493" on="0"/>
        <pt x="84" y="500" on="0"/>
        <pt x="113" y="500" on="1"/>
        <pt x="113" y="-37" on="1"/>
      </contour>
    </TTGlyph>
    <TTGlyph name="e" xMin="41" yMin="-10" xMax="345" yMax="510">
      <contour>
        <pt x="286" y="34" on="0"/>
        <pt x="335" y="69" on="1"/>
        <pt x="341" y="53" on="0"/>
        <pt x="341" y="37" on="1"/>
        <pt x="341" y="27" on="0"/>
        <pt x="303" y="4" on="0"/>
        <pt x="241" y="-10" on="0"/>
        <pt x="206" y="-10" on="1"/>
        <pt x="152" y="-10" on="0"/>
        <pt x="82" y="24" on="0"/>
        <pt x="41" y="126" on="0"/>
        <pt x="41" y="222" on="1"/>
        <pt x="41" y="343" on="0"/>
        <pt x="93" y="470" on="0"/>
        <pt x="170" y="510" on="0"/>
        <pt x="220" y="510" on="1"/>
        <pt x="345" y="510" on="0"/>
        <pt x="345" y="352" on="1"/>
        <pt x="345" y="279" on="0"/>
        <pt x="337" y="236" on="1"/>
        <pt x="229" y="216" on="0"/>
        <pt x="86" y="219" on="1"/>
        <pt x="86" y="141" on="0"/>
        <pt x="117" y="61" on="0"/>
        <pt x="170" y="34" on="0"/>
        <pt x="212" y="34" on="1"/>
      </contour>
      <contour>
        <pt x="183" y="469" on="0"/>
        <pt x="130" y="440" on="0"/>
        <pt x="91" y="347" on="0"/>
        <pt x="87" y="258" on="1"/>
        <pt x="224" y="255" on="0"/>
        <pt x="297" y="272" on="1"/>
        <pt x="301" y="305" on="0"/>
        <pt x="301" y="341" on="1"/>
        <pt x="300" y="407" on="0"/>
        <pt x="264" y="469" on="0"/>
        <pt x="217" y="469" on="1"/>
      </contour>
    </TTGlyph>
    <TTGlyph name="eacute" xMin="41" yMin="-10" xMax="345" yMax="716">
      <component glyphName=".ttfautohint" x="41" y="0" flags="0x0"/>
      <component glyphName="e" x="0" y="0" flags="0x1000"/>
      <component glyphName="acute" x="63" y="0" flags="0x1000"/>
    </TTGlyph>
    <TTGlyph name="ecaron" xMin="41" yMin="-10" xMax="345" yMax="720">
      <component glyphName=".ttfautohint" x="41" y="0" flags="0x0"/>
      <component glyphName="e" x="0" y="0" flags="0x1000"/>
      <component glyphName="caron" x="61" y="0" flags="0x1000"/>
    </TTGlyph>
    <TTGlyph name="ecircumflex" xMin="41" yMin="-10" xMax="345" yMax="703">
      <component glyphName=".ttfautohint" x="41" y="0" flags="0x0"/>
      <component glyphName="e" x="0" y="0" flags="0x1000"/>
      <component glyphName="circumflex" x="61" y="0" flags="0x1000"/>
    </TTGlyph>
    <TTGlyph name="edieresis" xMin="41" yMin="-10" xMax="345" yMax="677">
      <component glyphName=".ttfautohint" x="41" y="0" flags="0x0"/>
      <component glyphName="e" x="0" y="0" flags="0x1000"/>
      <component glyphName="dieresis" x="61" y="0" flags="0x1000"/>
    </TTGlyph>
    <TTGlyph name="edotaccent" xMin="41" yMin="-10" xMax="345" yMax="678">
      <component glyphName=".ttfautohint" x="41" y="0" flags="0x0"/>
      <component glyphName="e" x="0" y="0" flags="0x1000"/>
      <component glyphName="dotaccent" x="61" y="0" flags="0x1000"/>
    </TTGlyph>
    <TTGlyph name="egrave" xMin="41" yMin="-10" xMax="345" yMax="713">
      <component glyphName=".ttfautohint" x="41" y="0" flags="0x0"/>
      <component glyphName="e" x="0" y="0" flags="0x1000"/>
      <component glyphName="grave" x="63" y="0" flags="0x1000"/>
    </TTGlyph>
    <TTGlyph name="eight" xMin="43" yMin="-9" xMax="403" yMax="706">
      <contour>
        <pt x="368" y="299" on="0"/>
        <pt x="403" y="230" on="0"/>
        <pt x="403" y="181" on="1"/>
        <pt x="403" y="93" on="0"/>
        <pt x="314" y="-9" on="0"/>
        <pt x="229" y="-9" on="1"/>
        <pt x="136" y="-9" on="0"/>
        <pt x="43" y="94" on="0"/>
        <pt x="43" y="181" on="1"/>
        <pt x="43" y="246" on="0"/>
        <pt x="118" y="352" on="0"/>
        <pt x="175" y="378" on="1"/>
        <pt x="126" y="404" on="0"/>
        <pt x="110" y="418" on="1"/>
        <pt x="80" y="439" on="0"/>
        <pt x="50" y="503" on="0"/>
        <pt x="50" y="538" on="1"/>
        <pt x="50" y="620" on="0"/>
        <pt x="149" y="706" on="0"/>
        <pt x="222" y="706" on="1"/>
        <pt x="395" y="706" on="0"/>
        <pt x="395" y="545" on="1"/>
        <pt x="395" y="443" on="0"/>
        <pt x="270" y="373" on="1"/>
        <pt x="310" y="350" on="0"/>
        <pt x="335" y="328" on="1"/>
      </contour>
      <contour>
        <pt x="94" y="478" on="0"/>
        <pt x="155" y="436" on="1"/>
        <pt x="168" y="425" on="0"/>
        <pt x="227" y="396" on="1"/>
        <pt x="282" y="421" on="0"/>
        <pt x="353" y="496" on="0"/>
        <pt x="353" y="543" on="1"/>
        <pt x="353" y="611" on="0"/>
        <pt x="278" y="663" on="0"/>
        <pt x="226" y="663" on="1"/>
        <pt x="170" y="663" on="0"/>
        <pt x="94" y="602" on="0"/>
        <pt x="94" y="541" on="1"/>
      </contour>
      <contour>
        <pt x="290" y="34" on="0"/>
        <pt x="360" y="114" on="0"/>
        <pt x="360" y="181" on="1"/>
        <pt x="360" y="224" on="0"/>
        <pt x="326" y="282" on="0"/>
        <pt x="296" y="307" on="1"/>
        <pt x="273" y="328" on="0"/>
        <pt x="222" y="355" on="1"/>
        <pt x="164" y="335" on="0"/>
        <pt x="86" y="241" on="0"/>
        <pt x="86" y="182" on="1"/>
        <pt x="86" y="116" on="0"/>
        <pt x="159" y="34" on="0"/>
        <pt x="227" y="34" on="1"/>
      </contour>
    </TTGlyph>
    <TTGlyph name="ellipsis" xMin="47" yMin="-5" xMax="427" yMax="76">
      <component glyphName=".ttfautohint" x="47" y="0" flags="0x0"/>
      <component glyphName="period" x="-7" y="0" flags="0x1000"/>
      <component glyphName="period" x="145" y="0" flags="0x1000"/>
      <component glyphName="period" x="297" y="0" flags="0x1000"/>
    </TTGlyph>
    <TTGlyph name="emacron" xMin="41" yMin="-10" xMax="345" yMax="654">
      <component glyphName=".ttfautohint" x="41" y="0" flags="0x0"/>
      <component glyphName="e" x="0" y="0" flags="0x1000"/>
      <component glyphName="macron" x="61" y="0" flags="0x1000"/>
    </TTGlyph>
    <TTGlyph name="emdash" xMin="6" yMin="261" xMax="694" yMax="302">
      <contour>
        <pt x="6" y="287" on="0"/>
        <pt x="10" y="302" on="0"/>
        <pt x="18" y="302" on="1"/>
        <pt x="694" y="302" on="1"/>
        <pt x="694" y="276" on="0"/>
        <pt x="690" y="261" on="0"/>
        <pt x="682" y="261" on="1"/>
        <pt x="6" y="261" on="1"/>
      </contour>
    </TTGlyph>
    <TTGlyph name="endash" xMin="45" yMin="261" xMax="395" yMax="302">
      <contour>
        <pt x="45" y="287" on="0"/>
        <pt x="49" y="302" on="0"/>
        <pt x="58" y="302" on="1"/>
        <pt x="395" y="302" on="1"/>
        <pt x="395" y="276" on="0"/>
        <pt x="391" y="261" on="0"/>
        <pt x="383" y="261" on="1"/>
        <pt x="45" y="261" on="1"/>
      </contour>
    </TTGlyph>
    <TTGlyph name="eogonek" xMin="41" yMin="-195" xMax="345" yMax="510">
      <contour>
        <pt x="345" y="510" on="0"/>
        <pt x="345" y="352" on="1"/>
        <pt x="345" y="279" on="0"/>
        <pt x="337" y="236" on="1"/>
        <pt x="248" y="219" on="0"/>
        <pt x="87" y="219" on="1"/>
        <pt x="87" y="139" on="0"/>
        <pt x="118" y="59" on="0"/>
        <pt x="171" y="34" on="0"/>
        <pt x="212" y="34" on="1"/>
        <pt x="286" y="34" on="0"/>
        <pt x="335" y="69" on="1"/>
        <pt x="341" y="53" on="0"/>
        <pt x="341" y="37" on="1"/>
        <pt x="341" y="30" on="0"/>
        <pt x="325" y="17" on="1"/>
        <pt x="299" y="-3" on="0"/>
        <pt x="260" y="-76" on="0"/>
        <pt x="260" y="-111" on="1"/>
        <pt x="260" y="-158" on="0"/>
        <pt x="302" y="-158" on="1"/>
        <pt x="319" y="-158" on="0"/>
        <pt x="334" y="-150" on="1"/>
        <pt x="337" y="-154" on="0"/>
        <pt x="340" y="-165" on="1"/>
        <pt x="341" y="-172" on="0"/>
        <pt x="340" y="-176" on="1"/>
        <pt x="337" y="-195" on="0"/>
        <pt x="293" y="-195" on="1"/>
        <pt x="219" y="-195" on="0"/>
        <pt x="219" y="-115" on="1"/>
        <pt x="219" y="-57" on="0"/>
        <pt x="260" y="-3" on="1"/>
        <pt x="232" y="-10" on="0"/>
        <pt x="205" y="-10" on="1"/>
        <pt x="152" y="-10" on="0"/>
        <pt x="82" y="25" on="0"/>
        <pt x="41" y="126" on="0"/>
        <pt x="41" y="222" on="1"/>
        <pt x="41" y="343" on="0"/>
        <pt x="93" y="470" on="0"/>
        <pt x="170" y="510" on="0"/>
        <pt x="220" y="510" on="1"/>
      </contour>
      <contour>
        <pt x="183" y="469" on="0"/>
        <pt x="130" y="441" on="0"/>
        <pt x="90" y="348" on="0"/>
        <pt x="87" y="258" on="1"/>
        <pt x="234" y="258" on="0"/>
        <pt x="297" y="272" on="1"/>
        <pt x="301" y="305" on="0"/>
        <pt x="301" y="341" on="1"/>
        <pt x="300" y="407" on="0"/>
        <pt x="264" y="469" on="0"/>
        <pt x="217" y="469" on="1"/>
      </contour>
    </TTGlyph>
    <TTGlyph name="equal" xMin="45" yMin="176" xMax="395" yMax="387">
      <contour>
        <pt x="45" y="372" on="0"/>
        <pt x="49" y="387" on="0"/>
        <pt x="57" y="387" on="1"/>
        <pt x="395" y="387" on="1"/>
        <pt x="395" y="361" on="0"/>
        <pt x="391" y="345" on="0"/>
        <pt x="383" y="345" on="1"/>
        <pt x="45" y="345" on="1"/>
      </contour>
      <contour>
        <pt x="45" y="203" on="0"/>
        <pt x="49" y="218" on="0"/>
        <pt x="57" y="218" on="1"/>
        <pt x="395" y="218" on="1"/>
        <pt x="395" y="191" on="0"/>
        <pt x="391" y="176" on="0"/>
        <pt x="383" y="176" on="1"/>
        <pt x="45" y="176" on="1"/>
      </contour>
    </TTGlyph>
    <TTGlyph name="estimated" xMin="70" yMin="18" xMax="740" yMax="621">
      <contour>
        <pt x="192" y="312" on="0"/>
        <pt x="192" y="308" on="1"/>
        <pt x="192" y="144" on="1"/>
        <pt x="192" y="135" on="0"/>
        <pt x="200" y="125" on="1"/>
        <pt x="239" y="83" on="0"/>
        <pt x="346" y="36" on="0"/>
        <pt x="406" y="36" on="1"/>
        <pt x="469" y="36" on="0"/>
        <pt x="582" y="89" on="0"/>
        <pt x="621" y="135" on="1"/>
        <pt x="670" y="135" on="1"/>
        <pt x="624" y="81" on="0"/>
        <pt x="484" y="18" on="0"/>
        <pt x="405" y="18" on="1"/>
        <pt x="314" y="18" on="0"/>
        <pt x="160" y="99" on="0"/>
        <pt x="70" y="237" on="0"/>
        <pt x="70" y="319" on="1"/>
        <pt x="70" y="401" on="0"/>
        <pt x="160" y="540" on="0"/>
        <pt x="314" y="621" on="0"/>
        <pt x="405" y="621" on="1"/>
        <pt x="496" y="621" on="0"/>
        <pt x="650" y="540" on="0"/>
        <pt x="740" y="401" on="0"/>
        <pt x="740" y="319" on="1"/>
        <pt x="740" y="312" on="1"/>
        <pt x="197" y="312" on="1"/>
      </contour>
      <contour>
        <pt x="618" y="509" on="0"/>
        <pt x="609" y="518" on="1"/>
        <pt x="569" y="558" on="0"/>
        <pt x="464" y="603" on="0"/>
        <pt x="406" y="603" on="1"/>
        <pt x="347" y="603" on="0"/>
        <pt x="241" y="556" on="0"/>
        <pt x="201" y="515" on="1"/>
        <pt x="192" y="506" on="0"/>
        <pt x="192" y="495" on="1"/>
        <pt x="192" y="333" on="1"/>
        <pt x="192" y="328" on="0"/>
        <pt x="197" y="328" on="1"/>
        <pt x="613" y="328" on="1"/>
        <pt x="618" y="328" on="0"/>
        <pt x="618" y="333" on="1"/>
        <pt x="618" y="498" on="1"/>
      </contour>
    </TTGlyph>
    <TTGlyph name="eth" xMin="41" yMin="-10" xMax="397" yMax="743">
      <contour>
        <pt x="397" y="519" on="0"/>
        <pt x="397" y="289" on="1"/>
        <pt x="397" y="150" on="0"/>
        <pt x="324" y="-10" on="0"/>
        <pt x="222" y="-10" on="1"/>
        <pt x="131" y="-10" on="0"/>
        <pt x="41" y="117" on="0"/>
        <pt x="41" y="256" on="1"/>
        <pt x="41" y="379" on="0"/>
        <pt x="132" y="508" on="0"/>
        <pt x="216" y="508" on="1"/>
        <pt x="294" y="508" on="0"/>
        <pt x="334" y="459" on="1"/>
        <pt x="310" y="560" on="0"/>
        <pt x="249" y="632" on="1"/>
        <pt x="153" y="594" on="1"/>
        <pt x="142" y="621" on="0"/>
        <pt x="142" y="628" on="1"/>
        <pt x="142" y="634" on="0"/>
        <pt x="149" y="638" on="1"/>
        <pt x="218" y="665" on="1"/>
        <pt x="195" y="690" on="0"/>
        <pt x="151" y="721" on="1"/>
        <pt x="160" y="743" on="0"/>
        <pt x="182" y="743" on="1"/>
        <pt x="192" y="743" on="0"/>
        <pt x="201" y="736" on="1"/>
        <pt x="232" y="713" on="0"/>
        <pt x="262" y="683" on="1"/>
        <pt x="341" y="714" on="1"/>
        <pt x="352" y="686" on="0"/>
        <pt x="352" y="680" on="1"/>
        <pt x="352" y="674" on="0"/>
        <pt x="345" y="671" on="1"/>
        <pt x="292" y="649" on="1"/>
      </contour>
      <contour>
        <pt x="276" y="30" on="0"/>
        <pt x="334" y="102" on="0"/>
        <pt x="352" y="215" on="0"/>
        <pt x="352" y="295" on="1"/>
        <pt x="352" y="340" on="0"/>
        <pt x="347" y="390" on="1"/>
        <pt x="301" y="467" on="0"/>
        <pt x="224" y="467" on="1"/>
        <pt x="158" y="467" on="0"/>
        <pt x="86" y="355" on="0"/>
        <pt x="86" y="252" on="1"/>
        <pt x="86" y="30" on="0"/>
        <pt x="221" y="30" on="1"/>
      </contour>
    </TTGlyph>
    <TTGlyph name="exclam" xMin="55" yMin="-5" xMax="132" yMax="707">
      <contour>
        <pt x="67" y="703" on="0"/>
        <pt x="89" y="707" on="0"/>
        <pt x="123" y="707" on="1"/>
        <pt x="117" y="203" on="1"/>
        <pt x="116" y="190" on="0"/>
        <pt x="95" y="182" on="0"/>
        <pt x="67" y="182" on="1"/>
        <pt x="67" y="694" on="1"/>
      </contour>
      <contour>
        <pt x="55" y="52" on="0"/>
        <pt x="76" y="76" on="0"/>
        <pt x="93" y="76" on="1"/>
        <pt x="111" y="76" on="0"/>
        <pt x="132" y="53" on="0"/>
        <pt x="132" y="35" on="1"/>
        <pt x="132" y="18" on="0"/>
        <pt x="110" y="-5" on="0"/>
        <pt x="93" y="-5" on="1"/>
        <pt x="55" y="-5" on="0"/>
        <pt x="55" y="35" on="1"/>
      </contour>
    </TTGlyph>
    <TTGlyph name="exclamdown" xMin="57" yMin="-198" xMax="133" yMax="509">
      <contour>
        <pt x="133" y="452" on="0"/>
        <pt x="113" y="428" on="0"/>
        <pt x="96" y="428" on="1"/>
        <pt x="77" y="428" on="0"/>
        <pt x="57" y="450" on="0"/>
        <pt x="57" y="468" on="1"/>
        <pt x="57" y="486" on="0"/>
        <pt x="78" y="509" on="0"/>
        <pt x="96" y="509" on="1"/>
        <pt x="133" y="509" on="0"/>
        <pt x="133" y="468" on="1"/>
      </contour>
      <contour>
        <pt x="122" y="-194" on="0"/>
        <pt x="99" y="-198" on="0"/>
        <pt x="66" y="-198" on="1"/>
        <pt x="72" y="305" on="1"/>
        <pt x="72" y="318" on="0"/>
        <pt x="93" y="326" on="0"/>
        <pt x="121" y="326" on="1"/>
        <pt x="121" y="-185" on="1"/>
      </contour>
    </TTGlyph>
    <TTGlyph name="f" xMin="15" yMin="0" xMax="339" yMax="740">
      <contour>
        <pt x="15" y="476" on="0"/>
        <pt x="16" y="495" on="0"/>
        <pt x="22" y="500" on="0"/>
        <pt x="29" y="500" on="1"/>
        <pt x="94" y="500" on="1"/>
        <pt x="94" y="565" on="1"/>
        <pt x="94" y="740" on="0"/>
        <pt x="255" y="740" on="1"/>
        <pt x="297" y="740" on="0"/>
        <pt x="339" y="724" on="0"/>
        <pt x="339" y="712" on="1"/>
        <pt x="339" y="699" on="0"/>
        <pt x="334" y="686" on="1"/>
        <pt x="298" y="698" on="0"/>
        <pt x="259" y="698" on="1"/>
        <pt x="205" y="698" on="0"/>
        <pt x="139" y="646" on="0"/>
        <pt x="139" y="564" on="1"/>
        <pt x="139" y="500" on="1"/>
        <pt x="249" y="500" on="1"/>
        <pt x="249" y="472" on="0"/>
        <pt x="246" y="460" on="0"/>
        <pt x="237" y="460" on="1"/>
        <pt x="139" y="460" on="1"/>
        <pt x="139" y="12" on="1"/>
        <pt x="139" y="0" on="0"/>
        <pt x="127" y="0" on="1"/>
        <pt x="94" y="0" on="1"/>
        <pt x="94" y="460" on="1"/>
        <pt x="15" y="460" on="1"/>
      </contour>
    </TTGlyph>
    <TTGlyph name="f.ss02" xMin="14" yMin="0" xMax="263" yMax="738">
      <contour>
        <pt x="14" y="476" on="0"/>
        <pt x="15" y="495" on="0"/>
        <pt x="21" y="500" on="0"/>
        <pt x="28" y="500" on="1"/>
        <pt x="93" y="500" on="1"/>
        <pt x="93" y="624" on="1"/>
        <pt x="93" y="738" on="0"/>
        <pt x="199" y="738" on="1"/>
        <pt x="263" y="738" on="0"/>
        <pt x="263" y="712" on="1"/>
        <pt x="263" y="701" on="0"/>
        <pt x="258" y="688" on="1"/>
        <pt x="236" y="698" on="0"/>
        <pt x="204" y="698" on="1"/>
        <pt x="173" y="698" on="0"/>
        <pt x="138" y="666" on="0"/>
        <pt x="138" y="617" on="1"/>
        <pt x="138" y="500" on="1"/>
        <pt x="248" y="500" on="1"/>
        <pt x="248" y="472" on="0"/>
        <pt x="245" y="460" on="0"/>
        <pt x="236" y="460" on="1"/>
        <pt x="138" y="460" on="1"/>
        <pt x="138" y="12" on="1"/>
        <pt x="138" y="9" on="0"/>
        <pt x="134" y="0" on="0"/>
        <pt x="126" y="0" on="1"/>
        <pt x="93" y="0" on="1"/>
        <pt x="93" y="460" on="1"/>
        <pt x="14" y="460" on="1"/>
      </contour>
    </TTGlyph>
    <TTGlyph name="f_f" xMin="15" yMin="0" xMax="557" yMax="740">
      <contour>
        <pt x="94" y="735" on="0"/>
        <pt x="250" y="735" on="1"/>
        <pt x="306" y="735" on="0"/>
        <pt x="356" y="702" on="1"/>
        <pt x="394" y="740" on="0"/>
        <pt x="473" y="740" on="1"/>
        <pt x="557" y="740" on="0"/>
        <pt x="557" y="709" on="1"/>
        <pt x="557" y="702" on="0"/>
        <pt x="551" y="686" on="1"/>
        <pt x="515" y="698" on="0"/>
        <pt x="476" y="698" on="1"/>
        <pt x="422" y="698" on="0"/>
        <pt x="357" y="646" on="0"/>
        <pt x="357" y="564" on="1"/>
        <pt x="357" y="500" on="1"/>
        <pt x="467" y="500" on="1"/>
        <pt x="467" y="472" on="0"/>
        <pt x="463" y="460" on="0"/>
        <pt x="454" y="460" on="1"/>
        <pt x="357" y="460" on="1"/>
        <pt x="357" y="12" on="1"/>
        <pt x="357" y="9" on="0"/>
        <pt x="352" y="0" on="0"/>
        <pt x="344" y="0" on="1"/>
        <pt x="312" y="0" on="1"/>
        <pt x="312" y="460" on="1"/>
        <pt x="139" y="460" on="1"/>
        <pt x="139" y="12" on="1"/>
        <pt x="139" y="9" on="0"/>
        <pt x="135" y="0" on="0"/>
        <pt x="127" y="0" on="1"/>
        <pt x="94" y="0" on="1"/>
        <pt x="94" y="460" on="1"/>
        <pt x="15" y="460" on="1"/>
        <pt x="15" y="476" on="0"/>
        <pt x="16" y="495" on="0"/>
        <pt x="22" y="500" on="0"/>
        <pt x="29" y="500" on="1"/>
        <pt x="94" y="500" on="1"/>
        <pt x="94" y="575" on="1"/>
      </contour>
      <contour>
        <pt x="312" y="626" on="0"/>
        <pt x="332" y="668" on="1"/>
        <pt x="301" y="694" on="0"/>
        <pt x="245" y="694" on="1"/>
        <pt x="139" y="694" on="0"/>
        <pt x="139" y="576" on="1"/>
        <pt x="139" y="500" on="1"/>
        <pt x="262" y="500" on="1"/>
        <pt x="312" y="500" on="1"/>
        <pt x="312" y="565" on="1"/>
      </contour>
    </TTGlyph>
    <TTGlyph name="f_f_i" xMin="16" yMin="0" xMax="574" yMax="740">
      <contour>
        <pt x="95" y="735" on="0"/>
        <pt x="251" y="735" on="1"/>
        <pt x="307" y="735" on="0"/>
        <pt x="355" y="703" on="1"/>
        <pt x="392" y="740" on="0"/>
        <pt x="478" y="740" on="1"/>
        <pt x="522" y="740" on="0"/>
        <pt x="574" y="722" on="0"/>
        <pt x="574" y="708" on="1"/>
        <pt x="574" y="697" on="0"/>
        <pt x="568" y="681" on="1"/>
        <pt x="526" y="698" on="0"/>
        <pt x="477" y="698" on="1"/>
        <pt x="442" y="698" on="0"/>
        <pt x="391" y="681" on="0"/>
        <pt x="357" y="621" on="0"/>
        <pt x="357" y="563" on="1"/>
        <pt x="357" y="500" on="1"/>
        <pt x="447" y="500" on="1"/>
        <pt x="447" y="472" on="0"/>
        <pt x="444" y="460" on="0"/>
        <pt x="435" y="460" on="1"/>
        <pt x="357" y="460" on="1"/>
        <pt x="357" y="12" on="1"/>
        <pt x="357" y="9" on="0"/>
        <pt x="353" y="0" on="0"/>
        <pt x="345" y="0" on="1"/>
        <pt x="312" y="0" on="1"/>
        <pt x="312" y="460" on="1"/>
        <pt x="140" y="460" on="1"/>
        <pt x="140" y="12" on="1"/>
        <pt x="140" y="9" on="0"/>
        <pt x="135" y="0" on="0"/>
        <pt x="127" y="0" on="1"/>
        <pt x="95" y="0" on="1"/>
        <pt x="95" y="460" on="1"/>
        <pt x="16" y="460" on="1"/>
        <pt x="16" y="476" on="0"/>
        <pt x="17" y="495" on="0"/>
        <pt x="23" y="500" on="0"/>
        <pt x="30" y="500" on="1"/>
        <pt x="95" y="500" on="1"/>
        <pt x="95" y="575" on="1"/>
      </contour>
      <contour>
        <pt x="312" y="627" on="0"/>
        <pt x="332" y="669" on="1"/>
        <pt x="299" y="694" on="0"/>
        <pt x="246" y="694" on="1"/>
        <pt x="140" y="694" on="0"/>
        <pt x="140" y="576" on="1"/>
        <pt x="140" y="500" on="1"/>
        <pt x="312" y="500" on="1"/>
        <pt x="312" y="565" on="1"/>
      </contour>
      <contour>
        <pt x="557" y="5" on="0"/>
        <pt x="553" y="1" on="0"/>
        <pt x="530" y="0" on="0"/>
        <pt x="511" y="0" on="1"/>
        <pt x="511" y="477" on="1"/>
        <pt x="511" y="493" on="0"/>
        <pt x="527" y="500" on="0"/>
        <pt x="557" y="500" on="1"/>
        <pt x="557" y="12" on="1"/>
      </contour>
    </TTGlyph>
    <TTGlyph name="f_f_l" xMin="16" yMin="0" xMax="567" yMax="739">
      <contour>
        <pt x="567" y="5" on="0"/>
        <pt x="563" y="1" on="0"/>
        <pt x="541" y="0" on="0"/>
        <pt x="522" y="0" on="1"/>
        <pt x="522" y="687" on="1"/>
        <pt x="492" y="697" on="0"/>
        <pt x="461" y="697" on="1"/>
        <pt x="429" y="697" on="0"/>
        <pt x="386" y="683" on="0"/>
        <pt x="357" y="628" on="0"/>
        <pt x="357" y="571" on="1"/>
        <pt x="357" y="500" on="1"/>
        <pt x="447" y="500" on="1"/>
        <pt x="447" y="484" on="0"/>
        <pt x="446" y="465" on="0"/>
        <pt x="441" y="460" on="0"/>
        <pt x="434" y="460" on="1"/>
        <pt x="357" y="460" on="1"/>
        <pt x="357" y="12" on="1"/>
        <pt x="357" y="9" on="0"/>
        <pt x="353" y="0" on="0"/>
        <pt x="345" y="0" on="1"/>
        <pt x="312" y="0" on="1"/>
        <pt x="312" y="460" on="1"/>
        <pt x="140" y="460" on="1"/>
        <pt x="140" y="12" on="1"/>
        <pt x="140" y="9" on="0"/>
        <pt x="135" y="0" on="0"/>
        <pt x="127" y="0" on="1"/>
        <pt x="95" y="0" on="1"/>
        <pt x="95" y="460" on="1"/>
        <pt x="16" y="460" on="1"/>
        <pt x="16" y="476" on="0"/>
        <pt x="17" y="495" on="0"/>
        <pt x="23" y="500" on="0"/>
        <pt x="30" y="500" on="1"/>
        <pt x="95" y="500" on="1"/>
        <pt x="95" y="575" on="1"/>
        <pt x="95" y="735" on="0"/>
        <pt x="251" y="735" on="1"/>
        <pt x="306" y="735" on="0"/>
        <pt x="353" y="704" on="1"/>
        <pt x="387" y="739" on="0"/>
        <pt x="458" y="739" on="1"/>
        <pt x="522" y="739" on="0"/>
        <pt x="567" y="714" on="1"/>
        <pt x="567" y="12" on="1"/>
      </contour>
      <contour>
        <pt x="312" y="629" on="0"/>
        <pt x="330" y="670" on="1"/>
        <pt x="298" y="694" on="0"/>
        <pt x="246" y="694" on="1"/>
        <pt x="140" y="694" on="0"/>
        <pt x="140" y="576" on="1"/>
        <pt x="140" y="500" on="1"/>
        <pt x="312" y="500" on="1"/>
        <pt x="312" y="565" on="1"/>
      </contour>
    </TTGlyph>
    <TTGlyph name="fi" xMin="11" yMin="0" xMax="351" yMax="740">
      <contour>
        <pt x="11" y="476" on="0"/>
        <pt x="12" y="495" on="0"/>
        <pt x="18" y="500" on="0"/>
        <pt x="25" y="500" on="1"/>
        <pt x="90" y="500" on="1"/>
        <pt x="90" y="565" on="1"/>
        <pt x="90" y="640" on="0"/>
        <pt x="139" y="717" on="0"/>
        <pt x="209" y="740" on="0"/>
        <pt x="255" y="740" on="1"/>
        <pt x="299" y="740" on="0"/>
        <pt x="351" y="722" on="0"/>
        <pt x="351" y="708" on="1"/>
        <pt x="351" y="694" on="0"/>
        <pt x="346" y="681" on="1"/>
        <pt x="302" y="698" on="0"/>
        <pt x="255" y="698" on="1"/>
        <pt x="220" y="698" on="0"/>
        <pt x="169" y="681" on="0"/>
        <pt x="135" y="621" on="0"/>
        <pt x="135" y="563" on="1"/>
        <pt x="135" y="500" on="1"/>
        <pt x="225" y="500" on="1"/>
        <pt x="225" y="472" on="0"/>
        <pt x="221" y="460" on="0"/>
        <pt x="212" y="460" on="1"/>
        <pt x="135" y="460" on="1"/>
        <pt x="135" y="12" on="1"/>
        <pt x="135" y="9" on="0"/>
        <pt x="130" y="0" on="0"/>
        <pt x="122" y="0" on="1"/>
        <pt x="90" y="0" on="1"/>
        <pt x="90" y="460" on="1"/>
        <pt x="11" y="460" on="1"/>
      </contour>
      <contour>
        <pt x="334" y="5" on="0"/>
        <pt x="330" y="1" on="0"/>
        <pt x="308" y="0" on="0"/>
        <pt x="289" y="0" on="1"/>
        <pt x="289" y="477" on="1"/>
        <pt x="289" y="493" on="0"/>
        <pt x="305" y="500" on="0"/>
        <pt x="334" y="500" on="1"/>
        <pt x="334" y="12" on="1"/>
      </contour>
    </TTGlyph>
    <TTGlyph name="firsttonechinese" xMin="3" yMin="610" xMax="254" yMax="654">
      <component glyphName=".ttfautohint" x="3" y="610" flags="0x0"/>
      <component glyphName="macron" x="0" y="0" flags="0x1000"/>
    </TTGlyph>
    <TTGlyph name="five" xMin="41" yMin="-100" xMax="389" yMax="600">
      <contour>
        <pt x="384" y="572" on="0"/>
        <pt x="375" y="558" on="0"/>
        <pt x="357" y="558" on="1"/>
        <pt x="117" y="560" on="1"/>
        <pt x="98" y="378" on="1"/>
        <pt x="114" y="386" on="0"/>
        <pt x="183" y="386" on="1"/>
        <pt x="265" y="386" on="0"/>
        <pt x="389" y="303" on="0"/>
        <pt x="389" y="194" on="1"/>
        <pt x="389" y="53" on="0"/>
        <pt x="282" y="-100" on="0"/>
        <pt x="159" y="-100" on="1"/>
        <pt x="122" y="-100" on="0"/>
        <pt x="69" y="-87" on="0"/>
        <pt x="41" y="-68" on="0"/>
        <pt x="41" y="-60" on="1"/>
        <pt x="41" y="-37" on="0"/>
        <pt x="47" y="-23" on="1"/>
        <pt x="86" y="-57" on="0"/>
        <pt x="159" y="-57" on="1"/>
        <pt x="343" y="-57" on="0"/>
        <pt x="343" y="190" on="1"/>
        <pt x="343" y="280" on="0"/>
        <pt x="233" y="346" on="0"/>
        <pt x="158" y="346" on="1"/>
        <pt x="111" y="346" on="0"/>
        <pt x="53" y="330" on="0"/>
        <pt x="51" y="330" on="1"/>
        <pt x="78" y="600" on="1"/>
        <pt x="384" y="600" on="1"/>
      </contour>
    </TTGlyph>
    <TTGlyph name="five.001" xMin="41" yMin="-100" xMax="389" yMax="600">
      <contour>
        <pt x="384" y="572" on="0"/>
        <pt x="375" y="558" on="0"/>
        <pt x="357" y="558" on="1"/>
        <pt x="117" y="560" on="1"/>
        <pt x="98" y="378" on="1"/>
        <pt x="114" y="386" on="0"/>
        <pt x="183" y="386" on="1"/>
        <pt x="265" y="386" on="0"/>
        <pt x="389" y="303" on="0"/>
        <pt x="389" y="194" on="1"/>
        <pt x="389" y="53" on="0"/>
        <pt x="282" y="-100" on="0"/>
        <pt x="159" y="-100" on="1"/>
        <pt x="122" y="-100" on="0"/>
        <pt x="69" y="-87" on="0"/>
        <pt x="41" y="-68" on="0"/>
        <pt x="41" y="-60" on="1"/>
        <pt x="41" y="-37" on="0"/>
        <pt x="47" y="-23" on="1"/>
        <pt x="86" y="-57" on="0"/>
        <pt x="159" y="-57" on="1"/>
        <pt x="343" y="-57" on="0"/>
        <pt x="343" y="190" on="1"/>
        <pt x="343" y="280" on="0"/>
        <pt x="233" y="346" on="0"/>
        <pt x="158" y="346" on="1"/>
        <pt x="111" y="346" on="0"/>
        <pt x="53" y="330" on="0"/>
        <pt x="51" y="330" on="1"/>
        <pt x="78" y="600" on="1"/>
        <pt x="384" y="600" on="1"/>
      </contour>
    </TTGlyph>
    <TTGlyph name="fl" xMin="10" yMin="0" xMax="343" yMax="738">
      <contour>
        <pt x="343" y="9" on="0"/>
        <pt x="339" y="0" on="0"/>
        <pt x="331" y="0" on="1"/>
        <pt x="298" y="0" on="1"/>
        <pt x="298" y="688" on="1"/>
        <pt x="271" y="698" on="0"/>
        <pt x="237" y="698" on="1"/>
        <pt x="209" y="698" on="0"/>
        <pt x="166" y="684" on="0"/>
        <pt x="134" y="626" on="0"/>
        <pt x="134" y="567" on="1"/>
        <pt x="134" y="500" on="1"/>
        <pt x="241" y="500" on="1"/>
        <pt x="241" y="472" on="0"/>
        <pt x="237" y="460" on="0"/>
        <pt x="228" y="460" on="1"/>
        <pt x="134" y="460" on="1"/>
        <pt x="134" y="12" on="1"/>
        <pt x="134" y="9" on="0"/>
        <pt x="130" y="0" on="0"/>
        <pt x="122" y="0" on="1"/>
        <pt x="89" y="0" on="1"/>
        <pt x="89" y="460" on="1"/>
        <pt x="10" y="460" on="1"/>
        <pt x="10" y="476" on="0"/>
        <pt x="11" y="495" on="0"/>
        <pt x="17" y="500" on="0"/>
        <pt x="24" y="500" on="1"/>
        <pt x="89" y="500" on="1"/>
        <pt x="89" y="565" on="1"/>
        <pt x="89" y="671" on="0"/>
        <pt x="175" y="738" on="0"/>
        <pt x="235" y="738" on="1"/>
        <pt x="298" y="738" on="0"/>
        <pt x="343" y="713" on="1"/>
        <pt x="343" y="12" on="1"/>
      </contour>
    </TTGlyph>
    <TTGlyph name="florin" xMin="18" yMin="-195" xMax="463" yMax="737">
      <contour>
        <pt x="218" y="644" on="0"/>
        <pt x="266" y="718" on="0"/>
        <pt x="332" y="737" on="0"/>
        <pt x="379" y="737" on="1"/>
        <pt x="416" y="737" on="0"/>
        <pt x="463" y="721" on="0"/>
        <pt x="463" y="711" on="1"/>
        <pt x="463" y="700" on="0"/>
        <pt x="457" y="684" on="1"/>
        <pt x="424" y="695" on="0"/>
        <pt x="382" y="695" on="1"/>
        <pt x="346" y="695" on="0"/>
        <pt x="297" y="681" on="0"/>
        <pt x="263" y="626" on="0"/>
        <pt x="263" y="569" on="1"/>
        <pt x="263" y="500" on="1"/>
        <pt x="427" y="500" on="1"/>
        <pt x="427" y="474" on="0"/>
        <pt x="423" y="458" on="0"/>
        <pt x="415" y="458" on="1"/>
        <pt x="263" y="458" on="1"/>
        <pt x="263" y="-27" on="1"/>
        <pt x="263" y="-102" on="0"/>
        <pt x="215" y="-176" on="0"/>
        <pt x="149" y="-195" on="0"/>
        <pt x="102" y="-195" on="1"/>
        <pt x="65" y="-195" on="0"/>
        <pt x="18" y="-179" on="0"/>
        <pt x="18" y="-169" on="1"/>
        <pt x="18" y="-155" on="0"/>
        <pt x="23" y="-142" on="1"/>
        <pt x="61" y="-154" on="0"/>
        <pt x="98" y="-154" on="1"/>
        <pt x="135" y="-154" on="0"/>
        <pt x="184" y="-140" on="0"/>
        <pt x="218" y="-84" on="0"/>
        <pt x="218" y="-27" on="1"/>
        <pt x="218" y="458" on="1"/>
        <pt x="77" y="458" on="1"/>
        <pt x="77" y="485" on="0"/>
        <pt x="81" y="500" on="0"/>
        <pt x="90" y="500" on="1"/>
        <pt x="218" y="500" on="1"/>
        <pt x="218" y="569" on="1"/>
      </contour>
    </TTGlyph>
    <TTGlyph name="four" xMin="42" yMin="0" xMax="404" yMax="604">
      <contour>
        <pt x="345" y="206" on="0"/>
        <pt x="394" y="207" on="0"/>
        <pt x="402" y="207" on="1"/>
        <pt x="402" y="206" on="0"/>
        <pt x="404" y="199" on="0"/>
        <pt x="404" y="191" on="1"/>
        <pt x="404" y="163" on="0"/>
        <pt x="389" y="163" on="1"/>
        <pt x="312" y="163" on="1"/>
        <pt x="312" y="18" on="1"/>
        <pt x="312" y="8" on="0"/>
        <pt x="309" y="2" on="0"/>
        <pt x="287" y="0" on="0"/>
        <pt x="267" y="0" on="1"/>
        <pt x="267" y="163" on="1"/>
        <pt x="53" y="163" on="1"/>
        <pt x="42" y="174" on="0"/>
        <pt x="42" y="194" on="1"/>
        <pt x="42" y="227" on="0"/>
        <pt x="112" y="385" on="0"/>
        <pt x="217" y="550" on="0"/>
        <pt x="269" y="596" on="1"/>
        <pt x="278" y="604" on="0"/>
        <pt x="291" y="604" on="1"/>
        <pt x="299" y="604" on="0"/>
        <pt x="312" y="599" on="0"/>
        <pt x="312" y="597" on="1"/>
        <pt x="312" y="206" on="1"/>
      </contour>
      <contour>
        <pt x="218" y="481" on="0"/>
        <pt x="104" y="293" on="0"/>
        <pt x="83" y="206" on="1"/>
        <pt x="267" y="206" on="1"/>
        <pt x="275" y="542" on="1"/>
      </contour>
    </TTGlyph>
    <TTGlyph name="four.dnom" xMin="48" yMin="-5" xMax="368" yMax="421">
      <contour>
        <pt x="368" y="112" on="0"/>
        <pt x="368" y="97" on="1"/>
        <pt x="368" y="76" on="0"/>
        <pt x="356" y="76" on="1"/>
        <pt x="290" y="76" on="1"/>
        <pt x="290" y="12" on="1"/>
        <pt x="290" y="-5" on="0"/>
        <pt x="265" y="-5" on="1"/>
        <pt x="261" y="-5" on="0"/>
        <pt x="247" y="-3" on="1"/>
        <pt x="247" y="76" on="1"/>
        <pt x="55" y="76" on="1"/>
        <pt x="48" y="87" on="0"/>
        <pt x="48" y="95" on="1"/>
        <pt x="48" y="104" on="0"/>
        <pt x="56" y="126" on="1"/>
        <pt x="76" y="189" on="0"/>
        <pt x="186" y="359" on="0"/>
        <pt x="237" y="407" on="1"/>
        <pt x="250" y="421" on="0"/>
        <pt x="272" y="421" on="1"/>
        <pt x="284" y="421" on="0"/>
        <pt x="290" y="418" on="1"/>
        <pt x="290" y="119" on="1"/>
        <pt x="365" y="119" on="1"/>
      </contour>
      <contour>
        <pt x="208" y="322" on="0"/>
        <pt x="114" y="179" on="0"/>
        <pt x="95" y="117" on="1"/>
        <pt x="248" y="117" on="1"/>
        <pt x="248" y="361" on="1"/>
      </contour>
    </TTGlyph>
    <TTGlyph name="four.numr" xMin="48" yMin="284" xMax="368" yMax="710">
      <contour>
        <pt x="368" y="401" on="0"/>
        <pt x="368" y="386" on="1"/>
        <pt x="368" y="365" on="0"/>
        <pt x="356" y="365" on="1"/>
        <pt x="290" y="365" on="1"/>
        <pt x="290" y="301" on="1"/>
        <pt x="290" y="284" on="0"/>
        <pt x="265" y="284" on="1"/>
        <pt x="261" y="284" on="0"/>
        <pt x="247" y="286" on="1"/>
        <pt x="247" y="365" on="1"/>
        <pt x="55" y="365" on="1"/>
        <pt x="48" y="376" on="0"/>
        <pt x="48" y="384" on="1"/>
        <pt x="48" y="393" on="0"/>
        <pt x="56" y="415" on="1"/>
        <pt x="76" y="478" on="0"/>
        <pt x="186" y="648" on="0"/>
        <pt x="237" y="696" on="1"/>
        <pt x="250" y="710" on="0"/>
        <pt x="272" y="710" on="1"/>
        <pt x="284" y="710" on="0"/>
        <pt x="290" y="707" on="1"/>
        <pt x="290" y="408" on="1"/>
        <pt x="365" y="408" on="1"/>
      </contour>
      <contour>
        <pt x="208" y="611" on="0"/>
        <pt x="114" y="468" on="0"/>
        <pt x="95" y="406" on="1"/>
        <pt x="248" y="406" on="1"/>
        <pt x="248" y="650" on="1"/>
      </contour>
    </TTGlyph>
    <TTGlyph name="foursuperior" xMin="56" yMin="284" xMax="376" yMax="710">
      <contour>
        <pt x="376" y="398" on="0"/>
        <pt x="376" y="386" on="1"/>
        <pt x="376" y="365" on="0"/>
        <pt x="363" y="365" on="1"/>
        <pt x="298" y="365" on="1"/>
        <pt x="298" y="301" on="1"/>
        <pt x="298" y="284" on="0"/>
        <pt x="273" y="284" on="1"/>
        <pt x="267" y="284" on="0"/>
        <pt x="255" y="286" on="1"/>
        <pt x="255" y="365" on="1"/>
        <pt x="62" y="365" on="1"/>
        <pt x="56" y="374" on="0"/>
        <pt x="56" y="384" on="1"/>
        <pt x="56" y="393" on="0"/>
        <pt x="64" y="415" on="1"/>
        <pt x="84" y="478" on="0"/>
        <pt x="194" y="648" on="0"/>
        <pt x="245" y="696" on="1"/>
        <pt x="258" y="710" on="0"/>
        <pt x="279" y="710" on="1"/>
        <pt x="292" y="710" on="0"/>
        <pt x="298" y="707" on="1"/>
        <pt x="298" y="408" on="1"/>
        <pt x="372" y="408" on="1"/>
      </contour>
      <contour>
        <pt x="216" y="612" on="0"/>
        <pt x="122" y="469" on="0"/>
        <pt x="103" y="406" on="1"/>
        <pt x="256" y="406" on="1"/>
        <pt x="256" y="650" on="1"/>
      </contour>
    </TTGlyph>
    <TTGlyph name="fraction" xMin="-116" yMin="-9" xMax="350" yMax="710">
      <contour>
        <pt x="-76" y="-9" on="0"/>
        <pt x="-87" y="-9" on="1"/>
        <pt x="-107" y="-9" on="0"/>
        <pt x="-116" y="10" on="1"/>
        <pt x="306" y="700" on="1"/>
        <pt x="310" y="710" on="0"/>
        <pt x="321" y="710" on="1"/>
        <pt x="338" y="710" on="0"/>
        <pt x="350" y="691" on="1"/>
        <pt x="-74" y="-2" on="1"/>
      </contour>
    </TTGlyph>
    <TTGlyph name="g" xMin="37" yMin="-198" xMax="391" yMax="510">
      <contour>
        <pt x="391" y="497" on="0"/>
        <pt x="391" y="484" on="1"/>
        <pt x="391" y="465" on="0"/>
        <pt x="370" y="465" on="1"/>
        <pt x="343" y="465" on="0"/>
        <pt x="308" y="470" on="1"/>
        <pt x="371" y="438" on="0"/>
        <pt x="371" y="342" on="1"/>
        <pt x="371" y="259" on="0"/>
        <pt x="291" y="154" on="0"/>
        <pt x="209" y="154" on="1"/>
        <pt x="175" y="154" on="0"/>
        <pt x="148" y="162" on="1"/>
        <pt x="129" y="147" on="0"/>
        <pt x="100" y="112" on="0"/>
        <pt x="100" y="99" on="1"/>
        <pt x="100" y="74" on="0"/>
        <pt x="255" y="56" on="1"/>
        <pt x="319" y="47" on="0"/>
        <pt x="389" y="2" on="0"/>
        <pt x="389" y="-52" on="1"/>
        <pt x="389" y="-90" on="0"/>
        <pt x="346" y="-157" on="0"/>
        <pt x="258" y="-198" on="0"/>
        <pt x="195" y="-198" on="1"/>
        <pt x="37" y="-198" on="0"/>
        <pt x="37" y="-92" on="1"/>
        <pt x="37" y="-58" on="0"/>
        <pt x="87" y="12" on="0"/>
        <pt x="122" y="37" on="1"/>
        <pt x="53" y="55" on="0"/>
        <pt x="53" y="88" on="1"/>
        <pt x="53" y="106" on="0"/>
        <pt x="90" y="155" on="0"/>
        <pt x="117" y="176" on="1"/>
        <pt x="53" y="214" on="0"/>
        <pt x="53" y="330" on="1"/>
        <pt x="53" y="418" on="0"/>
        <pt x="145" y="510" on="0"/>
        <pt x="217" y="510" on="1"/>
        <pt x="237" y="510" on="0"/>
        <pt x="263" y="504" on="1"/>
        <pt x="386" y="504" on="1"/>
      </contour>
      <contour>
        <pt x="165" y="473" on="0"/>
        <pt x="99" y="400" on="0"/>
        <pt x="99" y="330" on="1"/>
        <pt x="99" y="265" on="0"/>
        <pt x="145" y="192" on="0"/>
        <pt x="212" y="192" on="1"/>
        <pt x="268" y="192" on="0"/>
        <pt x="326" y="282" on="0"/>
        <pt x="326" y="349" on="1"/>
        <pt x="326" y="473" on="0"/>
        <pt x="215" y="473" on="1"/>
      </contour>
      <contour>
        <pt x="244" y="-155" on="0"/>
        <pt x="310" y="-127" on="0"/>
        <pt x="344" y="-82" on="0"/>
        <pt x="344" y="-57" on="1"/>
        <pt x="344" y="-17" on="0"/>
        <pt x="288" y="13" on="0"/>
        <pt x="231" y="18" on="1"/>
        <pt x="184" y="24" on="0"/>
        <pt x="161" y="28" on="1"/>
        <pt x="129" y="7" on="0"/>
        <pt x="82" y="-57" on="0"/>
        <pt x="82" y="-85" on="1"/>
        <pt x="82" y="-118" on="0"/>
        <pt x="131" y="-155" on="0"/>
        <pt x="198" y="-155" on="1"/>
      </contour>
    </TTGlyph>
    <TTGlyph name="g.ss01" xMin="48" yMin="-200" xMax="355" yMax="510">
      <contour>
        <pt x="355" y="-125" on="0"/>
        <pt x="264" y="-200" on="0"/>
        <pt x="190" y="-200" on="1"/>
        <pt x="133" y="-200" on="0"/>
        <pt x="62" y="-172" on="0"/>
        <pt x="62" y="-155" on="1"/>
        <pt x="62" y="-140" on="0"/>
        <pt x="72" y="-127" on="1"/>
        <pt x="99" y="-142" on="0"/>
        <pt x="149" y="-158" on="0"/>
        <pt x="192" y="-158" on="1"/>
        <pt x="239" y="-158" on="0"/>
        <pt x="311" y="-106" on="0"/>
        <pt x="311" y="-42" on="1"/>
        <pt x="311" y="41" on="1"/>
        <pt x="293" y="21" on="0"/>
        <pt x="229" y="-9" on="0"/>
        <pt x="191" y="-9" on="1"/>
        <pt x="123" y="-9" on="0"/>
        <pt x="48" y="96" on="0"/>
        <pt x="48" y="234" on="1"/>
        <pt x="48" y="386" on="0"/>
        <pt x="164" y="510" on="0"/>
        <pt x="250" y="510" on="1"/>
        <pt x="281" y="510" on="0"/>
        <pt x="338" y="488" on="0"/>
        <pt x="355" y="471" on="1"/>
        <pt x="355" y="-48" on="1"/>
      </contour>
      <contour>
        <pt x="303" y="454" on="0"/>
        <pt x="264" y="470" on="0"/>
        <pt x="238" y="470" on="1"/>
        <pt x="179" y="470" on="0"/>
        <pt x="95" y="366" on="0"/>
        <pt x="95" y="232" on="1"/>
        <pt x="95" y="33" on="0"/>
        <pt x="201" y="33" on="1"/>
        <pt x="236" y="33" on="0"/>
        <pt x="294" y="67" on="0"/>
        <pt x="311" y="101" on="1"/>
        <pt x="311" y="444" on="1"/>
      </contour>
    </TTGlyph>
    <TTGlyph name="gbreve" xMin="37" yMin="-198" xMax="391" yMax="709">
      <component glyphName=".ttfautohint" x="37" y="0" flags="0x0"/>
      <component glyphName="g" x="0" y="0" flags="0x1000"/>
      <component glyphName="breve" x="82" y="0" flags="0x1000"/>
    </TTGlyph>
    <TTGlyph name="gcommaaccent" xMin="37" yMin="-198" xMax="391" yMax="738">
      <contour>
        <pt x="191" y="554" on="0"/>
        <pt x="174" y="572" on="0"/>
        <pt x="174" y="596" on="1"/>
        <pt x="174" y="624" on="0"/>
        <pt x="198" y="690" on="0"/>
        <pt x="228" y="738" on="0"/>
        <pt x="236" y="738" on="1"/>
        <pt x="243" y="738" on="0"/>
        <pt x="255" y="729" on="0"/>
        <pt x="256" y="722" on="1"/>
        <pt x="226" y="672" on="0"/>
        <pt x="226" y="626" on="1"/>
        <pt x="244" y="615" on="0"/>
        <pt x="244" y="590" on="1"/>
        <pt x="244" y="574" on="0"/>
        <pt x="225" y="554" on="0"/>
        <pt x="209" y="554" on="1"/>
      </contour>
      <contour>
        <pt x="391" y="497" on="0"/>
        <pt x="391" y="484" on="1"/>
        <pt x="391" y="465" on="0"/>
        <pt x="370" y="465" on="1"/>
        <pt x="343" y="465" on="0"/>
        <pt x="308" y="470" on="1"/>
        <pt x="371" y="438" on="0"/>
        <pt x="371" y="342" on="1"/>
        <pt x="371" y="259" on="0"/>
        <pt x="291" y="154" on="0"/>
        <pt x="209" y="154" on="1"/>
        <pt x="175" y="154" on="0"/>
        <pt x="148" y="162" on="1"/>
        <pt x="129" y="147" on="0"/>
        <pt x="100" y="112" on="0"/>
        <pt x="100" y="99" on="1"/>
        <pt x="100" y="74" on="0"/>
        <pt x="255" y="56" on="1"/>
        <pt x="319" y="47" on="0"/>
        <pt x="389" y="2" on="0"/>
        <pt x="389" y="-52" on="1"/>
        <pt x="389" y="-90" on="0"/>
        <pt x="346" y="-157" on="0"/>
        <pt x="258" y="-198" on="0"/>
        <pt x="195" y="-198" on="1"/>
        <pt x="37" y="-198" on="0"/>
        <pt x="37" y="-92" on="1"/>
        <pt x="37" y="-58" on="0"/>
        <pt x="87" y="12" on="0"/>
        <pt x="122" y="37" on="1"/>
        <pt x="53" y="55" on="0"/>
        <pt x="53" y="88" on="1"/>
        <pt x="53" y="106" on="0"/>
        <pt x="90" y="155" on="0"/>
        <pt x="117" y="176" on="1"/>
        <pt x="53" y="214" on="0"/>
        <pt x="53" y="330" on="1"/>
        <pt x="53" y="418" on="0"/>
        <pt x="145" y="510" on="0"/>
        <pt x="217" y="510" on="1"/>
        <pt x="237" y="510" on="0"/>
        <pt x="263" y="504" on="1"/>
        <pt x="386" y="504" on="1"/>
      </contour>
      <contour>
        <pt x="165" y="473" on="0"/>
        <pt x="99" y="400" on="0"/>
        <pt x="99" y="330" on="1"/>
        <pt x="99" y="265" on="0"/>
        <pt x="145" y="192" on="0"/>
        <pt x="212" y="192" on="1"/>
        <pt x="268" y="192" on="0"/>
        <pt x="326" y="282" on="0"/>
        <pt x="326" y="349" on="1"/>
        <pt x="326" y="473" on="0"/>
        <pt x="215" y="473" on="1"/>
      </contour>
      <contour>
        <pt x="244" y="-155" on="0"/>
        <pt x="310" y="-127" on="0"/>
        <pt x="344" y="-82" on="0"/>
        <pt x="344" y="-57" on="1"/>
        <pt x="344" y="-17" on="0"/>
        <pt x="288" y="13" on="0"/>
        <pt x="231" y="18" on="1"/>
        <pt x="184" y="24" on="0"/>
        <pt x="161" y="28" on="1"/>
        <pt x="129" y="7" on="0"/>
        <pt x="82" y="-57" on="0"/>
        <pt x="82" y="-85" on="1"/>
        <pt x="82" y="-118" on="0"/>
        <pt x="131" y="-155" on="0"/>
        <pt x="198" y="-155" on="1"/>
      </contour>
    </TTGlyph>
</ttFont>
